STARTFONT 2.1
FONT -Kadoma-k8x12-Regular-R-Normal--12-120-75-75-C-79-ISO10646-1
SIZE 12 75 75
FONTBOUNDINGBOX 8 12 0 -2
STARTPROPERTIES 18
FONTNAME_REGISTRY ""
FOUNDRY "Kadoma"
FAMILY_NAME "k8x12"
WEIGHT_NAME "Regular"
SLANT "R"
SETWIDTH_NAME "Normal"
ADD_STYLE_NAME ""
PIXEL_SIZE 12
POINT_SIZE 120
RESOLUTION_X 75
RESOLUTION_Y 75
SPACING "C"
AVERAGE_WIDTH 79
CHARSET_REGISTRY "ISO10646"
CHARSET_ENCODING "1"
FONT_DESCENT 2
FONT_ASCENT 10
COPYRIGHT "Copyright (C) 2015-2021 Num Kadoma"
ENDPROPERTIES
CHARS 272
STARTCHAR space
ENCODING 32
SWIDTH 333 0
DWIDTH 4 0
BBX 0 0 0 0
BITMAP
ENDCHAR
STARTCHAR exclam
ENCODING 33
SWIDTH 333 0
DWIDTH 4 0
BBX 1 9 1 0
BITMAP
80
80
80
80
80
80
00
00
80
ENDCHAR
STARTCHAR quotedbl
ENCODING 34
SWIDTH 333 0
DWIDTH 4 0
BBX 3 3 0 6
BITMAP
A0
A0
A0
ENDCHAR
STARTCHAR numbersign
ENCODING 35
SWIDTH 333 0
DWIDTH 4 0
BBX 3 9 0 0
BITMAP
A0
A0
E0
A0
A0
A0
E0
A0
A0
ENDCHAR
STARTCHAR dollar
ENCODING 36
SWIDTH 333 0
DWIDTH 4 0
BBX 3 9 0 0
BITMAP
40
40
A0
80
40
20
A0
40
40
ENDCHAR
STARTCHAR percent
ENCODING 37
SWIDTH 333 0
DWIDTH 4 0
BBX 3 7 0 1
BITMAP
80
00
20
40
80
00
20
ENDCHAR
STARTCHAR ampersand
ENCODING 38
SWIDTH 333 0
DWIDTH 4 0
BBX 3 9 0 0
BITMAP
40
A0
A0
40
40
A0
A0
80
60
ENDCHAR
STARTCHAR quotesingle
ENCODING 39
SWIDTH 333 0
DWIDTH 4 0
BBX 1 3 1 6
BITMAP
80
80
80
ENDCHAR
STARTCHAR parenleft
ENCODING 40
SWIDTH 333 0
DWIDTH 4 0
BBX 2 11 1 -1
BITMAP
40
80
80
80
80
80
80
80
80
80
40
ENDCHAR
STARTCHAR parenright
ENCODING 41
SWIDTH 333 0
DWIDTH 4 0
BBX 2 11 0 -1
BITMAP
80
40
40
40
40
40
40
40
40
40
80
ENDCHAR
STARTCHAR asterisk
ENCODING 42
SWIDTH 333 0
DWIDTH 4 0
BBX 3 5 0 1
BITMAP
A0
40
E0
40
A0
ENDCHAR
STARTCHAR plus
ENCODING 43
SWIDTH 333 0
DWIDTH 4 0
BBX 3 5 0 1
BITMAP
40
40
E0
40
40
ENDCHAR
STARTCHAR comma
ENCODING 44
SWIDTH 333 0
DWIDTH 4 0
BBX 2 3 0 -1
BITMAP
40
40
80
ENDCHAR
STARTCHAR hyphen
ENCODING 45
SWIDTH 333 0
DWIDTH 4 0
BBX 3 1 0 3
BITMAP
E0
ENDCHAR
STARTCHAR period
ENCODING 46
SWIDTH 333 0
DWIDTH 4 0
BBX 1 1 1 0
BITMAP
80
ENDCHAR
STARTCHAR slash
ENCODING 47
SWIDTH 333 0
DWIDTH 4 0
BBX 3 9 0 0
BITMAP
20
20
40
40
40
40
40
80
80
ENDCHAR
STARTCHAR zero
ENCODING 48
SWIDTH 333 0
DWIDTH 4 0
BBX 3 9 0 0
BITMAP
40
A0
A0
A0
E0
A0
A0
A0
40
ENDCHAR
STARTCHAR one
ENCODING 49
SWIDTH 333 0
DWIDTH 4 0
BBX 3 9 0 0
BITMAP
40
C0
40
40
40
40
40
40
E0
ENDCHAR
STARTCHAR two
ENCODING 50
SWIDTH 333 0
DWIDTH 4 0
BBX 3 9 0 0
BITMAP
40
A0
A0
20
40
40
80
80
E0
ENDCHAR
STARTCHAR three
ENCODING 51
SWIDTH 333 0
DWIDTH 4 0
BBX 3 9 0 0
BITMAP
40
A0
A0
20
40
20
A0
A0
40
ENDCHAR
STARTCHAR four
ENCODING 52
SWIDTH 333 0
DWIDTH 4 0
BBX 3 9 0 0
BITMAP
20
20
60
60
A0
A0
E0
20
20
ENDCHAR
STARTCHAR five
ENCODING 53
SWIDTH 333 0
DWIDTH 4 0
BBX 3 9 0 0
BITMAP
E0
80
80
C0
A0
20
A0
A0
40
ENDCHAR
STARTCHAR six
ENCODING 54
SWIDTH 333 0
DWIDTH 4 0
BBX 3 9 0 0
BITMAP
40
A0
A0
80
C0
A0
A0
A0
40
ENDCHAR
STARTCHAR seven
ENCODING 55
SWIDTH 333 0
DWIDTH 4 0
BBX 3 9 0 0
BITMAP
E0
A0
20
20
40
40
40
40
40
ENDCHAR
STARTCHAR eight
ENCODING 56
SWIDTH 333 0
DWIDTH 4 0
BBX 3 9 0 0
BITMAP
40
A0
A0
40
40
A0
A0
A0
40
ENDCHAR
STARTCHAR nine
ENCODING 57
SWIDTH 333 0
DWIDTH 4 0
BBX 3 9 0 0
BITMAP
40
A0
A0
A0
60
20
A0
A0
40
ENDCHAR
STARTCHAR colon
ENCODING 58
SWIDTH 333 0
DWIDTH 4 0
BBX 1 6 1 0
BITMAP
80
00
00
00
00
80
ENDCHAR
STARTCHAR semicolon
ENCODING 59
SWIDTH 333 0
DWIDTH 4 0
BBX 2 7 0 -1
BITMAP
40
00
00
00
40
40
80
ENDCHAR
STARTCHAR less
ENCODING 60
SWIDTH 333 0
DWIDTH 4 0
BBX 3 5 0 1
BITMAP
20
40
80
40
20
ENDCHAR
STARTCHAR equal
ENCODING 61
SWIDTH 333 0
DWIDTH 4 0
BBX 3 3 0 2
BITMAP
E0
00
E0
ENDCHAR
STARTCHAR greater
ENCODING 62
SWIDTH 333 0
DWIDTH 4 0
BBX 3 5 0 1
BITMAP
80
40
20
40
80
ENDCHAR
STARTCHAR question
ENCODING 63
SWIDTH 333 0
DWIDTH 4 0
BBX 3 9 0 0
BITMAP
40
A0
A0
20
40
40
00
00
40
ENDCHAR
STARTCHAR at
ENCODING 64
SWIDTH 333 0
DWIDTH 4 0
BBX 3 10 0 -1
BITMAP
40
A0
A0
E0
A0
A0
C0
80
A0
40
ENDCHAR
STARTCHAR A
ENCODING 65
SWIDTH 333 0
DWIDTH 4 0
BBX 3 9 0 0
BITMAP
40
A0
A0
A0
A0
E0
A0
A0
A0
ENDCHAR
STARTCHAR B
ENCODING 66
SWIDTH 333 0
DWIDTH 4 0
BBX 3 9 0 0
BITMAP
C0
A0
A0
A0
C0
A0
A0
A0
C0
ENDCHAR
STARTCHAR C
ENCODING 67
SWIDTH 333 0
DWIDTH 4 0
BBX 3 9 0 0
BITMAP
40
A0
A0
80
80
80
A0
A0
40
ENDCHAR
STARTCHAR D
ENCODING 68
SWIDTH 333 0
DWIDTH 4 0
BBX 3 9 0 0
BITMAP
C0
A0
A0
A0
A0
A0
A0
A0
C0
ENDCHAR
STARTCHAR E
ENCODING 69
SWIDTH 333 0
DWIDTH 4 0
BBX 3 9 0 0
BITMAP
E0
80
80
80
C0
80
80
80
E0
ENDCHAR
STARTCHAR F
ENCODING 70
SWIDTH 333 0
DWIDTH 4 0
BBX 3 9 0 0
BITMAP
E0
80
80
80
C0
80
80
80
80
ENDCHAR
STARTCHAR G
ENCODING 71
SWIDTH 333 0
DWIDTH 4 0
BBX 3 9 0 0
BITMAP
40
A0
A0
80
A0
A0
A0
A0
60
ENDCHAR
STARTCHAR H
ENCODING 72
SWIDTH 333 0
DWIDTH 4 0
BBX 3 9 0 0
BITMAP
A0
A0
A0
A0
E0
A0
A0
A0
A0
ENDCHAR
STARTCHAR I
ENCODING 73
SWIDTH 333 0
DWIDTH 4 0
BBX 3 9 0 0
BITMAP
E0
40
40
40
40
40
40
40
E0
ENDCHAR
STARTCHAR J
ENCODING 74
SWIDTH 333 0
DWIDTH 4 0
BBX 3 9 0 0
BITMAP
20
20
20
20
20
20
A0
A0
40
ENDCHAR
STARTCHAR K
ENCODING 75
SWIDTH 333 0
DWIDTH 4 0
BBX 3 9 0 0
BITMAP
A0
A0
A0
C0
C0
A0
A0
A0
A0
ENDCHAR
STARTCHAR L
ENCODING 76
SWIDTH 333 0
DWIDTH 4 0
BBX 3 9 0 0
BITMAP
80
80
80
80
80
80
80
80
E0
ENDCHAR
STARTCHAR M
ENCODING 77
SWIDTH 333 0
DWIDTH 4 0
BBX 3 9 0 0
BITMAP
A0
E0
E0
E0
E0
A0
A0
A0
A0
ENDCHAR
STARTCHAR N
ENCODING 78
SWIDTH 333 0
DWIDTH 4 0
BBX 3 9 0 0
BITMAP
C0
A0
A0
A0
A0
A0
A0
A0
A0
ENDCHAR
STARTCHAR O
ENCODING 79
SWIDTH 333 0
DWIDTH 4 0
BBX 3 9 0 0
BITMAP
40
A0
A0
A0
A0
A0
A0
A0
40
ENDCHAR
STARTCHAR P
ENCODING 80
SWIDTH 333 0
DWIDTH 4 0
BBX 3 9 0 0
BITMAP
C0
A0
A0
A0
C0
80
80
80
80
ENDCHAR
STARTCHAR Q
ENCODING 81
SWIDTH 333 0
DWIDTH 4 0
BBX 3 9 0 0
BITMAP
40
A0
A0
A0
A0
A0
E0
A0
60
ENDCHAR
STARTCHAR R
ENCODING 82
SWIDTH 333 0
DWIDTH 4 0
BBX 3 9 0 0
BITMAP
C0
A0
A0
A0
C0
A0
A0
A0
A0
ENDCHAR
STARTCHAR S
ENCODING 83
SWIDTH 333 0
DWIDTH 4 0
BBX 3 9 0 0
BITMAP
40
A0
A0
80
40
20
A0
A0
40
ENDCHAR
STARTCHAR T
ENCODING 84
SWIDTH 333 0
DWIDTH 4 0
BBX 3 9 0 0
BITMAP
E0
40
40
40
40
40
40
40
40
ENDCHAR
STARTCHAR U
ENCODING 85
SWIDTH 333 0
DWIDTH 4 0
BBX 3 9 0 0
BITMAP
A0
A0
A0
A0
A0
A0
A0
A0
E0
ENDCHAR
STARTCHAR V
ENCODING 86
SWIDTH 333 0
DWIDTH 4 0
BBX 3 9 0 0
BITMAP
A0
A0
A0
A0
A0
A0
A0
40
40
ENDCHAR
STARTCHAR W
ENCODING 87
SWIDTH 333 0
DWIDTH 4 0
BBX 3 9 0 0
BITMAP
A0
A0
A0
A0
E0
E0
E0
E0
A0
ENDCHAR
STARTCHAR X
ENCODING 88
SWIDTH 333 0
DWIDTH 4 0
BBX 3 9 0 0
BITMAP
A0
A0
A0
40
40
40
A0
A0
A0
ENDCHAR
STARTCHAR Y
ENCODING 89
SWIDTH 333 0
DWIDTH 4 0
BBX 3 9 0 0
BITMAP
A0
A0
A0
A0
40
40
40
40
40
ENDCHAR
STARTCHAR Z
ENCODING 90
SWIDTH 333 0
DWIDTH 4 0
BBX 3 9 0 0
BITMAP
E0
20
20
40
40
40
80
80
E0
ENDCHAR
STARTCHAR bracketleft
ENCODING 91
SWIDTH 333 0
DWIDTH 4 0
BBX 2 11 1 -1
BITMAP
C0
80
80
80
80
80
80
80
80
80
C0
ENDCHAR
STARTCHAR backslash
ENCODING 92
SWIDTH 333 0
DWIDTH 4 0
BBX 3 9 0 0
BITMAP
80
80
40
40
40
40
40
20
20
ENDCHAR
STARTCHAR bracketright
ENCODING 93
SWIDTH 333 0
DWIDTH 4 0
BBX 2 11 0 -1
BITMAP
C0
40
40
40
40
40
40
40
40
40
C0
ENDCHAR
STARTCHAR asciicircum
ENCODING 94
SWIDTH 333 0
DWIDTH 4 0
BBX 3 3 0 6
BITMAP
40
A0
A0
ENDCHAR
STARTCHAR underscore
ENCODING 95
SWIDTH 333 0
DWIDTH 4 0
BBX 3 1 0 -1
BITMAP
E0
ENDCHAR
STARTCHAR grave
ENCODING 96
SWIDTH 333 0
DWIDTH 4 0
BBX 2 2 0 8
BITMAP
80
40
ENDCHAR
STARTCHAR a
ENCODING 97
SWIDTH 333 0
DWIDTH 4 0
BBX 3 6 0 0
BITMAP
C0
20
60
A0
A0
60
ENDCHAR
STARTCHAR b
ENCODING 98
SWIDTH 333 0
DWIDTH 4 0
BBX 3 9 0 0
BITMAP
80
80
80
C0
A0
A0
A0
A0
C0
ENDCHAR
STARTCHAR c
ENCODING 99
SWIDTH 333 0
DWIDTH 4 0
BBX 3 6 0 0
BITMAP
40
A0
80
80
A0
40
ENDCHAR
STARTCHAR d
ENCODING 100
SWIDTH 333 0
DWIDTH 4 0
BBX 3 9 0 0
BITMAP
20
20
20
60
A0
A0
A0
A0
60
ENDCHAR
STARTCHAR e
ENCODING 101
SWIDTH 333 0
DWIDTH 4 0
BBX 3 6 0 0
BITMAP
40
A0
A0
E0
80
60
ENDCHAR
STARTCHAR f
ENCODING 102
SWIDTH 333 0
DWIDTH 4 0
BBX 3 9 0 0
BITMAP
60
40
40
E0
40
40
40
40
40
ENDCHAR
STARTCHAR g
ENCODING 103
SWIDTH 333 0
DWIDTH 4 0
BBX 3 7 0 -1
BITMAP
60
A0
A0
60
20
A0
40
ENDCHAR
STARTCHAR h
ENCODING 104
SWIDTH 333 0
DWIDTH 4 0
BBX 3 9 0 0
BITMAP
80
80
80
C0
A0
A0
A0
A0
A0
ENDCHAR
STARTCHAR i
ENCODING 105
SWIDTH 333 0
DWIDTH 4 0
BBX 1 9 1 0
BITMAP
80
00
00
80
80
80
80
80
80
ENDCHAR
STARTCHAR j
ENCODING 106
SWIDTH 333 0
DWIDTH 4 0
BBX 3 10 0 -1
BITMAP
20
00
00
20
20
20
20
A0
A0
40
ENDCHAR
STARTCHAR k
ENCODING 107
SWIDTH 333 0
DWIDTH 4 0
BBX 3 9 0 0
BITMAP
80
80
80
A0
A0
C0
A0
A0
A0
ENDCHAR
STARTCHAR l
ENCODING 108
SWIDTH 333 0
DWIDTH 4 0
BBX 2 9 0 0
BITMAP
C0
40
40
40
40
40
40
40
40
ENDCHAR
STARTCHAR m
ENCODING 109
SWIDTH 333 0
DWIDTH 4 0
BBX 3 6 0 0
BITMAP
C0
E0
E0
E0
A0
A0
ENDCHAR
STARTCHAR n
ENCODING 110
SWIDTH 333 0
DWIDTH 4 0
BBX 3 6 0 0
BITMAP
C0
A0
A0
A0
A0
A0
ENDCHAR
STARTCHAR o
ENCODING 111
SWIDTH 333 0
DWIDTH 4 0
BBX 3 6 0 0
BITMAP
40
A0
A0
A0
A0
40
ENDCHAR
STARTCHAR p
ENCODING 112
SWIDTH 333 0
DWIDTH 4 0
BBX 3 7 0 -1
BITMAP
C0
A0
A0
A0
C0
80
80
ENDCHAR
STARTCHAR q
ENCODING 113
SWIDTH 333 0
DWIDTH 4 0
BBX 3 7 0 -1
BITMAP
60
A0
A0
A0
60
20
20
ENDCHAR
STARTCHAR r
ENCODING 114
SWIDTH 333 0
DWIDTH 4 0
BBX 3 6 0 0
BITMAP
A0
C0
80
80
80
80
ENDCHAR
STARTCHAR s
ENCODING 115
SWIDTH 333 0
DWIDTH 4 0
BBX 3 6 0 0
BITMAP
60
80
40
20
20
C0
ENDCHAR
STARTCHAR t
ENCODING 116
SWIDTH 333 0
DWIDTH 4 0
BBX 3 8 0 0
BITMAP
40
40
E0
40
40
40
40
60
ENDCHAR
STARTCHAR u
ENCODING 117
SWIDTH 333 0
DWIDTH 4 0
BBX 3 6 0 0
BITMAP
A0
A0
A0
A0
A0
E0
ENDCHAR
STARTCHAR v
ENCODING 118
SWIDTH 333 0
DWIDTH 4 0
BBX 3 6 0 0
BITMAP
A0
A0
A0
A0
40
40
ENDCHAR
STARTCHAR w
ENCODING 119
SWIDTH 333 0
DWIDTH 4 0
BBX 3 6 0 0
BITMAP
A0
A0
A0
E0
E0
A0
ENDCHAR
STARTCHAR x
ENCODING 120
SWIDTH 333 0
DWIDTH 4 0
BBX 3 6 0 0
BITMAP
A0
A0
40
40
A0
A0
ENDCHAR
STARTCHAR y
ENCODING 121
SWIDTH 333 0
DWIDTH 4 0
BBX 3 7 0 -1
BITMAP
A0
A0
A0
60
20
20
C0
ENDCHAR
STARTCHAR z
ENCODING 122
SWIDTH 333 0
DWIDTH 4 0
BBX 3 6 0 0
BITMAP
E0
20
40
40
80
E0
ENDCHAR
STARTCHAR braceleft
ENCODING 123
SWIDTH 333 0
DWIDTH 4 0
BBX 3 11 0 -1
BITMAP
60
40
40
40
40
80
40
40
40
40
60
ENDCHAR
STARTCHAR bar
ENCODING 124
SWIDTH 333 0
DWIDTH 4 0
BBX 1 11 1 -1
BITMAP
80
80
80
80
80
80
80
80
80
80
80
ENDCHAR
STARTCHAR braceright
ENCODING 125
SWIDTH 333 0
DWIDTH 4 0
BBX 3 11 0 -1
BITMAP
C0
40
40
40
40
20
40
40
40
40
C0
ENDCHAR
STARTCHAR asciitilde
ENCODING 126
SWIDTH 333 0
DWIDTH 4 0
BBX 3 2 0 3
BITMAP
C0
60
ENDCHAR
STARTCHAR uni3041
ENCODING 12353
SWIDTH 666 0
DWIDTH 8 0
BBX 6 7 0 0
BITMAP
20
78
20
38
6C
B4
64
ENDCHAR
STARTCHAR uni3042
ENCODING 12354
SWIDTH 666 0
DWIDTH 8 0
BBX 7 9 0 0
BITMAP
20
7C
20
28
3C
6A
AA
B2
64
ENDCHAR
STARTCHAR uni3043
ENCODING 12355
SWIDTH 666 0
DWIDTH 8 0
BBX 6 6 0 0
BITMAP
88
84
84
84
A0
40
ENDCHAR
STARTCHAR uni3044
ENCODING 12356
SWIDTH 666 0
DWIDTH 8 0
BBX 7 8 0 0
BITMAP
88
84
82
82
82
A2
A0
40
ENDCHAR
STARTCHAR uni3045
ENCODING 12357
SWIDTH 666 0
DWIDTH 8 0
BBX 5 7 1 0
BITMAP
70
00
70
88
08
10
60
ENDCHAR
STARTCHAR uni3046
ENCODING 12358
SWIDTH 666 0
DWIDTH 8 0
BBX 6 9 1 0
BITMAP
78
00
78
84
04
04
08
10
60
ENDCHAR
STARTCHAR uni3047
ENCODING 12359
SWIDTH 666 0
DWIDTH 8 0
BBX 5 7 1 0
BITMAP
70
00
F0
10
20
50
98
ENDCHAR
STARTCHAR uni3048
ENCODING 12360
SWIDTH 666 0
DWIDTH 8 0
BBX 7 9 0 0
BITMAP
38
00
7C
08
10
38
28
48
8E
ENDCHAR
STARTCHAR uni3049
ENCODING 12361
SWIDTH 666 0
DWIDTH 8 0
BBX 6 7 0 0
BITMAP
20
F4
20
38
64
A4
68
ENDCHAR
STARTCHAR uni304A
ENCODING 12362
SWIDTH 666 0
DWIDTH 8 0
BBX 7 9 0 0
BITMAP
20
F4
22
20
3C
62
A2
A2
6C
ENDCHAR
STARTCHAR uni304B
ENCODING 12363
SWIDTH 666 0
DWIDTH 8 0
BBX 7 9 0 0
BITMAP
20
20
F4
2A
4A
4A
48
A8
90
ENDCHAR
STARTCHAR uni304C
ENCODING 12364
SWIDTH 666 0
DWIDTH 8 0
BBX 7 10 0 0
BITMAP
0A
2A
20
F4
2A
4A
4A
48
A8
90
ENDCHAR
STARTCHAR uni304D
ENCODING 12365
SWIDTH 666 0
DWIDTH 8 0
BBX 7 9 0 0
BITMAP
08
7C
08
FE
04
3C
40
40
3C
ENDCHAR
STARTCHAR uni304E
ENCODING 12366
SWIDTH 666 0
DWIDTH 8 0
BBX 7 10 0 0
BITMAP
0A
0A
7C
08
FE
04
3C
40
40
3C
ENDCHAR
STARTCHAR uni304F
ENCODING 12367
SWIDTH 666 0
DWIDTH 8 0
BBX 4 9 1 0
BITMAP
10
20
40
80
80
40
20
10
10
ENDCHAR
STARTCHAR uni3050
ENCODING 12368
SWIDTH 666 0
DWIDTH 8 0
BBX 6 9 1 0
BITMAP
10
20
54
94
80
40
20
10
10
ENDCHAR
STARTCHAR uni3051
ENCODING 12369
SWIDTH 666 0
DWIDTH 8 0
BBX 7 9 0 0
BITMAP
84
84
BE
84
84
84
84
88
10
ENDCHAR
STARTCHAR uni3052
ENCODING 12370
SWIDTH 666 0
DWIDTH 8 0
BBX 7 10 0 0
BITMAP
0A
8A
84
BE
84
84
84
84
88
10
ENDCHAR
STARTCHAR uni3053
ENCODING 12371
SWIDTH 666 0
DWIDTH 8 0
BBX 7 8 0 0
BITMAP
7C
00
00
00
40
80
80
7E
ENDCHAR
STARTCHAR uni3054
ENCODING 12372
SWIDTH 666 0
DWIDTH 8 0
BBX 7 10 0 0
BITMAP
0A
0A
7C
00
00
00
40
80
80
7E
ENDCHAR
STARTCHAR uni3055
ENCODING 12373
SWIDTH 666 0
DWIDTH 8 0
BBX 7 9 0 0
BITMAP
08
FE
08
04
3C
44
40
20
1C
ENDCHAR
STARTCHAR uni3056
ENCODING 12374
SWIDTH 666 0
DWIDTH 8 0
BBX 7 10 0 0
BITMAP
0A
0A
FE
08
04
3C
44
40
20
1C
ENDCHAR
STARTCHAR uni3057
ENCODING 12375
SWIDTH 666 0
DWIDTH 8 0
BBX 6 9 1 0
BITMAP
80
80
80
80
80
80
84
88
70
ENDCHAR
STARTCHAR uni3058
ENCODING 12376
SWIDTH 666 0
DWIDTH 8 0
BBX 6 10 1 0
BITMAP
14
94
80
80
80
80
80
84
88
70
ENDCHAR
STARTCHAR uni3059
ENCODING 12377
SWIDTH 666 0
DWIDTH 8 0
BBX 7 9 0 0
BITMAP
08
FE
08
38
48
48
38
08
30
ENDCHAR
STARTCHAR uni305A
ENCODING 12378
SWIDTH 666 0
DWIDTH 8 0
BBX 7 10 0 0
BITMAP
0A
0A
FE
08
38
48
48
38
08
30
ENDCHAR
STARTCHAR uni305B
ENCODING 12379
SWIDTH 666 0
DWIDTH 8 0
BBX 7 9 0 0
BITMAP
24
24
FE
24
24
2C
20
20
1E
ENDCHAR
STARTCHAR uni305C
ENCODING 12380
SWIDTH 666 0
DWIDTH 8 0
BBX 7 10 0 0
BITMAP
0A
2A
24
FE
24
24
2C
20
20
1E
ENDCHAR
STARTCHAR uni305D
ENCODING 12381
SWIDTH 666 0
DWIDTH 8 0
BBX 7 9 0 0
BITMAP
7C
10
20
FE
10
20
20
20
1C
ENDCHAR
STARTCHAR uni305E
ENCODING 12382
SWIDTH 666 0
DWIDTH 8 0
BBX 7 10 0 0
BITMAP
0A
7A
10
20
FE
10
20
20
20
1C
ENDCHAR
STARTCHAR uni305F
ENCODING 12383
SWIDTH 666 0
DWIDTH 8 0
BBX 7 9 0 0
BITMAP
20
F8
20
4E
40
40
48
90
8E
ENDCHAR
STARTCHAR uni3060
ENCODING 12384
SWIDTH 666 0
DWIDTH 8 0
BBX 7 10 0 0
BITMAP
0A
2A
F0
20
4E
40
40
48
90
8E
ENDCHAR
STARTCHAR uni3061
ENCODING 12385
SWIDTH 666 0
DWIDTH 8 0
BBX 7 9 0 0
BITMAP
20
FC
20
20
5C
62
02
04
38
ENDCHAR
STARTCHAR uni3062
ENCODING 12386
SWIDTH 666 0
DWIDTH 8 0
BBX 7 10 0 0
BITMAP
0A
2A
FC
20
20
5C
62
02
04
38
ENDCHAR
STARTCHAR uni3063
ENCODING 12387
SWIDTH 666 0
DWIDTH 8 0
BBX 6 5 0 0
BITMAP
38
C4
04
08
30
ENDCHAR
STARTCHAR uni3064
ENCODING 12388
SWIDTH 666 0
DWIDTH 8 0
BBX 7 7 0 1
BITMAP
3C
C2
02
02
02
04
38
ENDCHAR
STARTCHAR uni3065
ENCODING 12389
SWIDTH 666 0
DWIDTH 8 0
BBX 7 9 0 1
BITMAP
0A
0A
3C
C2
02
02
02
04
38
ENDCHAR
STARTCHAR uni3066
ENCODING 12390
SWIDTH 666 0
DWIDTH 8 0
BBX 7 8 0 0
BITMAP
FE
10
20
20
20
20
10
0C
ENDCHAR
STARTCHAR uni3067
ENCODING 12391
SWIDTH 666 0
DWIDTH 8 0
BBX 7 10 0 0
BITMAP
0A
0A
FE
10
20
20
20
20
10
0C
ENDCHAR
STARTCHAR uni3068
ENCODING 12392
SWIDTH 666 0
DWIDTH 8 0
BBX 7 9 0 0
BITMAP
20
20
20
2C
30
40
80
80
7E
ENDCHAR
STARTCHAR uni3069
ENCODING 12393
SWIDTH 666 0
DWIDTH 8 0
BBX 7 10 0 0
BITMAP
0A
2A
20
20
2C
30
40
80
80
7E
ENDCHAR
STARTCHAR uni306A
ENCODING 12394
SWIDTH 666 0
DWIDTH 8 0
BBX 7 9 0 0
BITMAP
20
F4
22
44
44
9C
24
26
18
ENDCHAR
STARTCHAR uni306B
ENCODING 12395
SWIDTH 666 0
DWIDTH 8 0
BBX 7 9 0 0
BITMAP
80
9C
80
80
80
90
A0
A0
9E
ENDCHAR
STARTCHAR uni306C
ENCODING 12396
SWIDTH 666 0
DWIDTH 8 0
BBX 7 9 0 0
BITMAP
08
48
5C
6A
4A
B2
96
AA
46
ENDCHAR
STARTCHAR uni306D
ENCODING 12397
SWIDTH 666 0
DWIDTH 8 0
BBX 7 9 0 0
BITMAP
20
2C
F2
22
22
66
6A
AA
26
ENDCHAR
STARTCHAR uni306E
ENCODING 12398
SWIDTH 666 0
DWIDTH 8 0
BBX 7 8 0 0
BITMAP
38
54
92
92
A2
A2
44
18
ENDCHAR
STARTCHAR uni306F
ENCODING 12399
SWIDTH 666 0
DWIDTH 8 0
BBX 7 9 0 0
BITMAP
84
84
BE
84
84
9C
A4
A6
98
ENDCHAR
STARTCHAR uni3070
ENCODING 12400
SWIDTH 666 0
DWIDTH 8 0
BBX 7 10 0 0
BITMAP
0A
8A
84
BE
84
84
9C
A4
A6
98
ENDCHAR
STARTCHAR uni3071
ENCODING 12401
SWIDTH 666 0
DWIDTH 8 0
BBX 7 10 0 0
BITMAP
04
8A
8A
BE
84
84
9C
A4
A6
98
ENDCHAR
STARTCHAR uni3072
ENCODING 12402
SWIDTH 666 0
DWIDTH 8 0
BBX 7 9 0 0
BITMAP
E8
24
46
44
84
84
84
48
30
ENDCHAR
STARTCHAR uni3073
ENCODING 12403
SWIDTH 666 0
DWIDTH 8 0
BBX 7 10 0 0
BITMAP
0A
EA
24
46
44
84
84
84
48
30
ENDCHAR
STARTCHAR uni3074
ENCODING 12404
SWIDTH 666 0
DWIDTH 8 0
BBX 7 10 0 0
BITMAP
04
EA
2A
46
44
84
84
84
48
30
ENDCHAR
STARTCHAR uni3075
ENCODING 12405
SWIDTH 666 0
DWIDTH 8 0
BBX 7 9 0 0
BITMAP
30
08
10
10
10
4C
4A
8A
30
ENDCHAR
STARTCHAR uni3076
ENCODING 12406
SWIDTH 666 0
DWIDTH 8 0
BBX 7 10 0 0
BITMAP
0A
3A
08
10
10
10
4C
4A
8A
30
ENDCHAR
STARTCHAR uni3077
ENCODING 12407
SWIDTH 666 0
DWIDTH 8 0
BBX 7 10 0 0
BITMAP
04
3A
0A
14
10
10
4C
4A
8A
30
ENDCHAR
STARTCHAR uni3078
ENCODING 12408
SWIDTH 666 0
DWIDTH 8 0
BBX 7 7 0 1
BITMAP
20
50
50
88
08
04
02
ENDCHAR
STARTCHAR uni3079
ENCODING 12409
SWIDTH 666 0
DWIDTH 8 0
BBX 7 9 0 1
BITMAP
0A
0A
20
50
50
88
08
04
02
ENDCHAR
STARTCHAR uni307A
ENCODING 12410
SWIDTH 666 0
DWIDTH 8 0
BBX 7 9 0 1
BITMAP
04
0A
2A
54
50
88
08
04
02
ENDCHAR
STARTCHAR uni307B
ENCODING 12411
SWIDTH 666 0
DWIDTH 8 0
BBX 7 9 0 0
BITMAP
80
BE
84
BE
84
84
9C
A6
98
ENDCHAR
STARTCHAR uni307C
ENCODING 12412
SWIDTH 666 0
DWIDTH 8 0
BBX 7 10 0 0
BITMAP
0A
8A
BE
84
BE
84
84
9C
A6
98
ENDCHAR
STARTCHAR uni307D
ENCODING 12413
SWIDTH 666 0
DWIDTH 8 0
BBX 7 10 0 0
BITMAP
04
8A
BA
84
BE
84
84
9C
A6
98
ENDCHAR
STARTCHAR uni307E
ENCODING 12414
SWIDTH 666 0
DWIDTH 8 0
BBX 7 9 0 0
BITMAP
10
FE
10
FE
10
10
78
94
62
ENDCHAR
STARTCHAR uni307F
ENCODING 12415
SWIDTH 666 0
DWIDTH 8 0
BBX 7 9 0 0
BITMAP
70
10
24
3C
64
A6
A4
C4
18
ENDCHAR
STARTCHAR uni3080
ENCODING 12416
SWIDTH 666 0
DWIDTH 8 0
BBX 7 9 0 0
BITMAP
20
F4
22
60
A4
A4
62
42
3C
ENDCHAR
STARTCHAR uni3081
ENCODING 12417
SWIDTH 666 0
DWIDTH 8 0
BBX 7 9 0 0
BITMAP
08
48
5C
6A
4A
AA
92
A2
4C
ENDCHAR
STARTCHAR uni3082
ENCODING 12418
SWIDTH 666 0
DWIDTH 8 0
BBX 7 9 0 0
BITMAP
10
FC
20
20
FC
20
22
22
1C
ENDCHAR
STARTCHAR uni3083
ENCODING 12419
SWIDTH 666 0
DWIDTH 8 0
BBX 6 6 0 0
BITMAP
90
78
C4
48
20
20
ENDCHAR
STARTCHAR uni3084
ENCODING 12420
SWIDTH 666 0
DWIDTH 8 0
BBX 7 9 0 0
BITMAP
48
5C
E2
22
24
20
20
10
10
ENDCHAR
STARTCHAR uni3085
ENCODING 12421
SWIDTH 666 0
DWIDTH 8 0
BBX 6 7 0 0
BITMAP
10
B8
D4
94
B8
10
20
ENDCHAR
STARTCHAR uni3086
ENCODING 12422
SWIDTH 666 0
DWIDTH 8 0
BBX 7 9 0 0
BITMAP
10
BC
CA
8A
8A
AA
9C
10
20
ENDCHAR
STARTCHAR uni3087
ENCODING 12423
SWIDTH 666 0
DWIDTH 8 0
BBX 6 7 0 0
BITMAP
10
10
1C
10
70
98
64
ENDCHAR
STARTCHAR uni3088
ENCODING 12424
SWIDTH 666 0
DWIDTH 8 0
BBX 7 9 0 0
BITMAP
10
10
1E
10
10
70
98
94
62
ENDCHAR
STARTCHAR uni3089
ENCODING 12425
SWIDTH 666 0
DWIDTH 8 0
BBX 7 9 0 0
BITMAP
60
18
40
40
BC
C2
82
04
38
ENDCHAR
STARTCHAR uni308A
ENCODING 12426
SWIDTH 666 0
DWIDTH 8 0
BBX 5 9 1 0
BITMAP
B0
C8
88
88
88
08
08
10
60
ENDCHAR
STARTCHAR uni308B
ENCODING 12427
SWIDTH 666 0
DWIDTH 8 0
BBX 7 9 0 0
BITMAP
7C
08
10
38
44
82
32
4C
38
ENDCHAR
STARTCHAR uni308C
ENCODING 12428
SWIDTH 666 0
DWIDTH 8 0
BBX 7 9 0 0
BITMAP
20
2C
F4
24
24
64
64
A4
22
ENDCHAR
STARTCHAR uni308D
ENCODING 12429
SWIDTH 666 0
DWIDTH 8 0
BBX 7 9 0 0
BITMAP
7C
08
10
38
44
82
02
04
38
ENDCHAR
STARTCHAR uni308E
ENCODING 12430
SWIDTH 666 0
DWIDTH 8 0
BBX 6 7 0 0
BITMAP
40
58
E4
44
44
C4
58
ENDCHAR
STARTCHAR uni308F
ENCODING 12431
SWIDTH 666 0
DWIDTH 8 0
BBX 7 9 0 0
BITMAP
20
2C
F2
22
22
62
62
A2
2C
ENDCHAR
STARTCHAR uni3090
ENCODING 12432
SWIDTH 666 0
DWIDTH 8 0
BBX 7 9 0 0
BITMAP
70
10
1C
32
52
96
AA
AA
46
ENDCHAR
STARTCHAR uni3091
ENCODING 12433
SWIDTH 666 0
DWIDTH 8 0
BBX 7 9 0 0
BITMAP
7C
10
38
44
34
58
20
6C
92
ENDCHAR
STARTCHAR uni3092
ENCODING 12434
SWIDTH 666 0
DWIDTH 8 0
BBX 7 9 0 0
BITMAP
10
FC
20
76
98
28
48
40
3E
ENDCHAR
STARTCHAR uni3093
ENCODING 12435
SWIDTH 666 0
DWIDTH 8 0
BBX 7 9 0 0
BITMAP
10
10
20
20
30
48
48
8A
84
ENDCHAR
STARTCHAR uni309B
ENCODING 12443
SWIDTH 666 0
DWIDTH 8 0
BBX 4 2 0 8
BITMAP
A0
50
ENDCHAR
STARTCHAR uni309C
ENCODING 12444
SWIDTH 666 0
DWIDTH 8 0
BBX 3 4 0 6
BITMAP
40
A0
A0
40
ENDCHAR
STARTCHAR uni309D
ENCODING 12445
SWIDTH 666 0
DWIDTH 8 0
BBX 6 6 1 1
BITMAP
C0
30
08
04
18
60
ENDCHAR
STARTCHAR uni309E
ENCODING 12446
SWIDTH 666 0
DWIDTH 8 0
BBX 6 9 1 1
BITMAP
14
14
00
C0
30
08
04
18
60
ENDCHAR
STARTCHAR uni30A1
ENCODING 12449
SWIDTH 666 0
DWIDTH 8 0
BBX 6 6 0 0
BITMAP
FC
04
28
20
20
40
ENDCHAR
STARTCHAR uni30A2
ENCODING 12450
SWIDTH 666 0
DWIDTH 8 0
BBX 7 8 0 0
BITMAP
FE
02
14
18
10
10
20
40
ENDCHAR
STARTCHAR uni30A3
ENCODING 12451
SWIDTH 666 0
DWIDTH 8 0
BBX 6 7 0 0
BITMAP
04
08
10
30
D0
10
10
ENDCHAR
STARTCHAR uni30A4
ENCODING 12452
SWIDTH 666 0
DWIDTH 8 0
BBX 7 9 0 0
BITMAP
02
04
08
18
28
C8
08
08
08
ENDCHAR
STARTCHAR uni30A5
ENCODING 12453
SWIDTH 666 0
DWIDTH 8 0
BBX 6 6 0 0
BITMAP
20
FC
84
04
08
30
ENDCHAR
STARTCHAR uni30A6
ENCODING 12454
SWIDTH 666 0
DWIDTH 8 0
BBX 7 9 0 0
BITMAP
10
10
FE
82
82
04
04
08
30
ENDCHAR
STARTCHAR uni30A7
ENCODING 12455
SWIDTH 666 0
DWIDTH 8 0
BBX 6 5 0 0
BITMAP
78
10
10
10
FC
ENDCHAR
STARTCHAR uni30A8
ENCODING 12456
SWIDTH 666 0
DWIDTH 8 0
BBX 7 7 0 1
BITMAP
7C
10
10
10
10
10
FE
ENDCHAR
STARTCHAR uni30A9
ENCODING 12457
SWIDTH 666 0
DWIDTH 8 0
BBX 6 6 0 0
BITMAP
08
FC
18
28
C8
18
ENDCHAR
STARTCHAR uni30AA
ENCODING 12458
SWIDTH 666 0
DWIDTH 8 0
BBX 7 9 0 0
BITMAP
08
08
FE
08
18
28
48
88
18
ENDCHAR
STARTCHAR uni30AB
ENCODING 12459
SWIDTH 666 0
DWIDTH 8 0
BBX 7 9 0 0
BITMAP
10
10
FE
12
12
22
22
4A
84
ENDCHAR
STARTCHAR uni30AC
ENCODING 12460
SWIDTH 666 0
DWIDTH 8 0
BBX 7 10 0 0
BITMAP
0A
0A
10
FE
12
12
22
22
4A
84
ENDCHAR
STARTCHAR uni30AD
ENCODING 12461
SWIDTH 666 0
DWIDTH 8 0
BBX 7 9 0 0
BITMAP
10
10
7C
10
10
FE
08
08
08
ENDCHAR
STARTCHAR uni30AE
ENCODING 12462
SWIDTH 666 0
DWIDTH 8 0
BBX 7 10 0 0
BITMAP
0A
0A
10
7C
10
10
FE
08
08
08
ENDCHAR
STARTCHAR uni30AF
ENCODING 12463
SWIDTH 666 0
DWIDTH 8 0
BBX 7 9 0 0
BITMAP
20
20
3E
42
82
04
04
18
60
ENDCHAR
STARTCHAR uni30B0
ENCODING 12464
SWIDTH 666 0
DWIDTH 8 0
BBX 7 10 0 0
BITMAP
0A
2A
20
3E
42
82
04
04
18
60
ENDCHAR
STARTCHAR uni30B1
ENCODING 12465
SWIDTH 666 0
DWIDTH 8 0
BBX 7 9 0 0
BITMAP
40
40
7E
48
88
08
08
10
20
ENDCHAR
STARTCHAR uni30B2
ENCODING 12466
SWIDTH 666 0
DWIDTH 8 0
BBX 7 10 0 0
BITMAP
0A
4A
40
7E
48
88
08
08
10
20
ENDCHAR
STARTCHAR uni30B3
ENCODING 12467
SWIDTH 666 0
DWIDTH 8 0
BBX 6 8 1 0
BITMAP
FC
04
04
04
04
04
04
FC
ENDCHAR
STARTCHAR uni30B4
ENCODING 12468
SWIDTH 666 0
DWIDTH 8 0
BBX 6 10 1 0
BITMAP
14
14
FC
04
04
04
04
04
04
FC
ENDCHAR
STARTCHAR uni30B5
ENCODING 12469
SWIDTH 666 0
DWIDTH 8 0
BBX 7 9 0 0
BITMAP
24
24
FE
24
24
24
04
08
30
ENDCHAR
STARTCHAR uni30B6
ENCODING 12470
SWIDTH 666 0
DWIDTH 8 0
BBX 7 10 0 0
BITMAP
0A
2A
24
FE
24
24
24
04
08
30
ENDCHAR
STARTCHAR uni30B7
ENCODING 12471
SWIDTH 666 0
DWIDTH 8 0
BBX 7 9 0 0
BITMAP
60
10
00
C2
22
04
04
18
60
ENDCHAR
STARTCHAR uni30B8
ENCODING 12472
SWIDTH 666 0
DWIDTH 8 0
BBX 7 10 0 0
BITMAP
0A
6A
10
00
C2
22
04
04
18
60
ENDCHAR
STARTCHAR uni30B9
ENCODING 12473
SWIDTH 666 0
DWIDTH 8 0
BBX 7 8 0 0
BITMAP
7C
04
08
08
10
28
44
82
ENDCHAR
STARTCHAR uni30BA
ENCODING 12474
SWIDTH 666 0
DWIDTH 8 0
BBX 7 10 0 0
BITMAP
0A
0A
7C
04
08
08
10
28
44
82
ENDCHAR
STARTCHAR uni30BB
ENCODING 12475
SWIDTH 666 0
DWIDTH 8 0
BBX 7 9 0 0
BITMAP
20
20
FE
22
24
28
20
20
1E
ENDCHAR
STARTCHAR uni30BC
ENCODING 12476
SWIDTH 666 0
DWIDTH 8 0
BBX 7 10 0 0
BITMAP
0A
2A
20
FE
22
24
28
20
20
1E
ENDCHAR
STARTCHAR uni30BD
ENCODING 12477
SWIDTH 666 0
DWIDTH 8 0
BBX 7 8 0 0
BITMAP
82
42
42
04
04
08
10
20
ENDCHAR
STARTCHAR uni30BE
ENCODING 12478
SWIDTH 666 0
DWIDTH 8 0
BBX 7 10 0 0
BITMAP
0A
0A
80
42
42
04
04
08
10
20
ENDCHAR
STARTCHAR uni30BF
ENCODING 12479
SWIDTH 666 0
DWIDTH 8 0
BBX 7 9 0 0
BITMAP
20
20
3E
42
B2
0C
04
18
60
ENDCHAR
STARTCHAR uni30C0
ENCODING 12480
SWIDTH 666 0
DWIDTH 8 0
BBX 7 10 0 0
BITMAP
0A
2A
20
3E
42
B2
0C
04
18
60
ENDCHAR
STARTCHAR uni30C1
ENCODING 12481
SWIDTH 666 0
DWIDTH 8 0
BBX 7 9 0 0
BITMAP
0C
70
10
10
FE
10
10
10
20
ENDCHAR
STARTCHAR uni30C2
ENCODING 12482
SWIDTH 666 0
DWIDTH 8 0
BBX 7 10 0 0
BITMAP
0A
0A
70
10
10
FE
10
10
10
20
ENDCHAR
STARTCHAR uni30C3
ENCODING 12483
SWIDTH 666 0
DWIDTH 8 0
BBX 6 6 0 0
BITMAP
A4
54
54
04
08
30
ENDCHAR
STARTCHAR uni30C4
ENCODING 12484
SWIDTH 666 0
DWIDTH 8 0
BBX 7 8 0 0
BITMAP
A2
52
52
52
04
04
08
30
ENDCHAR
STARTCHAR uni30C5
ENCODING 12485
SWIDTH 666 0
DWIDTH 8 0
BBX 7 10 0 0
BITMAP
0A
0A
A0
52
52
52
04
04
08
30
ENDCHAR
STARTCHAR uni30C6
ENCODING 12486
SWIDTH 666 0
DWIDTH 8 0
BBX 7 9 0 0
BITMAP
7C
00
00
FE
10
10
10
10
20
ENDCHAR
STARTCHAR uni30C7
ENCODING 12487
SWIDTH 666 0
DWIDTH 8 0
BBX 7 10 0 0
BITMAP
0A
7A
00
00
FE
10
10
10
10
20
ENDCHAR
STARTCHAR uni30C8
ENCODING 12488
SWIDTH 666 0
DWIDTH 8 0
BBX 4 9 2 0
BITMAP
80
80
80
C0
A0
90
80
80
80
ENDCHAR
STARTCHAR uni30C9
ENCODING 12489
SWIDTH 666 0
DWIDTH 8 0
BBX 5 10 2 0
BITMAP
28
A8
80
80
C0
A0
90
80
80
80
ENDCHAR
STARTCHAR uni30CA
ENCODING 12490
SWIDTH 666 0
DWIDTH 8 0
BBX 7 9 0 0
BITMAP
10
10
FE
10
10
10
10
20
40
ENDCHAR
STARTCHAR uni30CB
ENCODING 12491
SWIDTH 666 0
DWIDTH 8 0
BBX 7 7 0 1
BITMAP
7C
00
00
00
00
00
FE
ENDCHAR
STARTCHAR uni30CC
ENCODING 12492
SWIDTH 666 0
DWIDTH 8 0
BBX 7 8 0 0
BITMAP
7C
04
24
18
08
14
22
C0
ENDCHAR
STARTCHAR uni30CD
ENCODING 12493
SWIDTH 666 0
DWIDTH 8 0
BBX 7 9 0 0
BITMAP
10
7C
04
08
10
34
D2
10
10
ENDCHAR
STARTCHAR uni30CE
ENCODING 12494
SWIDTH 666 0
DWIDTH 8 0
BBX 5 9 0 0
BITMAP
08
08
08
08
10
10
20
40
80
ENDCHAR
STARTCHAR uni30CF
ENCODING 12495
SWIDTH 666 0
DWIDTH 8 0
BBX 7 8 0 0
BITMAP
28
24
24
24
44
42
42
82
ENDCHAR
STARTCHAR uni30D0
ENCODING 12496
SWIDTH 666 0
DWIDTH 8 0
BBX 7 10 0 0
BITMAP
0A
0A
28
24
24
24
44
42
42
82
ENDCHAR
STARTCHAR uni30D1
ENCODING 12497
SWIDTH 666 0
DWIDTH 8 0
BBX 7 10 0 0
BITMAP
04
0A
2A
24
24
24
44
42
42
82
ENDCHAR
STARTCHAR uni30D2
ENCODING 12498
SWIDTH 666 0
DWIDTH 8 0
BBX 6 9 1 0
BITMAP
80
80
80
98
E0
80
80
80
7C
ENDCHAR
STARTCHAR uni30D3
ENCODING 12499
SWIDTH 666 0
DWIDTH 8 0
BBX 6 10 1 0
BITMAP
14
94
80
80
98
E0
80
80
80
7C
ENDCHAR
STARTCHAR uni30D4
ENCODING 12500
SWIDTH 666 0
DWIDTH 8 0
BBX 6 10 1 0
BITMAP
08
94
94
88
98
E0
80
80
80
7C
ENDCHAR
STARTCHAR uni30D5
ENCODING 12501
SWIDTH 666 0
DWIDTH 8 0
BBX 7 8 0 0
BITMAP
FE
02
02
04
04
08
10
60
ENDCHAR
STARTCHAR uni30D6
ENCODING 12502
SWIDTH 666 0
DWIDTH 8 0
BBX 7 10 0 0
BITMAP
0A
0A
FE
02
02
04
04
08
10
60
ENDCHAR
STARTCHAR uni30D7
ENCODING 12503
SWIDTH 666 0
DWIDTH 8 0
BBX 7 10 0 0
BITMAP
04
0A
FA
06
04
04
08
08
10
60
ENDCHAR
STARTCHAR uni30D8
ENCODING 12504
SWIDTH 666 0
DWIDTH 8 0
BBX 7 7 0 1
BITMAP
20
50
50
88
04
04
02
ENDCHAR
STARTCHAR uni30D9
ENCODING 12505
SWIDTH 666 0
DWIDTH 8 0
BBX 7 9 0 1
BITMAP
0A
0A
20
50
50
88
04
04
02
ENDCHAR
STARTCHAR uni30DA
ENCODING 12506
SWIDTH 666 0
DWIDTH 8 0
BBX 7 9 0 1
BITMAP
04
0A
2A
54
50
88
04
04
02
ENDCHAR
STARTCHAR uni30DB
ENCODING 12507
SWIDTH 666 0
DWIDTH 8 0
BBX 7 9 0 0
BITMAP
10
10
FE
10
54
52
92
10
30
ENDCHAR
STARTCHAR uni30DC
ENCODING 12508
SWIDTH 666 0
DWIDTH 8 0
BBX 7 10 0 0
BITMAP
0A
0A
10
FE
10
54
52
92
10
30
ENDCHAR
STARTCHAR uni30DD
ENCODING 12509
SWIDTH 666 0
DWIDTH 8 0
BBX 7 10 0 0
BITMAP
04
1A
1A
FE
10
54
52
92
10
30
ENDCHAR
STARTCHAR uni30DE
ENCODING 12510
SWIDTH 666 0
DWIDTH 8 0
BBX 7 8 0 0
BITMAP
FE
02
04
48
30
10
08
08
ENDCHAR
STARTCHAR uni30DF
ENCODING 12511
SWIDTH 666 0
DWIDTH 8 0
BBX 6 9 1 0
BITMAP
60
18
00
60
18
00
00
F0
0C
ENDCHAR
STARTCHAR uni30E0
ENCODING 12512
SWIDTH 666 0
DWIDTH 8 0
BBX 7 9 0 0
BITMAP
10
10
10
20
20
20
44
4C
F2
ENDCHAR
STARTCHAR uni30E1
ENCODING 12513
SWIDTH 666 0
DWIDTH 8 0
BBX 6 9 0 0
BITMAP
04
04
64
18
08
08
14
24
C0
ENDCHAR
STARTCHAR uni30E2
ENCODING 12514
SWIDTH 666 0
DWIDTH 8 0
BBX 7 8 0 0
BITMAP
7C
20
20
FE
20
20
20
1E
ENDCHAR
STARTCHAR uni30E3
ENCODING 12515
SWIDTH 666 0
DWIDTH 8 0
BBX 6 7 0 0
BITMAP
20
3C
E4
28
20
10
10
ENDCHAR
STARTCHAR uni30E4
ENCODING 12516
SWIDTH 666 0
DWIDTH 8 0
BBX 7 9 0 0
BITMAP
20
3E
E2
24
28
20
10
10
10
ENDCHAR
STARTCHAR uni30E5
ENCODING 12517
SWIDTH 666 0
DWIDTH 8 0
BBX 6 5 0 0
BITMAP
70
10
10
10
FC
ENDCHAR
STARTCHAR uni30E6
ENCODING 12518
SWIDTH 666 0
DWIDTH 8 0
BBX 7 7 0 1
BITMAP
78
08
08
08
08
08
FE
ENDCHAR
STARTCHAR uni30E7
ENCODING 12519
SWIDTH 666 0
DWIDTH 8 0
BBX 5 6 1 0
BITMAP
F8
08
78
08
08
F8
ENDCHAR
STARTCHAR uni30E8
ENCODING 12520
SWIDTH 666 0
DWIDTH 8 0
BBX 6 8 1 0
BITMAP
FC
04
04
7C
04
04
04
FC
ENDCHAR
STARTCHAR uni30E9
ENCODING 12521
SWIDTH 666 0
DWIDTH 8 0
BBX 7 9 0 0
BITMAP
7C
00
00
FE
02
02
04
08
30
ENDCHAR
STARTCHAR uni30EA
ENCODING 12522
SWIDTH 666 0
DWIDTH 8 0
BBX 5 9 1 0
BITMAP
88
88
88
88
88
08
10
20
40
ENDCHAR
STARTCHAR uni30EB
ENCODING 12523
SWIDTH 666 0
DWIDTH 8 0
BBX 7 9 0 0
BITMAP
08
28
28
28
28
2A
4A
4C
88
ENDCHAR
STARTCHAR uni30EC
ENCODING 12524
SWIDTH 666 0
DWIDTH 8 0
BBX 5 9 1 0
BITMAP
80
80
80
80
88
88
90
A0
C0
ENDCHAR
STARTCHAR uni30ED
ENCODING 12525
SWIDTH 666 0
DWIDTH 8 0
BBX 6 8 1 0
BITMAP
FC
84
84
84
84
84
84
FC
ENDCHAR
STARTCHAR uni30EE
ENCODING 12526
SWIDTH 666 0
DWIDTH 8 0
BBX 6 6 1 0
BITMAP
FC
84
04
08
10
20
ENDCHAR
STARTCHAR uni30EF
ENCODING 12527
SWIDTH 666 0
DWIDTH 8 0
BBX 7 8 0 0
BITMAP
FE
82
82
04
04
08
10
20
ENDCHAR
STARTCHAR uni30F0
ENCODING 12528
SWIDTH 666 0
DWIDTH 8 0
BBX 7 9 0 0
BITMAP
08
08
FE
48
48
48
FE
08
08
ENDCHAR
STARTCHAR uni30F1
ENCODING 12529
SWIDTH 666 0
DWIDTH 8 0
BBX 7 7 0 1
BITMAP
7C
04
08
10
10
10
FE
ENDCHAR
STARTCHAR uni30F2
ENCODING 12530
SWIDTH 666 0
DWIDTH 8 0
BBX 7 8 0 0
BITMAP
FE
02
02
7C
04
08
10
60
ENDCHAR
STARTCHAR uni30F3
ENCODING 12531
SWIDTH 666 0
DWIDTH 8 0
BBX 7 8 0 0
BITMAP
C0
20
02
02
04
08
30
C0
ENDCHAR
STARTCHAR uni30F4
ENCODING 12532
SWIDTH 666 0
DWIDTH 8 0
BBX 7 10 0 0
BITMAP
0A
2A
20
FE
82
82
04
04
08
30
ENDCHAR
STARTCHAR uni30F5
ENCODING 12533
SWIDTH 666 0
DWIDTH 8 0
BBX 6 6 0 0
BITMAP
20
FC
24
24
44
8C
ENDCHAR
STARTCHAR uni30F6
ENCODING 12534
SWIDTH 666 0
DWIDTH 8 0
BBX 6 7 0 0
BITMAP
40
40
7C
90
10
10
20
ENDCHAR
STARTCHAR uni30FB
ENCODING 12539
SWIDTH 666 0
DWIDTH 8 0
BBX 2 2 3 3
BITMAP
C0
C0
ENDCHAR
STARTCHAR uni30FC
ENCODING 12540
SWIDTH 666 0
DWIDTH 8 0
BBX 7 2 0 4
BITMAP
80
7E
ENDCHAR
STARTCHAR uni30FD
ENCODING 12541
SWIDTH 666 0
DWIDTH 8 0
BBX 5 5 1 2
BITMAP
C0
20
10
08
08
ENDCHAR
STARTCHAR uni30FE
ENCODING 12542
SWIDTH 666 0
DWIDTH 8 0
BBX 6 8 1 2
BITMAP
14
14
00
C0
20
10
08
08
ENDCHAR
ENDFONT
