STARTFONT 2.1
FONT -ttf2bdf-NotoSansJP-Regular-Medium-R-Normal--46-400-75-75-c-400-iso10646-1
SIZE 40 75 75
FONTBOUNDINGBOX 40 46 0 -11
STARTPROPERTIES 4
FAMILY_NAME "NotoSansJP-Regular"
FONT_ASCENT 35
FONT_DESCENT 11
SOURCE "rasterized from NotoSansJP-Regular at 40px by tools/ttf2bdf.py"
ENDPROPERTIES
CHARS 286
STARTCHAR U+0020
ENCODING 32
SWIDTH 225 0
DWIDTH 9 0
BBX 1 1 0 0
BITMAP
00
ENDCHAR
STARTCHAR U+0021
ENCODING 33
SWIDTH 325 0
DWIDTH 13 0
BBX 5 30 4 0
BITMAP
70
70
70
70
70
70
70
70
70
70
70
70
70
70
70
70
70
70
70
70
70
00
00
00
20
F8
F8
F8
F8
70
ENDCHAR
STARTCHAR U+0022
ENCODING 34
SWIDTH 475 0
DWIDTH 19 0
BBX 11 12 4 19
BITMAP
E1E0
E1E0
E1E0
E1E0
E0E0
E0E0
E0E0
E0E0
E0E0
E0E0
E0E0
E0C0
ENDCHAR
STARTCHAR U+0023
ENCODING 35
SWIDTH 550 0
DWIDTH 22 0
BBX 19 29 2 1
BITMAP
070300
070300
070300
060700
060700
060700
060600
060600
FFFFE0
FFFFE0
FFFFE0
0E0E00
0C0E00
0C0E00
0C0E00
0C0C00
0C0C00
FFFFC0
FFFFC0
FFFFC0
181C00
181C00
181C00
181800
181800
381800
381800
381800
303800
ENDCHAR
STARTCHAR U+0024
ENCODING 36
SWIDTH 550 0
DWIDTH 22 0
BBX 18 38 2 -5
BITMAP
00E000
00E000
00E000
00E000
00E000
07F800
0FFE00
1FBF00
3C0780
3C0300
380000
780000
780000
380000
3C0000
3E0000
1F8000
0FE000
03F800
01FC00
007E00
001F00
000F80
000780
000380
000380
0003C0
000380
200380
700780
FC1F00
7FFF00
1FFC00
03F000
00E000
00E000
00E000
00E000
ENDCHAR
STARTCHAR U+0025
ENCODING 37
SWIDTH 925 0
DWIDTH 37 0
BBX 33 31 2 -1
BITMAP
0F80018000
3FC0038000
79E0030000
7070070000
E070060000
E0300E0000
E0380C0000
C0381C0000
C038180000
C038380000
C038300000
C038700000
E03860F800
E070E1FE00
E070C3DE00
70F1C70700
79E1870300
3FC38E0380
0F830E0380
00070E0380
00060E0380
000C0E0180
001C0E0180
00180E0380
00380E0380
00300E0380
0070070380
0060070700
00E003CE00
00C001FE00
01C000F800
ENDCHAR
STARTCHAR U+0026
ENCODING 38
SWIDTH 675 0
DWIDTH 27 0
BBX 25 31 1 -1
BITMAP
00FC0000
01FE0000
03FF0000
07870000
07038000
0F038000
0E038000
0E038000
0F070000
070F0000
071E0000
073C0000
03F80000
03F00000
03E00380
0FE00780
1FE00700
3EF00700
3C780F00
783C0E00
703E1E00
701F1C00
F00FBC00
F007F800
7003F000
7801F800
7C03FC00
3E0FFF00
1FFF9F80
0FFE0780
03F80180
ENDCHAR
STARTCHAR U+0027
ENCODING 39
SWIDTH 275 0
DWIDTH 11 0
BBX 3 12 4 19
BITMAP
E0
E0
E0
E0
E0
E0
E0
E0
E0
E0
E0
E0
ENDCHAR
STARTCHAR U+0028
ENCODING 40
SWIDTH 350 0
DWIDTH 14 0
BBX 8 40 4 -8
BITMAP
07
0E
0E
1C
1C
38
38
38
70
70
70
70
E0
E0
E0
E0
E0
E0
E0
E0
E0
E0
E0
E0
E0
E0
E0
E0
70
70
70
70
38
38
1C
1C
0C
0E
07
06
ENDCHAR
STARTCHAR U+0029
ENCODING 41
SWIDTH 350 0
DWIDTH 14 0
BBX 8 40 2 -8
BITMAP
E0
E0
70
70
38
38
38
1C
1C
1C
0E
0E
0E
0E
0E
07
07
07
07
07
07
07
07
07
07
0E
0E
0E
0E
0E
1C
1C
1C
38
38
70
70
60
E0
40
ENDCHAR
STARTCHAR U+002A
ENCODING 42
SWIDTH 475 0
DWIDTH 19 0
BBX 13 13 3 19
BITMAP
0600
0700
0700
0700
E778
FFF8
7FE0
0F80
1F80
1DC0
39C0
30E0
3040
ENDCHAR
STARTCHAR U+002B
ENCODING 43
SWIDTH 550 0
DWIDTH 22 0
BBX 19 20 2 5
BITMAP
00E000
00E000
00E000
00E000
00E000
00E000
00E000
00E000
00E000
FFFFE0
FFFFE0
FFFFE0
00E000
00E000
00E000
00E000
00E000
00E000
00E000
00E000
ENDCHAR
STARTCHAR U+002C
ENCODING 44
SWIDTH 275 0
DWIDTH 11 0
BBX 7 12 2 -6
BITMAP
3C
7C
7E
7E
3E
0E
0E
1C
1C
38
F0
60
ENDCHAR
STARTCHAR U+002D
ENCODING 45
SWIDTH 350 0
DWIDTH 14 0
BBX 10 3 2 10
BITMAP
FFC0
FFC0
FFC0
ENDCHAR
STARTCHAR U+002E
ENCODING 46
SWIDTH 275 0
DWIDTH 11 0
BBX 5 6 3 -1
BITMAP
20
F8
F8
F8
F8
70
ENDCHAR
STARTCHAR U+002F
ENCODING 47
SWIDTH 400 0
DWIDTH 16 0
BBX 14 39 1 -7
BITMAP
001C
001C
0018
0038
0038
0030
0070
0070
0060
0060
00E0
00E0
00C0
01C0
01C0
0180
0380
0380
0300
0700
0700
0600
0600
0E00
0E00
0C00
1C00
1C00
1800
3800
3800
3000
7000
7000
6000
6000
E000
E000
C000
ENDCHAR
STARTCHAR U+0030
ENCODING 48
SWIDTH 550 0
DWIDTH 22 0
BBX 18 31 2 -1
BITMAP
03F000
0FFC00
1FFE00
1E1F00
3C0F00
380780
780780
700380
7003C0
F003C0
F003C0
F003C0
F001C0
F001C0
F001C0
F001C0
F001C0
F001C0
F001C0
F003C0
F003C0
F003C0
7003C0
700380
780780
380780
3C0F00
1E1F00
1FFE00
07FC00
03F000
ENDCHAR
STARTCHAR U+0031
ENCODING 49
SWIDTH 550 0
DWIDTH 22 0
BBX 16 29 4 0
BITMAP
03C0
1FC0
7FC0
7FC0
03C0
03C0
03C0
03C0
03C0
03C0
03C0
03C0
03C0
03C0
03C0
03C0
03C0
03C0
03C0
03C0
03C0
03C0
03C0
03C0
03C0
03C0
FFFF
FFFF
FFFF
ENDCHAR
STARTCHAR U+0032
ENCODING 50
SWIDTH 550 0
DWIDTH 22 0
BBX 18 30 2 0
BITMAP
07E000
1FF800
7FFE00
F83E00
F00F00
600F00
000780
000780
000780
000780
000780
000700
000F00
000F00
000E00
001E00
003C00
003C00
007800
00F000
01E000
03E000
07C000
0F8000
1F0000
3E0000
7C0000
FFFFC0
FFFFC0
FFFFC0
ENDCHAR
STARTCHAR U+0033
ENCODING 51
SWIDTH 550 0
DWIDTH 22 0
BBX 19 31 1 -1
BITMAP
03F800
0FFE00
3FFF00
7E0F80
380780
1003C0
0003C0
0003C0
0003C0
0003C0
000780
000780
001F00
03FE00
03F800
03FE00
001F00
000780
0003C0
0001C0
0001E0
0001E0
0001E0
0001E0
0001E0
6003C0
F007C0
7C0F80
3FFF00
1FFE00
03F800
ENDCHAR
STARTCHAR U+0034
ENCODING 52
SWIDTH 550 0
DWIDTH 22 0
BBX 20 29 1 0
BITMAP
000F00
001F00
003F00
003F00
007700
00F700
00E700
01E700
03C700
038700
078700
0F0700
0E0700
1E0700
3C0700
380700
780700
700700
FFFFF0
FFFFF0
FFFFF0
000700
000700
000700
000700
000700
000700
000700
000700
ENDCHAR
STARTCHAR U+0035
ENCODING 53
SWIDTH 550 0
DWIDTH 22 0
BBX 19 30 1 -1
BITMAP
1FFFC0
1FFFC0
1FFFC0
1E0000
1C0000
1C0000
1C0000
1C0000
1C0000
1C0000
1CF800
1FFE00
1FFF00
3E0F80
0807C0
0003C0
0001E0
0001E0
0001E0
0001E0
0001E0
0001E0
0001E0
0001C0
6003C0
7007C0
FC1F80
3FFF00
1FFE00
03F800
ENDCHAR
STARTCHAR U+0036
ENCODING 54
SWIDTH 550 0
DWIDTH 22 0
BBX 18 31 2 -1
BITMAP
00FC00
03FF00
07FF80
0F87C0
1E0180
3C0000
3C0000
780000
780000
700000
700000
700000
F0F800
F3FE00
F7FF00
FE0780
FC03C0
F803C0
F001C0
F001C0
F001C0
7001C0
7001C0
7801C0
3803C0
3C03C0
3C0780
1F0F80
0FFF00
07FE00
01F800
ENDCHAR
STARTCHAR U+0037
ENCODING 55
SWIDTH 550 0
DWIDTH 22 0
BBX 18 29 2 0
BITMAP
FFFFC0
FFFFC0
FFFFC0
000380
000780
000700
000E00
001E00
001C00
003C00
003800
007800
007000
007000
00F000
00E000
00E000
01E000
01E000
01E000
01C000
01C000
03C000
03C000
03C000
03C000
03C000
03C000
03C000
ENDCHAR
STARTCHAR U+0038
ENCODING 56
SWIDTH 550 0
DWIDTH 22 0
BBX 18 31 2 -1
BITMAP
03F000
0FFC00
1FFE00
3E0F00
380780
780380
780380
780380
780380
780380
380380
3C0700
1F0700
0FCE00
07FC00
0FFC00
1C7E00
381F00
700F80
7007C0
E003C0
E001C0
E001C0
E001C0
E001C0
F003C0
7803C0
7C0F80
3FFF00
1FFE00
03F800
ENDCHAR
STARTCHAR U+0039
ENCODING 57
SWIDTH 550 0
DWIDTH 22 0
BBX 18 31 2 -1
BITMAP
07E000
1FF800
3FFC00
3C1E00
780F00
F00700
F00780
E00380
E00380
E003C0
E003C0
E003C0
F003C0
F003C0
7807C0
7C1FC0
3FFDC0
1FF3C0
07E3C0
0003C0
000380
000380
000780
000780
000700
000F00
201E00
787E00
7FFC00
3FF000
0FC000
ENDCHAR
STARTCHAR U+003A
ENCODING 58
SWIDTH 275 0
DWIDTH 11 0
BBX 5 22 3 -1
BITMAP
20
F8
F8
F8
F8
70
00
00
00
00
00
00
00
00
00
00
20
F8
F8
F8
F8
70
ENDCHAR
STARTCHAR U+003B
ENCODING 59
SWIDTH 275 0
DWIDTH 11 0
BBX 7 28 2 -7
BITMAP
38
7C
7C
7C
7C
10
00
00
00
00
00
00
00
00
00
00
3C
7C
7E
7E
3E
0E
0E
1C
1C
38
F0
60
ENDCHAR
STARTCHAR U+003C
ENCODING 60
SWIDTH 550 0
DWIDTH 22 0
BBX 19 18 2 6
BITMAP
000060
0001E0
000FE0
003FC0
01FE00
07F000
3FC000
FE0000
F00000
F00000
FE0000
3FC000
07F000
01FE00
003FC0
000FE0
0001E0
000060
ENDCHAR
STARTCHAR U+003D
ENCODING 61
SWIDTH 550 0
DWIDTH 22 0
BBX 19 13 2 8
BITMAP
FFFFE0
FFFFE0
FFFFE0
000000
000000
000000
000000
000000
000000
000000
FFFFE0
FFFFE0
FFFFE0
ENDCHAR
STARTCHAR U+003E
ENCODING 62
SWIDTH 550 0
DWIDTH 22 0
BBX 19 18 2 6
BITMAP
800000
E00000
FC0000
FF0000
1FE000
03F800
00FF00
001FE0
0003E0
0003E0
001FE0
00FF00
03FC00
1FE000
FF0000
FC0000
E00000
800000
ENDCHAR
STARTCHAR U+003F
ENCODING 63
SWIDTH 475 0
DWIDTH 19 0
BBX 15 31 2 -1
BITMAP
0FC0
3FF0
7FF8
F87C
603C
001E
001E
001E
001E
001C
003C
0038
0078
00F0
01E0
03C0
03C0
0380
0780
0700
0700
0700
0000
0000
0000
0000
0780
0F80
0F80
0F80
0700
ENDCHAR
STARTCHAR U+0040
ENCODING 64
SWIDTH 950 0
DWIDTH 38 0
BBX 34 36 2 -7
BITMAP
0001FE0000
000FFFC000
003FDFF000
00F800F800
01E0003C00
03C0001E00
0780000E00
0F00000700
1E00000700
1C00000380
3801F30380
3807FB0180
700FFF0180
701E0F0180
701C0601C0
60380E01C0
E0380E0180
E0700E0180
E0700E0180
E0700C0380
E0701C0380
E0701C0700
E0783C0700
E0387E0E00
603FEFFC00
701FC7F800
700203E000
3800000000
3800000000
1C00000000
1E00000000
0F80000000
07E0030000
01FE7F0000
007FFE0000
001FF00000
ENDCHAR
STARTCHAR U+0041
ENCODING 65
SWIDTH 600 0
DWIDTH 24 0
BBX 24 29 0 0
BITMAP
003C00
003E00
007E00
007E00
007700
00E700
00E700
00E780
01C380
01C380
03C3C0
0381C0
0381C0
0781E0
0700E0
0700F0
0F00F0
0FFFF0
0FFFF8
1FFFF8
1E0038
1C003C
3C003C
3C001C
38001E
78001E
78001E
70000F
F0000F
ENDCHAR
STARTCHAR U+0042
ENCODING 66
SWIDTH 650 0
DWIDTH 26 0
BBX 20 29 4 0
BITMAP
FFF800
FFFF00
FFFF80
F00FC0
F003C0
F001E0
F001E0
F001E0
F001E0
F001C0
F003C0
F00F80
FFFF00
FFFE00
FFFF80
F007E0
F001E0
F000F0
F00070
F00070
F00070
F00070
F000F0
F000F0
F001E0
F007E0
FFFFC0
FFFF00
FFFC00
ENDCHAR
STARTCHAR U+0043
ENCODING 67
SWIDTH 650 0
DWIDTH 26 0
BBX 22 31 2 -1
BITMAP
003F00
01FFE0
03FFF0
07E1F8
0F8038
1F0010
3E0000
3C0000
780000
780000
780000
700000
F00000
F00000
F00000
F00000
F00000
F00000
F00000
700000
780000
780000
780000
3C0000
3E0000
1F0018
0F803C
0FE1F8
03FFF0
01FFE0
003F80
ENDCHAR
STARTCHAR U+0044
ENCODING 68
SWIDTH 700 0
DWIDTH 28 0
BBX 21 29 4 0
BITMAP
FFF000
FFFE00
FFFF00
F01F80
F007C0
F003E0
F001F0
F000F0
F000F0
F00078
F00078
F00078
F00078
F00078
F00078
F00078
F00078
F00078
F00078
F00078
F000F0
F000F0
F001E0
F003E0
F007C0
F01F80
FFFF00
FFFE00
FFF000
ENDCHAR
STARTCHAR U+0045
ENCODING 69
SWIDTH 600 0
DWIDTH 24 0
BBX 17 29 4 0
BITMAP
FFFF80
FFFF80
FFFF80
F00000
F00000
F00000
F00000
F00000
F00000
F00000
F00000
F00000
FFFE00
FFFE00
FFFE00
F00000
F00000
F00000
F00000
F00000
F00000
F00000
F00000
F00000
F00000
F00000
FFFF80
FFFF80
FFFF80
ENDCHAR
STARTCHAR U+0046
ENCODING 70
SWIDTH 550 0
DWIDTH 22 0
BBX 17 29 4 0
BITMAP
FFFF80
FFFF80
FFFF80
F00000
F00000
F00000
F00000
F00000
F00000
F00000
F00000
F00000
F00000
FFFE00
FFFE00
FFFE00
F00000
F00000
F00000
F00000
F00000
F00000
F00000
F00000
F00000
F00000
F00000
F00000
F00000
ENDCHAR
STARTCHAR U+0047
ENCODING 71
SWIDTH 700 0
DWIDTH 28 0
BBX 23 31 2 -1
BITMAP
003F80
01FFF0
03FFF8
07F0FC
0F8038
1F0008
3E0000
3C0000
7C0000
780000
780000
780000
F00000
F00000
F00000
F007FE
F007FE
F007FE
F0001E
70001E
78001E
78001E
7C001E
3C001E
3E001E
1F001E
0F801E
07F0FE
03FFFC
01FFF0
003FC0
ENDCHAR
STARTCHAR U+0048
ENCODING 72
SWIDTH 725 0
DWIDTH 29 0
BBX 21 29 4 0
BITMAP
F00078
F00078
F00078
F00078
F00078
F00078
F00078
F00078
F00078
F00078
F00078
F00078
FFFFF8
FFFFF8
FFFFF8
F00078
F00078
F00078
F00078
F00078
F00078
F00078
F00078
F00078
F00078
F00078
F00078
F00078
F00078
ENDCHAR
STARTCHAR U+0049
ENCODING 73
SWIDTH 300 0
DWIDTH 12 0
BBX 4 29 4 0
BITMAP
F0
F0
F0
F0
F0
F0
F0
F0
F0
F0
F0
F0
F0
F0
F0
F0
F0
F0
F0
F0
F0
F0
F0
F0
F0
F0
F0
F0
F0
ENDCHAR
STARTCHAR U+004A
ENCODING 74
SWIDTH 525 0
DWIDTH 21 0
BBX 17 30 1 -1
BITMAP
000780
000780
000780
000780
000780
000780
000780
000780
000780
000780
000780
000780
000780
000780
000780
000780
000780
000780
000780
000780
000780
000780
000700
000F00
300F00
F81F00
7C3E00
3FFE00
1FF800
07F000
ENDCHAR
STARTCHAR U+004B
ENCODING 75
SWIDTH 650 0
DWIDTH 26 0
BBX 21 29 4 0
BITMAP
F000F0
F001E0
F003C0
F00780
F00F80
F01F00
F01E00
F03C00
F07800
F0F000
F1E000
F3E000
F3F000
F7F800
FF7800
FE3C00
FE3C00
FC1E00
F81E00
F00F00
F00780
F00780
F003C0
F003C0
F001E0
F001F0
F000F0
F00078
F00078
ENDCHAR
STARTCHAR U+004C
ENCODING 76
SWIDTH 550 0
DWIDTH 22 0
BBX 17 29 4 0
BITMAP
F00000
F00000
F00000
F00000
F00000
F00000
F00000
F00000
F00000
F00000
F00000
F00000
F00000
F00000
F00000
F00000
F00000
F00000
F00000
F00000
F00000
F00000
F00000
F00000
F00000
F00000
FFFF80
FFFF80
FFFF80
ENDCHAR
STARTCHAR U+004D
ENCODING 77
SWIDTH 800 0
DWIDTH 32 0
BBX 24 29 4 0
BITMAP
F8000F
F8001F
F8001F
FC001F
FC003F
FC003F
EE003F
EE0077
EF0077
E70067
E700E7
E380E7
E381C7
E381C7
E1C1C7
E1C387
E1C387
E0E387
E0E707
E07707
E07607
E07E07
E03E07
E03C07
E03C07
E01C07
E00007
E00007
E00007
ENDCHAR
STARTCHAR U+004E
ENCODING 78
SWIDTH 725 0
DWIDTH 29 0
BBX 21 29 4 0
BITMAP
F00078
F80078
F80078
FC0078
FC0078
EE0078
EF0078
E70078
E78078
E38078
E3C078
E1E078
E1E078
F0F078
F07078
F07878
F03C78
F03C78
F01E78
F00E78
F00F38
F00738
F007B8
F003B8
F003F8
F001F8
F000F8
F000F8
F00078
ENDCHAR
STARTCHAR U+004F
ENCODING 79
SWIDTH 750 0
DWIDTH 30 0
BBX 25 31 2 -1
BITMAP
007F0000
01FFE000
07FFF000
0FE1F800
1F807C00
1E003E00
3E001E00
3C000F00
78000F00
78000780
78000780
70000780
F0000780
F0000780
F0000380
F0000380
F0000380
F0000780
F0000780
70000780
78000780
78000780
78000F00
3C000F00
3E001E00
1E003E00
0F807C00
0FE1F800
07FFF000
01FFE000
007F0000
ENDCHAR
STARTCHAR U+0050
ENCODING 80
SWIDTH 625 0
DWIDTH 25 0
BBX 19 29 4 0
BITMAP
FFF800
FFFF00
FFFF80
F00FC0
F003E0
F001E0
F001E0
F000E0
F000E0
F000E0
F001E0
F001E0
F003C0
F00FC0
FFFF80
FFFE00
FFF800
F00000
F00000
F00000
F00000
F00000
F00000
F00000
F00000
F00000
F00000
F00000
F00000
ENDCHAR
STARTCHAR U+0051
ENCODING 81
SWIDTH 750 0
DWIDTH 30 0
BBX 26 38 2 -8
BITMAP
007F0000
01FFE000
07FFF000
0FE1F800
1F807C00
1E003E00
3E001E00
3C000F00
78000F00
78000780
78000780
70000780
F0000780
F0000780
F0000380
F0000380
F0000380
F0000780
F0000780
70000780
78000780
78000780
78000F00
3C000F00
3C001E00
1E003E00
1F007C00
0FC0F800
07FFF000
01FFE000
007F8000
001E0000
000F0000
000F8000
0007E000
0003FFC0
0000FFC0
00003FC0
ENDCHAR
STARTCHAR U+0052
ENCODING 82
SWIDTH 625 0
DWIDTH 25 0
BBX 20 29 4 0
BITMAP
FFFC00
FFFF00
FFFF80
F00FC0
F003E0
F001E0
F000E0
F000E0
F000E0
F000E0
F001E0
F001E0
F003C0
F00FC0
FFFF80
FFFF00
FFF800
F07800
F03C00
F03E00
F01E00
F00F00
F00F00
F00780
F007C0
F003C0
F001E0
F001E0
F000F0
ENDCHAR
STARTCHAR U+0053
ENCODING 83
SWIDTH 600 0
DWIDTH 24 0
BBX 20 31 2 -1
BITMAP
01FC00
07FF00
0FFFC0
1F87E0
3C01C0
3C0040
780000
780000
780000
780000
3C0000
3F0000
1FC000
0FF000
07FC00
01FF00
007F80
001FC0
0007E0
0001F0
0000F0
0000F0
0000F0
0000F0
2000F0
7000F0
F801E0
7F0FC0
3FFFC0
0FFF00
03FC00
ENDCHAR
STARTCHAR U+0054
ENCODING 84
SWIDTH 600 0
DWIDTH 24 0
BBX 22 29 1 0
BITMAP
FFFFFC
FFFFFC
FFFFFC
007800
007800
007800
007800
007800
007800
007800
007800
007800
007800
007800
007800
007800
007800
007800
007800
007800
007800
007800
007800
007800
007800
007800
007800
007800
007800
ENDCHAR
STARTCHAR U+0055
ENCODING 85
SWIDTH 725 0
DWIDTH 29 0
BBX 21 30 4 -1
BITMAP
F00078
F00078
F00078
F00078
F00078
F00078
F00078
F00078
F00078
F00078
F00078
F00078
F00078
F00078
F00078
F00078
F00078
F00078
F00078
F00078
F00078
F00078
F00070
7800F0
7800F0
3C01E0
3F8FE0
1FFFC0
0FFF00
01FC00
ENDCHAR
STARTCHAR U+0056
ENCODING 86
SWIDTH 575 0
DWIDTH 23 0
BBX 23 29 0 0
BITMAP
F0001E
F0001C
78003C
78003C
78003C
3C0038
3C0078
3C0078
1C0070
1E00F0
1E00F0
0E00E0
0F01E0
0F01E0
0701C0
0781C0
0783C0
038380
038380
03C780
01C700
01C700
01E700
00EE00
00EE00
00FE00
007C00
007C00
007C00
ENDCHAR
STARTCHAR U+0057
ENCODING 87
SWIDTH 875 0
DWIDTH 35 0
BBX 33 29 1 0
BITMAP
F001C00780
F001E00780
7003E00780
7803E00700
7803F00700
7803700F00
7807700F00
3807700E00
3807780E00
3C06380E00
3C0E381E00
3C0E381E00
1C0E3C1C00
1C1C1C1C00
1E1C1C1C00
1E1C1C3C00
0E1C1E3C00
0E380E3800
0E380E3800
0F380E3800
0F380E3800
0730077800
0770077000
0770077000
07F0077000
07E003F000
03E003F000
03E003E000
03E003E000
ENDCHAR
STARTCHAR U+0058
ENCODING 88
SWIDTH 575 0
DWIDTH 23 0
BBX 21 29 1 0
BITMAP
780070
7800F0
3C01E0
3C01E0
1E03C0
1E03C0
0F0780
0F0700
078F00
038E00
03DE00
01FC00
01FC00
00F800
00F800
01F800
01FC00
03DE00
039E00
078F00
070F00
0F0780
1E0380
1E03C0
3C01E0
3801E0
7800F0
7000F0
F00078
ENDCHAR
STARTCHAR U+0059
ENCODING 89
SWIDTH 525 0
DWIDTH 21 0
BBX 21 29 -1 0
BITMAP
F00078
780078
7800F0
3C00F0
3C01E0
1C01E0
1E03C0
0E03C0
0F0380
070780
078700
038F00
03CE00
01DE00
01FC00
00FC00
00F800
007800
007000
007000
007000
007000
007000
007000
007000
007000
007000
007000
007000
ENDCHAR
STARTCHAR U+005A
ENCODING 90
SWIDTH 600 0
DWIDTH 24 0
BBX 20 29 2 0
BITMAP
7FFFF0
7FFFF0
7FFFF0
0001E0
0001E0
0003C0
000780
000780
000F00
001E00
001E00
003C00
007800
007800
00F000
01E000
01E000
03C000
078000
078000
0F0000
1E0000
1E0000
3C0000
780000
780000
FFFFF0
FFFFF0
FFFFF0
ENDCHAR
STARTCHAR U+005B
ENCODING 91
SWIDTH 350 0
DWIDTH 14 0
BBX 8 39 4 -7
BITMAP
FF
FF
E0
E0
E0
E0
E0
E0
E0
E0
E0
E0
E0
E0
E0
E0
E0
E0
E0
E0
E0
E0
E0
E0
E0
E0
E0
E0
E0
E0
E0
E0
E0
E0
E0
E0
E0
FF
FF
ENDCHAR
STARTCHAR U+005C
ENCODING 92
SWIDTH 400 0
DWIDTH 16 0
BBX 14 39 1 -7
BITMAP
C000
E000
E000
6000
7000
7000
3000
3800
3800
3800
1800
1C00
1C00
0C00
0E00
0E00
0600
0700
0700
0300
0380
0380
0380
0180
01C0
01C0
00C0
00E0
00E0
0060
0070
0070
0030
0038
0038
0038
0018
001C
001C
ENDCHAR
STARTCHAR U+005D
ENCODING 93
SWIDTH 350 0
DWIDTH 14 0
BBX 8 39 1 -7
BITMAP
FF
FF
03
03
03
03
03
03
03
03
03
03
03
03
03
03
03
03
03
03
03
03
03
03
03
03
03
03
03
03
03
03
03
03
03
03
03
FF
FF
ENDCHAR
STARTCHAR U+005E
ENCODING 94
SWIDTH 550 0
DWIDTH 22 0
BBX 16 17 3 13
BITMAP
03C0
03C0
03E0
07E0
0760
0E70
0E70
0E38
1C38
1C38
381C
381C
380E
700E
700E
F007
E007
ENDCHAR
STARTCHAR U+005F
ENCODING 95
SWIDTH 550 0
DWIDTH 22 0
BBX 21 2 1 -5
BITMAP
FFFFF8
FFFFF8
ENDCHAR
STARTCHAR U+0060
ENCODING 96
SWIDTH 600 0
DWIDTH 24 0
BBX 9 9 6 26
BITMAP
2000
7000
F000
7800
3C00
1E00
0F00
0780
0300
ENDCHAR
STARTCHAR U+0061
ENCODING 97
SWIDTH 575 0
DWIDTH 23 0
BBX 17 24 2 -1
BITMAP
03F800
0FFE00
3FFF00
3E1F00
300780
000780
000780
000380
000380
007F80
03FF80
0FFF80
3F8380
7C0380
780380
700380
F00380
F00380
F00780
700F80
783F80
7FFB80
3FF380
0FC000
ENDCHAR
STARTCHAR U+0062
ENCODING 98
SWIDTH 625 0
DWIDTH 25 0
BBX 19 34 4 -1
BITMAP
E00000
E00000
E00000
E00000
E00000
E00000
E00000
E00000
E00000
E00000
E1F800
E7FE00
EFFF00
FE1F80
F80780
F003C0
E003C0
E003C0
E001C0
E001E0
E001E0
E001E0
E001E0
E001E0
E001C0
E003C0
E003C0
E003C0
E00780
F80F80
FC1F00
FFFE00
E7FC00
01F000
ENDCHAR
STARTCHAR U+0063
ENCODING 99
SWIDTH 500 0
DWIDTH 20 0
BBX 17 24 2 -1
BITMAP
01F800
07FE00
0FFF80
1F8700
3E0200
7C0000
780000
780000
F00000
F00000
F00000
F00000
F00000
F00000
F00000
F00000
780000
780000
7C0000
3E0100
1F0780
0FFF80
07FF00
01F800
ENDCHAR
STARTCHAR U+0064
ENCODING 100
SWIDTH 625 0
DWIDTH 25 0
BBX 19 34 2 -1
BITMAP
0001E0
0001E0
0001E0
0001E0
0001E0
0001E0
0001E0
0001E0
0001E0
0001E0
01F1E0
07FCE0
1FFFE0
1F0FE0
3E03E0
7C01E0
7801E0
7801E0
F001E0
F001E0
F001E0
F001E0
F001E0
F001E0
F001E0
F001E0
7001E0
7801E0
7801E0
3C03E0
3F0FE0
1FFEE0
0FFCE0
03F000
ENDCHAR
STARTCHAR U+0065
ENCODING 101
SWIDTH 550 0
DWIDTH 22 0
BBX 18 24 2 -1
BITMAP
01F800
07FE00
0FFF00
1F0F80
3C0380
3803C0
7801C0
7001C0
F001C0
F001C0
FFFFC0
FFFFC0
FFFFC0
F00000
F00000
F00000
700000
780000
7C0000
3C0000
1F0380
0FFF80
07FF00
01FC00
ENDCHAR
STARTCHAR U+0066
ENCODING 102
SWIDTH 325 0
DWIDTH 13 0
BBX 13 33 1 0
BITMAP
01F0
07F8
0FF8
0F00
0E00
1E00
1E00
1E00
1E00
1E00
1E00
FFF0
FFF0
FFF0
1E00
1E00
1E00
1E00
1E00
1E00
1E00
1E00
1E00
1E00
1E00
1E00
1E00
1E00
1E00
1E00
1E00
1E00
1E00
ENDCHAR
STARTCHAR U+0067
ENCODING 103
SWIDTH 575 0
DWIDTH 23 0
BBX 20 33 2 -10
BITMAP
03E000
0FFFF0
1FFFF0
3C0FF0
380F00
780700
780780
700380
700380
700780
780780
780700
3C0F00
1E1E00
1FFC00
1FF800
380000
700000
700000
780000
380000
3FFF00
1FFFC0
3BFFE0
7001F0
E000F0
E000F0
E000F0
F001E0
7803E0
7FFFC0
1FFF00
07F800
ENDCHAR
STARTCHAR U+0068
ENCODING 104
SWIDTH 600 0
DWIDTH 24 0
BBX 17 33 4 0
BITMAP
E00000
E00000
E00000
E00000
E00000
E00000
E00000
E00000
E00000
E00000
E0F800
E3FE00
EFFF00
FF1F00
FC0F00
F80780
F00780
E00780
E00780
E00780
E00780
E00780
E00780
E00780
E00780
E00780
E00780
E00780
E00780
E00780
E00780
E00780
E00780
ENDCHAR
STARTCHAR U+0069
ENCODING 105
SWIDTH 275 0
DWIDTH 11 0
BBX 5 31 3 0
BITMAP
70
F8
F8
F8
70
00
00
00
00
70
70
70
70
70
70
70
70
70
70
70
70
70
70
70
70
70
70
70
70
70
70
ENDCHAR
STARTCHAR U+006A
ENCODING 106
SWIDTH 275 0
DWIDTH 11 0
BBX 10 41 -2 -10
BITMAP
0380
07C0
07C0
07C0
0380
0000
0000
0000
0000
0380
0380
0380
0380
0380
0380
0380
0380
0380
0380
0380
0380
0380
0380
0380
0380
0380
0380
0380
0380
0380
0380
0380
0380
0380
0380
0380
0780
0780
7F00
FF00
7C00
ENDCHAR
STARTCHAR U+006B
ENCODING 107
SWIDTH 550 0
DWIDTH 22 0
BBX 17 32 4 1
BITMAP
E00000
E00000
E00000
E00000
E00000
E00000
E00000
E00000
E00000
E00000
E00F00
E01E00
E01E00
E03C00
E07800
E0F000
E1E000
E1E000
E3C000
E7C000
EFC000
FFE000
FCF000
FC7000
F87800
F03C00
E03C00
E01E00
E00E00
E00F00
E00780
E00780
ENDCHAR
STARTCHAR U+006C
ENCODING 108
SWIDTH 275 0
DWIDTH 11 0
BBX 6 32 4 0
BITMAP
E0
E0
E0
E0
E0
E0
E0
E0
E0
E0
E0
E0
E0
E0
E0
E0
E0
E0
E0
E0
E0
E0
E0
E0
E0
E0
E0
E0
F0
F8
F8
7C
ENDCHAR
STARTCHAR U+006D
ENCODING 109
SWIDTH 925 0
DWIDTH 37 0
BBX 30 23 4 0
BITMAP
01F807C0
E3FC1FE0
EFFE3FF0
FE3F78F8
FC0FE078
F00FC078
E0078038
E007003C
E007003C
E007003C
E007003C
E007003C
E007003C
E007003C
E007003C
E007003C
E007003C
E007003C
E007003C
E007003C
E007003C
E007003C
E007003C
ENDCHAR
STARTCHAR U+006E
ENCODING 110
SWIDTH 600 0
DWIDTH 24 0
BBX 17 23 4 0
BITMAP
00F800
E3FE00
EFFF00
FF1F00
FC0F00
F80780
F00780
E00780
E00780
E00780
E00780
E00780
E00780
E00780
E00780
E00780
E00780
E00780
E00780
E00780
E00780
E00780
E00780
ENDCHAR
STARTCHAR U+006F
ENCODING 111
SWIDTH 600 0
DWIDTH 24 0
BBX 20 24 2 -1
BITMAP
01F800
07FE00
0FFF80
1F0F80
3E03C0
7C01E0
7801E0
7800F0
F000F0
F000F0
F000F0
F000F0
F000F0
F000F0
F000F0
F000F0
7800F0
7801E0
7C01E0
3C03C0
1F0F80
0FFF80
07FE00
01F800
ENDCHAR
STARTCHAR U+0070
ENCODING 112
SWIDTH 625 0
DWIDTH 25 0
BBX 19 32 4 -9
BITMAP
01F800
E7FE00
EFFF00
FE1F80
F80780
F003C0
E003C0
E003C0
E001C0
E001E0
E001E0
E001E0
E001E0
E001E0
E001C0
E003C0
E003C0
E003C0
E00780
F00F80
FC1F00
FFFE00
E7FC00
E1F000
E00000
E00000
E00000
E00000
E00000
E00000
E00000
E00000
ENDCHAR
STARTCHAR U+0071
ENCODING 113
SWIDTH 625 0
DWIDTH 25 0
BBX 19 32 2 -9
BITMAP
01F000
07FCE0
0FFFE0
1F0FE0
3E03E0
7C01E0
7801E0
7801E0
F001E0
F001E0
F001E0
F001E0
F001E0
F001E0
F001E0
F001E0
7001E0
7801E0
7801E0
3C03E0
3F0FE0
1FFEE0
0FFCE0
03F1E0
0001E0
0001E0
0001E0
0001E0
0001E0
0001E0
0001E0
0001E0
ENDCHAR
STARTCHAR U+0072
ENCODING 114
SWIDTH 400 0
DWIDTH 16 0
BBX 11 23 4 0
BITMAP
01E0
E7E0
EFE0
EF20
FC00
F800
F000
F000
E000
E000
E000
E000
E000
E000
E000
E000
E000
E000
E000
E000
E000
E000
E000
ENDCHAR
STARTCHAR U+0073
ENCODING 115
SWIDTH 475 0
DWIDTH 19 0
BBX 15 24 2 -1
BITMAP
07E0
1FF8
3FFE
781C
7008
7000
F000
7000
7800
7E00
3F80
1FE0
07F8
00FC
003E
001E
000E
000E
000E
C01E
F03C
FFFC
3FF8
0FE0
ENDCHAR
STARTCHAR U+0074
ENCODING 116
SWIDTH 375 0
DWIDTH 15 0
BBX 13 29 1 0
BITMAP
0E00
0E00
0E00
0E00
0E00
0E00
FFF8
FFF8
FFF8
1E00
1E00
1E00
1E00
1E00
1E00
1E00
1E00
1E00
1E00
1E00
1E00
1E00
1E00
1E00
0E00
0F00
0FF8
07F8
01F8
ENDCHAR
STARTCHAR U+0075
ENCODING 117
SWIDTH 600 0
DWIDTH 24 0
BBX 18 23 3 -1
BITMAP
F003C0
F003C0
F003C0
F003C0
F003C0
F003C0
F003C0
F003C0
F003C0
F003C0
F003C0
F003C0
F003C0
F003C0
F003C0
F003C0
F003C0
7807C0
780FC0
7C3FC0
3FFBC0
1FF1C0
0FC000
ENDCHAR
STARTCHAR U+0076
ENCODING 118
SWIDTH 525 0
DWIDTH 21 0
BBX 19 22 1 0
BITMAP
E000E0
F001E0
F001C0
7001C0
7803C0
780380
380380
3C0780
1C0700
1C0700
1E0F00
0E0E00
0E0E00
0F1E00
071C00
071C00
07BC00
03B800
03B800
03F800
01F000
01F000
ENDCHAR
STARTCHAR U+0077
ENCODING 119
SWIDTH 800 0
DWIDTH 32 0
BBX 30 22 1 0
BITMAP
F007803C
F007803C
7007C038
780FC038
780FC078
380FC078
380CE070
3C1CE070
3C1CE0F0
1C1CE0E0
1C1870E0
1E3870E0
1E3871E0
0E3879C0
0E3039C0
0F7039C0
077039C0
07701B80
07601F80
07E01F80
03E01F80
03C00F00
ENDCHAR
STARTCHAR U+0078
ENCODING 120
SWIDTH 500 0
DWIDTH 20 0
BBX 18 22 1 0
BITMAP
F00380
780780
3C0700
3C0F00
1E1E00
0E1C00
0F3C00
07B800
07F800
03F000
01E000
03F000
03F000
077800
0F3800
0E3C00
1E1E00
3C0E00
380F00
780780
700780
F003C0
ENDCHAR
STARTCHAR U+0079
ENCODING 121
SWIDTH 525 0
DWIDTH 21 0
BBX 19 31 1 -9
BITMAP
F000E0
F001E0
7001C0
7801C0
7803C0
380380
3C0380
1C0780
1C0700
1E0700
0E0F00
0F0E00
070E00
071E00
079C00
039C00
039C00
01F800
01F800
01F800
00F000
00F000
00F000
00E000
01E000
01C000
03C000
078000
7F0000
7E0000
FC0000
ENDCHAR
STARTCHAR U+007A
ENCODING 122
SWIDTH 475 0
DWIDTH 19 0
BBX 17 22 1 0
BITMAP
3FFF00
3FFF00
3FFF00
001E00
001E00
003C00
007800
007800
00F000
01E000
01E000
03C000
078000
078000
0F0000
1E0000
1E0000
3C0000
780000
7FFF80
FFFF80
FFFF80
ENDCHAR
STARTCHAR U+007B
ENCODING 123
SWIDTH 350 0
DWIDTH 14 0
BBX 10 39 2 -7
BITMAP
07C0
0FC0
1E00
1C00
1C00
1C00
1C00
1C00
1C00
1C00
1C00
1C00
1C00
1C00
1C00
1C00
1C00
1C00
7800
F000
F800
3C00
1C00
1C00
1C00
1C00
1C00
1C00
1C00
1C00
1C00
1C00
1C00
1C00
1C00
1C00
1E00
0FC0
07C0
ENDCHAR
STARTCHAR U+007C
ENCODING 124
SWIDTH 275 0
DWIDTH 11 0
BBX 3 45 4 -11
BITMAP
E0
E0
E0
E0
E0
E0
E0
E0
E0
E0
E0
E0
E0
E0
E0
E0
E0
E0
E0
E0
E0
E0
E0
E0
E0
E0
E0
E0
E0
E0
E0
E0
E0
E0
E0
E0
E0
E0
E0
E0
E0
E0
E0
E0
E0
ENDCHAR
STARTCHAR U+007D
ENCODING 125
SWIDTH 350 0
DWIDTH 14 0
BBX 11 39 1 -7
BITMAP
F800
FC00
1E00
0E00
0F00
0F00
0700
0700
0F00
0E00
0E00
0E00
0E00
0E00
0E00
0E00
0E00
0700
07C0
03E0
03E0
0780
0700
0E00
0E00
0E00
0E00
0E00
0E00
0E00
0E00
0700
0700
0700
0F00
0E00
1E00
FE00
F800
ENDCHAR
STARTCHAR U+007E
ENCODING 126
SWIDTH 550 0
DWIDTH 22 0
BBX 19 7 2 11
BITMAP
1E0000
3F8080
7FC0E0
E1F1C0
C0FF80
003F00
000E00
ENDCHAR
STARTCHAR U+3041
ENCODING 12353
SWIDTH 1000 0
DWIDTH 40 0
BBX 27 29 7 -2
BITMAP
00780000
00700000
00700000
00700600
007FFE00
7FFFFE00
7FFFC000
03E00000
00603000
00603800
006FF000
00FFFE00
01FE7F00
03E0E780
07E0E3C0
0EE0C1C0
1CE1C0E0
38E380E0
706380E0
706700E0
606E00E0
E07E00E0
E07C01C0
E07803C0
E1F00780
7FF80F80
7FB87E00
1821FC00
0001F000
ENDCHAR
STARTCHAR U+3042
ENCODING 12354
SWIDTH 1000 0
DWIDTH 40 0
BBX 32 34 4 -1
BITMAP
000E0000
001C0000
001C0000
001C0010
001C0FF0
3FFFFFF0
3FFFFFE0
3FFFC000
00180000
00180200
00180380
00380780
0039FF00
003FFFE0
007FFFF0
00FC0E78
03F80E3C
07F81C1E
0F381C0E
1E383807
1C387807
38387007
7838E007
701DE007
701FC007
E01F800F
E01F000E
F03E001E
F0FE003C
7FFE00F8
7FEE03F0
1F0E3FE0
00003F80
00001E00
ENDCHAR
STARTCHAR U+3043
ENCODING 12355
SWIDTH 1000 0
DWIDTH 40 0
BBX 27 24 7 -1
BITMAP
F0000000
F0000800
F0003C00
70001E00
70000E00
70000F00
70000700
70000700
70000380
70000380
700003C0
700003C0
700001C0
700001C0
700801E0
700C01E0
381E00E0
381C00E0
381C00E0
3C380000
1E780000
1FF00000
0FF00000
07E00000
ENDCHAR
STARTCHAR U+3044
ENCODING 12356
SWIDTH 1000 0
DWIDTH 40 0
BBX 32 29 5 0
BITMAP
F0000000
F0000080
F00003C0
F00001C0
F00001E0
F00000E0
F00000F0
F0000070
F0000078
F0000078
F0000038
F000003C
7000001C
7000001C
7000001E
7000001E
7000000E
7002000E
7803000E
7807800F
3807800F
3C07000F
3C0F0004
1E0E0000
1F1E0000
0FFC0000
0FFC0000
07F80000
01E00000
ENDCHAR
STARTCHAR U+3045
ENCODING 12357
SWIDTH 1000 0
DWIDTH 40 0
BBX 21 28 10 -3
BITMAP
0FF000
0FFFC0
03FFC0
0003C0
000000
000000
000000
003E00
0FFFC0
FFFFE0
FF01F0
F00070
800078
000038
000038
000038
000038
000078
000078
0000F0
0000F0
0001E0
0007C0
001F80
00FF00
0FFC00
07F000
078000
ENDCHAR
STARTCHAR U+3046
ENCODING 12358
SWIDTH 1000 0
DWIDTH 40 0
BBX 25 34 7 -2
BITMAP
04000000
07FC0000
07FFFC00
03FFFC00
0001FC00
00000000
00000000
00000000
00000000
00000000
003FE000
07FFF800
FFFFFE00
FFC03E00
FC000F00
E0000780
00000780
00000380
00000380
00000380
00000380
00000780
00000780
00000700
00000F00
00001F00
00003E00
00007C00
0001F800
0007F000
003FE000
07FF8000
03FE0000
03F00000
ENDCHAR
STARTCHAR U+3047
ENCODING 12359
SWIDTH 1000 0
DWIDTH 40 0
BBX 26 28 8 -3
BITMAP
03F00000
03FFE000
01FFE000
0003E000
00000000
00000000
00000000
00000000
007FE000
3FFFF000
3FFFE000
3C03C000
00070000
000E0000
001C0000
00380000
00700000
00FE0000
01FE0000
03CF0000
07870000
0F070000
1E038000
3C038000
7803C0C0
F001FFC0
E001FFC0
20007F80
ENDCHAR
STARTCHAR U+3048
ENCODING 12360
SWIDTH 1000 0
DWIDTH 40 0
BBX 31 34 5 -2
BITMAP
01C00000
01FF8000
01FFFE00
001FFE00
00003E00
00000000
00000000
00000000
00000000
00000000
00001E00
21FFFE00
3FFFFF00
3FFFFE00
3E007800
0000F000
0001E000
0003C000
00078000
000F0000
001E0000
003F8000
007FC000
00FFE000
01E0E000
03C0E000
0780F000
0F007000
1F007000
3E007800
7C007C02
F8003FFE
F0003FFE
20000FFE
ENDCHAR
STARTCHAR U+3049
ENCODING 12361
SWIDTH 1000 0
DWIDTH 40 0
BBX 28 28 7 -3
BITMAP
01C00000
01C00000
01C00000
01C00800
01C08E00
01DF9F80
FFFF87C0
FFFF01F0
FFC000F0
01C00070
01C00000
01C00000
01C08000
01FFFC00
01FFFE00
07F00F00
0FC00780
3FC00380
79C001C0
71C001C0
E1C001C0
E1C00380
E1C00780
E1C00F80
F9C03F00
7FC7FE00
1FC3F800
0F83C000
ENDCHAR
STARTCHAR U+304A
ENCODING 12362
SWIDTH 1000 0
DWIDTH 40 0
BBX 34 34 4 -1
BITMAP
0070000000
0070000000
0070000000
0070000000
0070000000
007000C000
007030F000
007FF0F800
7FFFF07E00
7FFFE01F00
7FF00007C0
0070000380
0070000080
0070000000
0070000000
00703E0000
0077FFC000
007FFFF000
01FF00F800
03F0003C00
0FF0003C00
1F70001C00
3C70001E00
7870001E00
7070001E00
F070001C00
E070001C00
E070003C00
F07000F800
787003F000
3EF0FFE000
1FF07FC000
0FE07E0000
03C0000000
ENDCHAR
STARTCHAR U+304B
ENCODING 12363
SWIDTH 1000 0
DWIDTH 40 0
BBX 35 34 3 -2
BITMAP
0010000000
001C000000
001C000000
001C000000
001C000000
003C000000
0038003800
0038003C00
0038001C00
0FFFF81E00
FFFFFC0E00
FFFFFE0F00
F0700E0700
00700F0780
00F0070380
00E00703C0
00E00701C0
00E00701E0
01E00701E0
01C00700E0
01C00700C0
03C0070000
03800F0000
07800E0000
07800E0000
07000E0000
0F000E0000
0E001E0000
1E001C0000
1C001C0000
3C107C0000
381FF80000
781FF00000
300FE00000
ENDCHAR
STARTCHAR U+304C
ENCODING 12364
SWIDTH 1000 0
DWIDTH 40 0
BBX 36 36 3 -1
BITMAP
0000000180
00000001C0
00200038C0
003C0018E0
003C001C60
0038000E70
0038000E00
0038000600
0038003000
0038007800
0078003C00
01FFF03C00
FFFFFC1E00
FFFFFC0E00
E0F01E0F00
00E00E0700
00E00E0780
00E00E0380
01E00E03C0
01C00E03C0
01C00E01C0
03C00E01E0
03800E00E0
03800E0080
07800E0000
07000E0000
07000E0000
0F001E0000
0E001C0000
1E001C0000
1C001C0000
3C003C0000
3830780000
783FF80000
F03FF00000
301FC00000
ENDCHAR
STARTCHAR U+304D
ENCODING 12365
SWIDTH 1000 0
DWIDTH 40 0
BBX 28 34 6 -1
BITMAP
00070000
00078000
00038000
000380C0
00039FC0
7FFFFFC0
7FFFFF00
3FFFC000
0001C000
0000E000
0000E000
0000E030
000073F0
FF9FFFF0
FFFFFFE0
7FFFFC00
00003C00
00001C00
00001E00
00000E00
00000700
1C01F780
3C01FF80
3800FF80
38000100
38000000
78000000
38000000
38000000
3C000000
1F800600
0FFFFE00
07FFFE00
00FFFE00
ENDCHAR
STARTCHAR U+304E
ENCODING 12366
SWIDTH 1000 0
DWIDTH 40 0
BBX 33 37 5 -3
BITMAP
0000000400
0000000E00
000F01C600
000700E700
0007006300
0007017380
4003BF3000
7FFFFF3000
7FFFFC0000
0FFFC00000
0001C00000
0001C00000
0001C00000
0000E02000
0000E3F000
FF9FFFF000
FFFFFFE000
FFFFF80000
0000380000
0000380000
00001C0000
00001E0000
00000E0000
3801E70000
3801FF8000
7801FF0000
7000020000
7000000000
7000000000
7000000000
7000000000
7800000000
3C00000000
3F800E0000
1FFFFE0000
07FFFE0000
00FFF80000
ENDCHAR
STARTCHAR U+304F
ENCODING 12367
SWIDTH 1000 0
DWIDTH 40 0
BBX 21 34 8 -2
BITMAP
000040
0000E0
0001F0
0003E0
0007C0
000F80
001F00
007C00
00F800
01F000
03E000
078000
1F0000
3E0000
7C0000
780000
F00000
F00000
780000
3C0000
1F0000
0F8000
07C000
03E000
01F800
007C00
003E00
001F00
000F80
0007C0
0003E0
0001F0
0000F8
000070
ENDCHAR
STARTCHAR U+3050
ENCODING 12368
SWIDTH 1000 0
DWIDTH 40 0
BBX 25 35 8 -3
BITMAP
00008000
0001C000
0001E000
0007E000
000F8000
001F0000
003E0000
007C0000
00F80E00
03E04700
07C0C700
0F80E380
1F006180
3C007180
78003800
F0003800
F0000000
F0000000
F8000000
7C000000
3E000000
1F000000
0FC00000
03E00000
01F00000
00F80000
007C0000
003E0000
001F8000
000FC000
0007E000
0001F000
0000F000
0000E000
00004000
ENDCHAR
STARTCHAR U+3051
ENCODING 12369
SWIDTH 1000 0
DWIDTH 40 0
BBX 32 34 5 -2
BITMAP
78000380
78000380
78000380
70000380
70000380
70000380
70000380
70000383
F00003FF
E01FFFFF
E01FFFFE
E01FFF80
E0000380
E0000380
E0000380
E0000380
E0000380
E0000380
E0000380
E6000380
E6000380
EE000380
EC000380
EC000780
FC000700
F8000700
F8000F00
78001E00
78001E00
78003C00
7000F800
3801F000
0003E000
0000C000
ENDCHAR
STARTCHAR U+3052
ENCODING 12370
SWIDTH 1000 0
DWIDTH 40 0
BBX 35 36 4 -2
BITMAP
0000000180
0000001980
200003D8C0
3C00038CC0
3800038C60
3800038E60
3800038600
780003C000
700003C000
700003C000
700003C300
701FFFFF00
701FFFFF00
701FFFFE00
700001C000
600001C000
E00001C000
E00001C000
E00003C000
E000038000
E000038000
E200038000
E700038000
E600038000
F600038000
7E00038000
7C00078000
7C00078000
7C00070000
7C000F0000
78001E0000
38003E0000
38007C0000
3800F80000
2003F00000
0000E00000
ENDCHAR
STARTCHAR U+3053
ENCODING 12371
SWIDTH 1000 0
DWIDTH 40 0
BBX 26 30 7 -1
BITMAP
00000100
3FFFFF00
3FFFFF00
3FFFFF00
00000000
00000000
00000000
00000000
00000000
00000000
00000000
00000000
00000000
00000000
00000000
00000000
00000000
70000000
F0000000
E0000000
E0000000
E0000000
E0000000
F0000000
F0000000
78000000
7F0007C0
3FFFFFC0
0FFFFFC0
03FFFE00
ENDCHAR
STARTCHAR U+3054
ENCODING 12372
SWIDTH 1000 0
DWIDTH 40 0
BBX 33 36 6 -2
BITMAP
0000000C00
0000000E00
000001CE00
000000C700
000000E300
0000006380
1800077000
1FFFFF3000
1FFFFF0000
1FFFFF0000
0000000000
0000000000
0000000000
0000000000
0000000000
0000000000
0000000000
0000000000
0000000000
0000000000
0000000000
0000000000
4000000000
7000000000
7000000000
F000000000
E000000000
E000000000
F000000000
F000000000
7800000000
7C00006000
3FC07FE000
1FFFFFE000
0FFFFFE000
01FFFC0000
ENDCHAR
STARTCHAR U+3055
ENCODING 12373
SWIDTH 1000 0
DWIDTH 40 0
BBX 28 34 6 -1
BITMAP
00038000
0003C000
0001C000
0001C000
0001C000
0000E030
0000E3F0
FFFFFFF0
FFFFFFE0
FFFFFC00
00007000
00003800
00003800
00001C00
00001C00
00000E00
00000E00
00000700
00000780
1001FBC0
1C01FFC0
3C01FFC0
38000180
38000000
38000000
78000000
78000000
38000000
3C000000
3E000000
1F800300
0FFFFF00
03FFFF00
007FFE00
ENDCHAR
STARTCHAR U+3056
ENCODING 12374
SWIDTH 1000 0
DWIDTH 40 0
BBX 33 37 6 -3
BITMAP
0000001C00
0000018E00
000381C600
000380E700
000380E380
0003C07200
0001C03000
0001C03000
0001E3F000
FFFFFFF000
FFFFFFE000
FFFFFC0000
0000700000
0000700000
0000380000
0000380000
00001C0000
00001C0000
00000E0000
00000F0000
0000070000
1001F38000
3C01FFC000
3801FF8000
3800038000
7800000000
7000000000
7000000000
7000000000
7000000000
7800000000
3800000000
3E00000000
1F800F0000
0FFFFF0000
07FFFF0000
007FFC0000
ENDCHAR
STARTCHAR U+3057
ENCODING 12375
SWIDTH 1000 0
DWIDTH 40 0
BBX 27 33 9 -1
BITMAP
70000000
70000000
70000000
70000000
70000000
70000000
70000000
70000000
70000000
70000000
70000000
70000000
70000000
70000000
70000000
70000000
70000000
70000000
70000000
F0000000
F0000000
F0000000
F0000080
F00001C0
F00003E0
F00007C0
70000F80
78001F00
78007E00
3E03FC00
3FFFF000
1FFFE000
07FF0000
ENDCHAR
STARTCHAR U+3058
ENCODING 12376
SWIDTH 1000 0
DWIDTH 40 0
BBX 26 34 9 -2
BITMAP
F0000000
F0000800
F0003800
F0001C00
F0070C00
F0038E00
F0038700
F001C700
F001C200
F000E000
E000C000
E0000000
E0000000
E0000000
E0000000
E0000000
E0000000
E0000000
E0000000
E0000000
E0000000
E0000000
E0000000
E0000180
E00003C0
E00003C0
E0000780
F0001F00
F0003E00
7800FC00
7F07F800
3FFFE000
1FFF8000
03FC0000
ENDCHAR
STARTCHAR U+3059
ENCODING 12377
SWIDTH 1000 0
DWIDTH 40 0
BBX 33 35 4 -3
BITMAP
0000780000
0000380000
0000380000
0000380000
0000380000
07FFFFFF80
FFFFFFFF80
FFFFFFFF80
F000380000
0000380000
0000380000
0000380000
0007F80000
001FF80000
003FF80000
0078780000
00703C0000
00E01C0000
00E01C0000
00E01C0000
00E03C0000
00F03C0000
00787C0000
007FFC0000
003FFC0000
000FB80000
0000780000
0000F00000
0001F00000
0003E00000
000FC00000
003F800000
00FE000000
007C000000
0020000000
ENDCHAR
STARTCHAR U+305A
ENCODING 12378
SWIDTH 1000 0
DWIDTH 40 0
BBX 34 36 3 -2
BITMAP
0000000300
0000006300
0000787380
00007871C0
00003839C0
0000383880
0000381000
FFFFFFFF80
FFFFFFFF80
FFFFFFFF80
0000380000
0000380000
0000380000
0007380000
001FF80000
003FF80000
0078780000
0070380000
00E01C0000
00E01C0000
00E01C0000
00E03C0000
00F03C0000
00787C0000
007FFC0000
003FFC0000
000FB80000
0000780000
0000F00000
0001F00000
0003E00000
0007C00000
003F800000
00FF000000
007C000000
0070000000
ENDCHAR
STARTCHAR U+305B
ENCODING 12379
SWIDTH 1000 0
DWIDTH 40 0
BBX 35 32 2 0
BITMAP
000000F000
00F000E000
00F000E000
00F000E000
00F000E000
007000E000
007000E000
00F000E000
00F000FFE0
00F03FFFE0
00FFFFFFE0
FFFFFFE000
FFFFC0E000
FFF000E000
00F000E000
00F000E000
00F000E000
00F000E000
00F000E000
00F020E000
00F03FE000
00F03FC000
00F00F8000
00F0000000
0070000000
0070000000
0070000000
0070000000
007C001E00
003FFFFC00
001FFFFC00
0007FFFC00
ENDCHAR
STARTCHAR U+305C
ENCODING 12380
SWIDTH 1000 0
DWIDTH 40 0
BBX 38 34 1 -2
BITMAP
0000000020
0000000030
0000007330
0070007318
0070007398
007000719C
0070007180
0070007000
0070007000
0070007000
007001FFE0
0070FFFFE0
7FFFFFFFE0
FFFFF06000
FFF8006000
E07000E000
007000E000
007000E000
007000E000
007000E000
007000E000
00701FE000
00701FE000
00701FC000
0070000000
0070000000
0070000000
0070000000
0070000000
0078000000
007E003E00
003FFFFE00
001FFFFE00
0007FFF800
ENDCHAR
STARTCHAR U+305D
ENCODING 12381
SWIDTH 1000 0
DWIDTH 40 0
BBX 31 33 4 -2
BITMAP
00000F80
03FFFF80
01FFFFC0
01FF0F00
00001E00
00003C00
00007800
0000F000
0003E000
0007C000
000F0000
001E0000
003C0000
00F80FFE
01FFFFFE
FFFFFFFE
FFFFE000
FE038000
00070000
000E0000
001C0000
001C0000
00380000
00380000
00380000
00380000
003C0000
001E0000
001F0000
000FE000
0007FFC0
0003FFC0
00007F80
ENDCHAR
STARTCHAR U+305E
ENCODING 12382
SWIDTH 1000 0
DWIDTH 40 0
BBX 33 33 3 -2
BITMAP
00000F0000
03FFFF8000
03FFFFC000
03FF0F0000
00001E0E00
00003C4700
0000F8E300
0001F07380
0003C03180
0007803900
000F001800
001E000000
007C000000
00F81FFE00
01FFFFFE00
FFFFFFFE00
FFFFE00000
FE07800000
000F000000
000E000000
001C000000
0038000000
0038000000
0038000000
0038000000
0038000000
003C000000
003C000000
001F000000
000FC00000
0007FF8000
0003FF8000
00007F8000
ENDCHAR
STARTCHAR U+305F
ENCODING 12383
SWIDTH 1000 0
DWIDTH 40 0
BBX 32 34 4 -1
BITMAP
003C0000
00380000
00380000
00380000
00380000
00783000
007FF000
FFFFF000
FFFFE000
FFF80000
00F00000
00E00000
00E07FFF
00E07FFF
01E07FFF
01C00000
01C00000
03C00000
03800000
03800000
03800000
07800000
0701C000
0701C000
0F01C000
0E01C000
1E01C000
1E01C000
1C01E000
3C01F001
3C00FFFF
78007FFF
78000FFF
10000000
ENDCHAR
STARTCHAR U+3060
ENCODING 12384
SWIDTH 1000 0
DWIDTH 40 0
BBX 35 33 3 -1
BITMAP
0038000300
0038000380
0038007180
00780039C0
00780038E0
0070301CE0
007FF00C00
FFFFF00C00
FFFFE00000
FFF0000000
00E0000000
00E0000000
00E07FFE00
01E07FFE00
01C07FFE00
01C0000000
01C0000000
03C0000000
0380000000
0380000000
0780000000
0700000000
0701C00000
0F01C00000
0E01C00000
0E01C00000
1E01C00000
1C01C00000
3C01C00000
3C01F00300
3800FFFF00
78007FFF00
78000FFF00
ENDCHAR
STARTCHAR U+3061
ENCODING 12385
SWIDTH 1000 0
DWIDTH 40 0
BBX 30 34 4 -2
BITMAP
00780000
00780000
00700000
00700000
00700020
80700FE0
FFFFFFE0
FFFFFFC0
FFFFC000
00E00000
00E00000
00E00000
01C00000
01C00000
01C00000
01C07C00
0387FFC0
039FFFE0
03FE01F0
07F00078
07E00038
0780003C
0F00001C
0E00001C
0600001C
0000003C
0000003C
00000078
000000F8
000003F0
00001FE0
007FFFC0
007FFF00
007FF800
ENDCHAR
STARTCHAR U+3062
ENCODING 12386
SWIDTH 1000 0
DWIDTH 40 0
BBX 35 37 3 -2
BITMAP
0000000100
0000000380
00000031C0
00780038C0
00700018E0
0070001C60
0070000E40
0070006E00
80703FE000
FFFFFFE000
FFFFFF8000
FFFF800000
00E0000000
01C0000000
01C0000000
01C0000000
01C0000000
03C0000000
0381FF0000
038FFFC000
03BFFFE000
07FC01F000
07F0007800
07C0003800
0F80003C00
0F00003C00
1E00003C00
0000003C00
0000003800
0000003800
0000007800
000000F000
000003F000
00001FE000
00FFFF8000
007FFE0000
007FF00000
ENDCHAR
STARTCHAR U+3063
ENCODING 12387
SWIDTH 1000 0
DWIDTH 40 0
BBX 28 21 6 -1
BITMAP
0003FC00
003FFF00
01FFFF80
1FFC07C0
FFC001E0
7E0000E0
700000F0
00000070
00000070
00000070
00000070
000000F0
000000E0
000001E0
000003C0
00000FC0
00003F00
0003FE00
007FF800
007FE000
003E0000
ENDCHAR
STARTCHAR U+3064
ENCODING 12388
SWIDTH 1000 0
DWIDTH 40 0
BBX 33 26 3 0
BITMAP
0000FF8000
000FFFF000
007FFFF800
03FF807E00
1FF8001E00
FFC0000F00
FE00000780
7800000780
4000000380
0000000380
0000000380
0000000380
0000000380
0000000780
0000000780
0000000700
0000000F00
0000001E00
0000003E00
000000FC00
000003F800
00001FF000
0007FFC000
003FFF0000
001FF80000
001F800000
ENDCHAR
STARTCHAR U+3065
ENCODING 12389
SWIDTH 1000 0
DWIDTH 40 0
BBX 36 34 2 0
BITMAP
0000000180
00000001C0
00000038C0
00000018E0
0000001C60
0000000E70
0000000E00
0000000600
00007FC000
0007FFF000
007FFFFC00
03FF807E00
1FF8001F00
FFC0000F00
7F00000780
7800000380
20000003C0
00000003C0
00000003C0
00000003C0
00000003C0
0000000380
0000000780
0000000780
0000000F00
0000001F00
0000003E00
0000007C00
000001F800
00001FF000
0007FFC000
001FFF0000
001FF80000
000F800000
ENDCHAR
STARTCHAR U+3066
ENCODING 12390
SWIDTH 1000 0
DWIDTH 40 0
BBX 32 31 3 -1
BITMAP
000003FF
001FFFFF
FFFFFFFF
FFFFFF80
7FE03E00
60007800
0000F000
0001E000
0001C000
00038000
00038000
00070000
00070000
00070000
000F0000
000E0000
000E0000
000E0000
000E0000
000F0000
000F0000
00070000
00078000
0007C000
0003E000
0001F000
0000FC00
00007FE0
00001FF8
000007F0
000000F0
ENDCHAR
STARTCHAR U+3067
ENCODING 12391
SWIDTH 1000 0
DWIDTH 40 0
BBX 34 31 3 -2
BITMAP
000000FF00
000FFFFF00
7FFFFFFF00
FFFFFFC000
FFF03E0000
F000780000
0000F00000
0001E00600
0001C00700
000380E380
0007807180
00070031C0
00070038C0
000F001800
000E001000
000E000000
000E000000
000E000000
000E000000
000E000000
000F000000
000F000000
0007800000
0007800000
0003E00000
0001F00000
0000FC0000
00007FE000
00003FF800
00000FF000
000000F000
ENDCHAR
STARTCHAR U+3068
ENCODING 12392
SWIDTH 1000 0
DWIDTH 40 0
BBX 26 33 8 -1
BITMAP
38000000
78000000
38000000
3C000000
1C000200
1E000700
1E001F00
0E003F00
0F00FC00
0703F800
078FE000
039F8000
03FE0000
01F80000
03E00000
07C00000
0F000000
1E000000
3C000000
78000000
70000000
70000000
F0000000
E0000000
E0000000
F0000000
F0000000
F8000000
7C000040
3F803FC0
1FFFFFC0
0FFFFFC0
00FFFC00
ENDCHAR
STARTCHAR U+3069
ENCODING 12393
SWIDTH 1000 0
DWIDTH 40 0
BBX 32 35 7 -2
BITMAP
00000008
00000018
0000031C
7800038E
780001CE
380000C7
3C0000E0
1C000460
1E000C00
0E003E00
0F00FE00
0701F800
0787E000
079F8000
03FE0000
01FC0000
03F00000
07C00000
0F800000
1E000000
3C000000
38000000
78000000
70000000
F0000000
E0000000
E0000000
E0000000
F0000000
F0000000
7C000000
7F000FC0
3FFFFFC0
0FFFFFC0
03FFFF00
ENDCHAR
STARTCHAR U+306A
ENCODING 12394
SWIDTH 1000 0
DWIDTH 40 0
BBX 33 35 4 -2
BITMAP
003C000000
003C000000
0038000000
0038000000
0038000000
0038600000
007FE1C000
FFFFE1F000
FFFF81F800
FFF0007E00
00E0001F80
00E0000F80
01C0000300
01C00E0100
03C00E0000
03800E0000
07800E0000
0700060000
0F00060000
1E00070000
1E00070000
3C00070000
3C00070000
780FFF0000
F01FFFC000
703C0FE000
207807F800
0070077C00
0070073E00
0070070F00
00700F0600
007C1E0200
003FFE0000
001FFC0000
0007F00000
ENDCHAR
STARTCHAR U+306B
ENCODING 12395
SWIDTH 1000 0
DWIDTH 40 0
BBX 31 33 5 -2
BITMAP
30000000
38000000
38000000
38000000
3807FFFC
7007FFFC
7007FFFC
70000000
70000000
70000000
70000000
60000000
E0000000
E0000000
E0000000
E0000000
E0000000
E0000000
E0000000
E4000000
E60E0000
EE0E0000
EC1C0000
EC1C0000
FC1C0000
F81C0000
F81E0000
F80F800E
780FFFFE
7007FFFE
7000FFFC
70000000
70000000
ENDCHAR
STARTCHAR U+306C
ENCODING 12396
SWIDTH 1000 0
DWIDTH 40 0
BBX 36 33 3 -1
BITMAP
0000600000
0000700000
0000700000
0000700000
0800700000
3C00700000
1C00FF0000
1C07FFC000
1C1FFFF000
0E7EE0F800
0EF8E03C00
0FE0E01E00
07C0E00E00
0780E00F00
0F01C00700
1F81C00700
1F81C00700
39C3C00700
39C3800700
71E3800700
70E7800700
60F7000700
E07F000700
E07E1FF700
E03E3FFF00
E03C783F00
E078700F80
E0F8601FC0
F1F0601DE0
7FE0707CF0
7FC07FF8E0
1F003FF040
00000FC000
ENDCHAR
STARTCHAR U+306D
ENCODING 12397
SWIDTH 1000 0
DWIDTH 40 0
BBX 37 34 2 -2
BITMAP
0038000000
0038000000
0038000000
0038000000
0038000000
0038000000
003803E000
01FC1FF800
7FF87FFC00
7FF8F81E00
7C73E00F00
0077800700
007F000700
007E000780
007C000380
00F8000380
01F0000380
01F0000380
03F0000380
07F0000380
0770000380
0E70000380
1E700FFB80
3C703FFF80
3870781F80
78707007C0
F0707007E0
6070700FF0
2070701E78
0070783E30
00703FFC10
00701FF800
007007E000
00F0000000
ENDCHAR
STARTCHAR U+306E
ENCODING 12398
SWIDTH 1000 0
DWIDTH 40 0
BBX 32 31 4 -2
BITMAP
0007F800
003FFF00
00FFFFC0
03F9C7E0
07C1C1F0
0F81C078
1E01C03C
3C03C01C
3C03801E
7803800E
7003800F
F0038007
E0078007
E0070007
E0070007
E00F0007
E00E0007
E00E0007
E01E0007
E01C000F
E03C000E
F03C001E
F078001E
78F0003C
3FF00078
3FE001F8
1FC007F0
07007FC0
0000FF80
0000FE00
00006000
ENDCHAR
STARTCHAR U+306F
ENCODING 12399
SWIDTH 1000 0
DWIDTH 40 0
BBX 33 33 5 -2
BITMAP
3800078000
3800078000
7800078000
7000078000
7000078000
7000078000
7000078300
700007FF00
701FFFFF00
E01FFFFC00
E01FFF8000
E000078000
E000038000
E000038000
E000038000
E000038000
E000038000
E000038000
E000038000
E000038000
E600038000
EE01FF8000
EC0FFFC000
EC1FFFF000
FC1C03F800
F83803FE00
F838039F00
F838038F80
F038078700
F03E0F8300
F01FFF0000
700FFE0000
7001F80000
ENDCHAR
STARTCHAR U+3070
ENCODING 12400
SWIDTH 1000 0
DWIDTH 40 0
BBX 35 35 4 -1
BITMAP
0000000380
0000001980
20000799C0
38000798C0
3800038CC0
7800038C60
7000038E00
7000038000
7000038000
7000038700
701FFFFF00
601FFFFF00
E01FFFF800
E000038000
E000038000
E000038000
E000038000
E000038000
E000038000
E000038000
E000038000
E000038000
E400038000
E600038000
EC07FF8000
EC0FFFE000
FC1E03F000
F83C03FC00
F83803BE00
F838038F80
F038078780
F03E0F8300
F01FFF0000
700FFE0000
7003F80000
ENDCHAR
STARTCHAR U+3071
ENCODING 12401
SWIDTH 1000 0
DWIDTH 40 0
BBX 35 36 4 -2
BITMAP
0000000300
0000000FC0
00000018E0
0000001860
3800079060
3800079860
78000398E0
7000038FC0
7000038700
7000038000
7000038700
701FFFFF00
701FFFFF00
E01FFFF800
E000038000
E000038000
E000038000
E000038000
E000038000
E000038000
E000038000
E000038000
E000038000
E400038000
E600038000
EC07FF8000
EC0FFFE000
FC1E03F000
F83C03FC00
F83803BE00
F838038F80
F038078780
F03E0F8300
F01FFF0000
700FFE0000
7003F80000
ENDCHAR
STARTCHAR U+3072
ENCODING 12402
SWIDTH 1000 0
DWIDTH 40 0
BBX 34 31 4 -2
BITMAP
001E03C000
0FFF01C000
FFFF01C000
FFFC01C000
707001C000
00F001E000
01E000E000
01C000F000
038000F000
078000F000
070000F800
0F0000FC00
0E0000DC00
1E0000DE00
1C0000CF00
1C0000C780
1C0000C7C0
3C0000C380
380001C100
380001C000
380001C000
380003C000
3C00038000
3C00078000
1C00070000
1E000F0000
1F003E0000
0FC0FC0000
07FFF80000
03FFF00000
00FFC00000
ENDCHAR
STARTCHAR U+3073
ENCODING 12403
SWIDTH 1000 0
DWIDTH 40 0
BBX 35 36 4 -2
BITMAP
0000000100
0000000180
0000003980
00000018C0
000E039CC0
01FE038C60
FFFE038E00
FFF8038400
FCF003C000
00E001C000
01C001C000
03C001E000
038001E000
070001E000
0F0001F000
0E0001F000
1E0001F800
1C0001FC00
1C0001DC00
380001DE00
380001CF00
380001C780
3800018300
3800018200
7800038000
7800038000
7800038000
7800070000
3800070000
38000F0000
3C001E0000
1E003C0000
1F80FC0000
0FFFF80000
03FFE00000
01FF800000
ENDCHAR
STARTCHAR U+3074
ENCODING 12404
SWIDTH 1000 0
DWIDTH 40 0
BBX 35 36 4 -3
BITMAP
0000000780
0000001FC0
00000018E0
0000001060
000E03B060
01FE039060
FFFE0398E0
FFF8039FC0
FCF003C780
00E001C000
01C001C000
03C001E000
038001E000
070001E000
0F0001F000
0E0001F000
1E0001F800
1C0001FC00
1C0001DC00
380001DE00
380001CF00
380001C780
3800018300
3800018200
7800038000
7800038000
7800038000
7800070000
3800070000
38000F0000
3C001E0000
1E003C0000
1F80FC0000
0FFFF80000
03FFE00000
01FF800000
ENDCHAR
STARTCHAR U+3075
ENCODING 12405
SWIDTH 1000 0
DWIDTH 40 0
BBX 36 33 2 -1
BITMAP
0002000000
0007C00000
0007E00000
0001F80000
00007E0000
00003F0000
00000F8000
0000078000
00001F0000
00003C0000
0000180000
0000000000
0000000000
0003000000
0007800000
0003C00000
0001E00400
0000F01E00
0000780E00
0000780F00
00403C0700
00E01E0380
01F00E03C0
03E00F01C0
07C00F01E0
0F800700E0
3F000700F0
7C000700F0
F8000F0070
70301F0060
401FFE0040
001FFC0000
001FF80000
ENDCHAR
STARTCHAR U+3076
ENCODING 12406
SWIDTH 1000 0
DWIDTH 40 0
BBX 37 33 1 -2
BITMAP
0002000000
0007800000
0007E00000
0003F800E0
0000FE04E0
00003F0C70
00000F8E30
0000078738
00000F0718
00003E0380
00001C0300
0000000000
0000000000
0003000000
0007800000
0003C00000
0001E00400
0000F01E00
0000780E00
0000780F00
00003C0780
00601E0380
00F00E03C0
03E00F01C0
07C00701E0
0F800700E0
3F000700F0
7E000700F0
F8000F0070
70101F0070
401FFE0000
001FFE0000
000FF80000
ENDCHAR
STARTCHAR U+3077
ENCODING 12407
SWIDTH 1000 0
DWIDTH 40 0
BBX 37 33 1 -2
BITMAP
0002000000
0007800000
0007E001C0
0001F803F0
0000FE0638
00003F0E18
00000F0C18
0000078C18
00000F0C18
00001E0638
00001C03F0
00000801E0
0000000000
0003000000
0007800000
0007C00000
0001E00400
0000E00C00
0000F01E00
0000780F00
00003C0700
00601E0780
00F00E03C0
01E00F01C0
07C00701E0
0F800700E0
1F000700F0
7E000700F0
F8000F0070
70101F0070
401FFE0000
001FFE0000
000FF80000
ENDCHAR
STARTCHAR U+3078
ENCODING 12408
SWIDTH 1000 0
DWIDTH 40 0
BBX 35 25 3 1
BITMAP
000E000000
001F000000
003F800000
007FC00000
00F9E00000
00F0F00000
01E0780000
03C07C0000
07803C0000
0F801E0000
0F000F0000
1E00078000
3C0007C000
7C0003E000
F80001F000
F00000F800
6000007C00
6000003E00
0000003F00
0000001F80
0000000FC0
00000007E0
00000003E0
00000001C0
0000000080
ENDCHAR
STARTCHAR U+3079
ENCODING 12409
SWIDTH 1000 0
DWIDTH 40 0
BBX 35 28 2 2
BITMAP
0000000600
0000000700
000000C380
000000E380
000600E1C0
000F8071C0
001FC030C0
003FE03800
0079F01800
00F0F80000
01F0780000
01E03C0000
03C01E0000
07800F0000
0F800F8000
0F0007C000
1E0003E000
3C0001E000
780000F000
F800007800
7000007C00
2000003E00
0000001F00
0000000F80
00000007C0
00000003E0
00000001E0
00000000C0
ENDCHAR
STARTCHAR U+307A
ENCODING 12410
SWIDTH 1000 0
DWIDTH 40 0
BBX 35 28 2 1
BITMAP
0000001E00
0000003F00
0000006380
000000E1C0
000600C0C0
000F80C0C0
001FC0C0C0
003FE06180
0079F07380
00F0F83F00
01F0781E00
01E03C0000
03C01E0000
07800F0000
0F800F8000
0F0007C000
1E0003E000
3C0001E000
780000F000
F800007800
7000007C00
2000003E00
0000001F00
0000000F80
00000007C0
00000003E0
00000001E0
00000000C0
ENDCHAR
STARTCHAR U+307B
ENCODING 12411
SWIDTH 1000 0
DWIDTH 40 0
BBX 33 33 5 -2
BITMAP
3800000000
3800000000
780FFFFE00
700FFFFE00
700FFFE000
7000070000
7000070000
7000070000
7000070000
E000070000
E000070000
E000070200
E01FFFFE00
E01FFFFE00
E01FFFFC00
E000070000
E000070000
E000070000
E000070000
E400070000
E600070000
EC03FF0000
EC0FFF8000
FC1F9FE000
F81C03F800
F838037C00
F838033F00
F838070F80
F03C070700
F01E0F0300
F01FFF0000
7007FE0000
7000F80000
ENDCHAR
STARTCHAR U+307C
ENCODING 12412
SWIDTH 1000 0
DWIDTH 40 0
BBX 36 36 3 -3
BITMAP
00000000C0
00000004C0
0000000C60
3C00000E60
3C00000670
3807FFFF30
3807FFFF00
3807FFC200
3800038000
3800038000
7000038000
7000038000
7000038000
7000038000
700FFFFF00
700FFFFF00
700FFFFF00
7000038000
7000038000
6000038000
E000038000
E000038000
E200038000
E700038000
E601FF8000
F607FFC000
7E0FCFF800
7C1E03FC00
7C1C03BF00
7C1C038F80
781C038780
781E078380
780FFF8000
7807FF0000
3801FC0000
2000000000
ENDCHAR
STARTCHAR U+307D
ENCODING 12413
SWIDTH 1000 0
DWIDTH 40 0
BBX 37 38 3 -3
BITMAP
00000001C0
00000007E0
0000000630
0000000C10
0000000C18
3C00000C18
3C00000E30
3807FFFFF0
3807FFFDC0
3807FFC000
3800038000
3800038000
7000038000
7000038000
7000038000
7000038000
700FFFFF00
700FFFFF00
700FFFFF00
7000038000
7000038000
6000038000
E000038000
E000038000
E200038000
E700038000
E601FF8000
F607FFC000
7E0FCFF800
7C1E03FC00
7C1C03BF00
7C1C038F80
781C038780
781E078380
780FFF8000
7807FF0000
3801FC0000
2000000000
ENDCHAR
STARTCHAR U+307E
ENCODING 12414
SWIDTH 1000 0
DWIDTH 40 0
BBX 27 35 7 -3
BITMAP
00070000
00070000
00070000
00070000
400700C0
7FFFFFC0
7FFFFFC0
1FFFFE00
00070000
00070000
00070000
00070000
00070000
C00703E0
FFFFFFE0
FFFFFFE0
0FFFFC00
00070000
00070000
00070000
00070000
00070000
00E70000
0FFF8000
3FFFE000
7C07FC00
7007FE00
E0071F80
E0070FC0
E00703E0
F00F01E0
781F00E0
3FFE0040
1FFC0000
03E00000
ENDCHAR
STARTCHAR U+307F
ENCODING 12415
SWIDTH 1000 0
DWIDTH 40 0
BBX 35 33 3 -3
BITMAP
0000300000
03FFFC0000
03FFF80000
03FFF80000
0000700000
0000F00000
0000E00000
0001E00000
0001C00000
0001C00800
0003800E00
0003800E00
0007000E00
00FFF00E00
03FFFE0E00
0FFFFFDC00
1F0E0FFC00
3C1C01FC00
781C007F00
7038001F80
E038003FE0
E078003BE0
E0700079C0
E0F0007040
E0E000F000
F3E001E000
7FC003E000
7F8007C000
1F000F8000
00001F0000
00007E0000
0000780000
0000300000
ENDCHAR
STARTCHAR U+3080
ENCODING 12416
SWIDTH 1000 0
DWIDTH 40 0
BBX 33 34 4 -2
BITMAP
01E0000000
00E0000000
00E0000000
00E0000000
00E0000000
00E3C0C000
FFFFC1F000
FFFFC0F800
FFF8007C00
00E0003E00
00E0001F00
00E0000F80
00E0000700
0FE0000200
1FE0000000
3FE0000000
70E0000000
7070000000
E070000000
E070000000
E060000000
E0E0002000
E0E0003800
F1E0003800
7FC0003800
3F80003800
1F80003800
0380003800
0380007800
03C000F800
01E003F000
01FFFFE000
00FFFFC000
003FFC0000
ENDCHAR
STARTCHAR U+3081
ENCODING 12417
SWIDTH 1000 0
DWIDTH 40 0
BBX 33 33 3 -1
BITMAP
00000F0000
00000E0000
02000E0000
0F000E0000
07000E0000
07000E0000
0701FF0000
038FFFC000
03BFFFF000
03FE3CF800
01F0383C00
07C0381E00
07C0780F00
0FE0700700
1EE0700700
3CF0E00380
3870E00380
3879E00380
7039C00380
703FC00380
701F800380
601F800380
E00F000780
E01F800780
701F800F00
703FC00F00
78F9801E00
7FF0003C00
3FE000FC00
1F8007F000
00007FE000
00003F8000
00003E0000
ENDCHAR
STARTCHAR U+3082
ENCODING 12418
SWIDTH 1000 0
DWIDTH 40 0
BBX 31 34 4 -2
BITMAP
003C0000
00380000
00380000
00380000
00380000
00380000
70380000
7FFFF800
7FFFF800
07FFF800
00700000
00700000
00700000
00700000
00700000
00700020
807000F0
F8E00070
FFFFF078
FFFFF03C
0FFFF01C
00E0001C
00E0001E
00E0001E
00E0000E
00E0001E
00E0001E
00E0001C
00F0003C
007800F8
007C03F0
003FFFE0
001FFFC0
0007FE00
ENDCHAR
STARTCHAR U+3083
ENCODING 12419
SWIDTH 1000 0
DWIDTH 40 0
BBX 29 29 5 -3
BITMAP
00060000
000F0000
00078000
0E03C000
1E018000
0F007F00
0703FFC0
078FFFE0
03FF80F0
03FC0070
07F00070
1FC00038
FFE00038
FCE00070
F0F00070
407081F0
0070FFE0
0038FFC0
00383E00
003C0000
001C0000
001C0000
001E0000
000E0000
000E0000
000F0000
00070000
00070000
00060000
ENDCHAR
STARTCHAR U+3084
ENCODING 12420
SWIDTH 1000 0
DWIDTH 40 0
BBX 34 34 3 -1
BITMAP
0003800000
0003C00000
0001E00000
0600F00000
1E00780000
0F00380000
070003E000
07803FFC00
0381FFFE00
03CFF81F00
01FFC00780
01FE000380
03F8000380
0FF00003C0
7FF0000380
FE78000380
F838000380
6038000780
003C381F00
001C3FFE00
001E3FFC00
000E0FF000
000E000000
000F000000
0007000000
0007000000
0007800000
0003800000
0003800000
0003C00000
0003C00000
0001C00000
0001E00000
0001E00000
ENDCHAR
STARTCHAR U+3085
ENCODING 12421
SWIDTH 1000 0
DWIDTH 40 0
BBX 26 29 8 -4
BITMAP
00030000
00070000
70070000
70070000
7007C000
E01FF800
E07FFE00
E1FB9F00
E3C38780
E7838380
EF0381C0
EE0381C0
FC0381C0
F80381C0
F80381C0
F00381C0
F18381C0
E18303C0
E1C70380
E1E70780
E0FF1F00
E07FFE00
701FFC00
001FE000
001C0000
003C0000
00780000
01F00000
00600000
ENDCHAR
STARTCHAR U+3086
ENCODING 12422
SWIDTH 1000 0
DWIDTH 40 0
BBX 31 35 5 -3
BITMAP
0001E000
0000E000
0000E000
6000E000
7800E000
7000E000
7001FE00
7007FFC0
701FFFE0
707E70F8
70F07078
61E0703C
E380701C
E700700E
E600700E
EE00700E
EC00700E
F800700E
F800700E
F840700E
F0E0701E
F0E0F01C
7070E03C
707CE078
703FE1F0
700FFFE0
7007FFC0
6003FE00
00038000
00078000
000F0000
001F0000
003E0000
007C0000
00180000
ENDCHAR
STARTCHAR U+3087
ENCODING 12423
SWIDTH 1000 0
DWIDTH 40 0
BBX 24 28 8 -3
BITMAP
003800
003800
003800
003800
003800
003800
00387E
003FFE
003FFE
003800
003800
003800
003800
003800
003800
003800
003800
0FFC00
3FFF00
7FFFC0
F01FF0
E01DF8
C01C7C
E03C1F
F03C0E
7FF806
3FF000
0FE000
ENDCHAR
STARTCHAR U+3088
ENCODING 12424
SWIDTH 1000 0
DWIDTH 40 0
BBX 29 34 5 -2
BITMAP
00078000
00078000
00070000
00070000
00070000
00070000
00070000
00070000
000703F0
0007FFF0
0007FFF0
0007FE00
00070000
00070000
00070000
00070000
00070000
00070000
00078000
00078000
00078000
01FF8000
1FFFC000
3FFFF800
7C03FE00
F003FF80
E0038FC0
E00383E0
E00781F8
F0078078
7C0F0030
7FFF0010
1FFE0000
07F80000
ENDCHAR
STARTCHAR U+3089
ENCODING 12425
SWIDTH 1000 0
DWIDTH 40 0
BBX 27 34 7 -2
BITMAP
02000000
03E00000
03FE0000
03FFFC00
003FFC00
0001F800
00000800
20000000
38000000
38000000
38000000
38000000
38000000
38000000
7007F000
703FFC00
70FFFF00
73F80F80
77C003C0
7F0001C0
7C0001E0
780000E0
F00000E0
F00000E0
200001E0
000001E0
000001C0
000003C0
00000780
00001F80
0000FF00
07FFFC00
07FFF000
03FF8000
ENDCHAR
STARTCHAR U+308A
ENCODING 12426
SWIDTH 1000 0
DWIDTH 40 0
BBX 24 34 8 -1
BITMAP
380000
380000
380F80
383FE0
387FF0
71F0F8
71C038
73803C
77001C
76001E
7E000E
7C000E
78000E
78000F
78000F
F0000F
F0000F
F0000F
F0000F
70000E
70000E
70000E
70001E
00001C
00003C
00003C
000078
0000F0
0003E0
000FC0
003F80
03FF00
07FC00
03E000
ENDCHAR
STARTCHAR U+308B
ENCODING 12427
SWIDTH 1000 0
DWIDTH 40 0
BBX 29 32 5 -1
BITMAP
07FFFF00
07FFFF80
07FFFF00
00001E00
00003C00
0000F800
0001E000
0003C000
00078000
000F0000
001E0000
003C0000
007FFC00
01FFFF00
03FFFFC0
07E003E0
0F8000F0
1E000070
7C000078
F8000038
F0000038
603F0038
00FFC038
00F7E038
01C0F078
01C07070
01C038F0
01C03BE0
01E03FC0
00FFFF80
007FFE00
000FF000
ENDCHAR
STARTCHAR U+308C
ENCODING 12428
SWIDTH 1000 0
DWIDTH 40 0
BBX 37 34 2 -2
BITMAP
0038000000
0038000000
0038000000
0038000000
0038000000
0038000000
003803E000
07FC1FF000
7FF87FF800
7FF8F87800
7871E03C00
0077C01C00
007F001C00
007E001C00
007C001C00
00F8003800
01F0003800
01F0003800
03F0003800
07F0003800
0770003800
0F70003800
1E70003800
3C70007800
3C70007000
7870007000
F070007000
7070007018
6070007838
0070007DF8
0070003FF0
0070003FE0
0070001F80
00F0000000
ENDCHAR
STARTCHAR U+308D
ENCODING 12429
SWIDTH 1000 0
DWIDTH 40 0
BBX 30 32 4 -2
BITMAP
00000100
07FFFF80
07FFFFC0
07FFCF80
00001E00
00003C00
00007800
0000F000
0001E000
00078000
000F0000
001E0000
003DFE00
007FFF80
00FFFFE0
03F801F0
07E000F8
0F800078
1F00003C
3E00003C
F800001C
7000001C
2000003C
0000003C
0000003C
00000078
000000F8
000003F0
00001FE0
007FFF80
007FFE00
007FF000
ENDCHAR
STARTCHAR U+308E
ENCODING 12430
SWIDTH 1000 0
DWIDTH 40 0
BBX 29 28 6 -1
BITMAP
00E00000
00E00000
00E00000
00E00000
00C00000
00C00000
1FE03800
7FE1FF00
7FC7FFC0
01DF03E0
01FC00F0
01F00070
03E00070
03C00038
07C00038
0F800038
0F800038
1D800078
39800070
79800070
71C000F0
E1C001E0
E1C007C0
41C01F80
01C1FF00
01C0FC00
01C0F000
01C00000
ENDCHAR
STARTCHAR U+308F
ENCODING 12431
SWIDTH 1000 0
DWIDTH 40 0
BBX 35 34 2 -2
BITMAP
0038000000
0038000000
0038000000
0038000000
0038000000
0038000000
0038000000
03FC000000
7FF807F000
7FF83FFC00
7C70FFFF00
0073F81F80
0077C00780
007F0003C0
007E0001C0
00F80001E0
01F00000E0
01F00000E0
03F00000E0
07F00000E0
07700000E0
0E700001E0
1E700001E0
3C700001C0
38700003C0
7870000780
F070000F80
6070003F00
207000FE00
00700FF800
00700FE000
00700F8000
00700C0000
00F0000000
ENDCHAR
STARTCHAR U+3090
ENCODING 12432
SWIDTH 1000 0
DWIDTH 40 0
BBX 32 33 4 -2
BITMAP
0000C000
0FFFE000
0FFFE000
0FF8E000
0001C000
0001C000
0001C000
00038000
0003F800
000FFF80
003FFFC0
00FF03F0
01F700F8
03C70078
078E003C
0F0E001C
1E0E000E
3C1C000E
381C000E
703C000E
7038000F
E038000F
E070000E
E071FC0E
C0F3FF0E
C0E3878E
E1C7039E
E3C701FC
FF8701F8
FF0780F8
7E03FFF0
0001FFC0
00007F00
ENDCHAR
STARTCHAR U+3091
ENCODING 12433
SWIDTH 1000 0
DWIDTH 40 0
BBX 34 33 3 -1
BITMAP
01FFFF8000
01FFFF8000
01FFFF0000
00007C0000
0000F80000
0003E00000
0007800000
001FFF0000
007FFFC000
00FE03E000
03F000F000
07C0007800
0F80003800
3E0FC03800
1C3FE03800
1870703800
0070707800
007070F000
0078F3F000
003FFFC000
001FFF0000
003CE00000
0078000000
00F0000000
01E003E000
03F80FF800
07FE1FFC00
1F1F381E00
1E07700F00
3803E00780
7003E00380
F001C003C0
E001C001C0
ENDCHAR
STARTCHAR U+3092
ENCODING 12434
SWIDTH 1000 0
DWIDTH 40 0
BBX 31 34 4 -1
BITMAP
001C0000
001C0000
001C0000
001C0000
00380F80
7FFFFF80
7FFFFF80
7FFFE000
00700000
00E00000
00E00000
01C00000
03C4001C
03FFC07E
07FFE1FE
0FC1E7F0
1F00FF80
3E007E00
7C01F800
F807F000
F00FF000
203E7000
007C7000
00707000
00F07000
00E07000
01E07000
01C00000
01E00000
01E00000
00F80038
007FFFF8
003FFFF8
0007FFE0
ENDCHAR
STARTCHAR U+3093
ENCODING 12435
SWIDTH 1000 0
DWIDTH 40 0
BBX 35 33 3 -1
BITMAP
0001800000
0001E00000
0003C00000
0007800000
0007800000
000F000000
000F000000
001E000000
001C000000
003C000000
0038000000
0078000000
0070000000
00F0000000
00E3C00000
01FFE00000
01FFF00000
03F8F00000
03E0780000
07C0380000
0780380080
0F003800E0
0F003801E0
1E003801C0
1E003803C0
1C00380380
3C00380780
3800380F00
7800381F00
78003E7E00
F0001FFC00
F0001FF800
300007E000
ENDCHAR
STARTCHAR U+3094
ENCODING 12436
SWIDTH 1000 0
DWIDTH 40 0
BBX 32 34 6 -2
BITMAP
04000000
07FC0000
0FFFFC00
03FFFC1C
0001F98C
0000018E
000001C6
000000C7
000000E3
00000060
003FE060
07FFF800
FFFFFC00
FFC03E00
FC000F00
E0000F00
00000780
00000780
00000380
00000380
00000780
00000780
00000780
00000700
00000F00
00001E00
00003E00
00007C00
0001F800
0007F000
003FC000
07FF8000
03FC0000
03E00000
ENDCHAR
STARTCHAR U+3095
ENCODING 12437
SWIDTH 1000 0
DWIDTH 40 0
BBX 29 28 7 -3
BITMAP
00C00000
00F00000
00E00000
00E00000
00E00700
00E00700
00E00780
3FFF8380
FFFFC1C0
FFFFE1C0
81C0E0E0
0380E0E0
0380E070
03806070
07806078
0700E038
0700E030
0F00E000
0E00E000
0E00E000
1E00E000
1C00E000
3C01C000
3801C000
7883C000
70FF8000
F0FF8000
203E0000
ENDCHAR
STARTCHAR U+3096
ENCODING 12438
SWIDTH 1000 0
DWIDTH 40 0
BBX 27 28 8 -4
BITMAP
70003800
70003800
70003800
70003800
E0003800
E0003800
E0003860
E07FFFE0
E07FFFE0
E07FFF00
C0003800
C0003800
C0003800
C0003800
C0003800
C8003800
CC003800
D8003800
D8003800
F8007000
F8007000
F000F000
F000E000
F001E000
7003C000
700F8000
600F0000
00060000
ENDCHAR
STARTCHAR U+3097
ENCODING 12439
SWIDTH 1000 0
DWIDTH 40 0
BBX 32 40 4 -5
BITMAP
FFFFFFFF
FFFFFFFF
F000000F
F000000F
D800001B
DC00003B
CE000073
C70000E3
C30000C3
C1800183
C1C00383
C0E00703
C0600603
C0300C03
C0381C03
C01C3803
C00E7003
C0066003
C003C003
C003C003
C003C003
C003C003
C0066003
C00E7003
C01C3803
C0381C03
C0300C03
C0600603
C0E00703
C1C00383
C1800183
C30000C3
C70000E3
CE000073
DC00003B
D800001B
F000000F
F000000F
FFFFFFFF
FFFFFFFF
ENDCHAR
STARTCHAR U+3098
ENCODING 12440
SWIDTH 1000 0
DWIDTH 40 0
BBX 32 40 4 -5
BITMAP
FFFFFFFF
FFFFFFFF
F000000F
F000000F
D800001B
DC00003B
CE000073
C70000E3
C30000C3
C1800183
C1C00383
C0E00703
C0600603
C0300C03
C0381C03
C01C3803
C00E7003
C0066003
C003C003
C003C003
C003C003
C003C003
C0066003
C00E7003
C01C3803
C0381C03
C0300C03
C0600603
C0E00703
C1C00383
C1800183
C30000C3
C70000E3
CE000073
DC00003B
D800001B
F000000F
F000000F
FFFFFFFF
FFFFFFFF
ENDCHAR
STARTCHAR U+3099
ENCODING 12441
SWIDTH 0 0
DWIDTH 0 0
BBX 7 8 -8 27
BITMAP
10
38
18
9C
8E
CE
C0
C0
ENDCHAR
STARTCHAR U+309A
ENCODING 12442
SWIDTH 0 0
DWIDTH 0 0
BBX 7 9 -8 26
BITMAP
F0
F8
0C
06
06
0C
8C
F8
F0
ENDCHAR
STARTCHAR U+309B
ENCODING 12443
SWIDTH 1000 0
DWIDTH 40 0
BBX 11 9 1 25
BITMAP
0200
0700
C300
E380
61C0
71C0
38E0
3800
1C00
ENDCHAR
STARTCHAR U+309C
ENCODING 12444
SWIDTH 1000 0
DWIDTH 40 0
BBX 9 9 1 24
BITMAP
1E00
7F00
E380
C180
C180
C180
E380
7F00
1E00
ENDCHAR
STARTCHAR U+309D
ENCODING 12445
SWIDTH 1000 0
DWIDTH 40 0
BBX 17 23 13 2
BITMAP
200000
700000
F80000
3C0000
1E0000
0F0000
078000
07C000
03E000
01F000
00F800
007C00
003C00
001E00
000F00
000F80
001F80
007F00
03FF00
0FF800
1FC000
1F0000
080000
ENDCHAR
STARTCHAR U+309E
ENCODING 12446
SWIDTH 1000 0
DWIDTH 40 0
BBX 20 28 12 2
BITMAP
000080
000180
0031C0
0030E0
0038E0
201C70
F01C60
F80E00
7C0C00
3E0000
1F0000
0F8000
078000
03C000
01E000
00F000
007800
007C00
003E00
001E00
000F00
001F00
00FF00
03FE00
1FF000
3FC000
1E0000
180000
ENDCHAR
STARTCHAR U+309F
ENCODING 12447
SWIDTH 1000 0
DWIDTH 40 0
BBX 31 37 3 -3
BITMAP
00003000
00003C00
00003C00
00003800
00007800
00007000
0000F000
0000F000
0000FE00
0001FFE0
0001FFFC
0003C3FE
0003803E
00078004
00070000
000F0000
000E0000
001E0000
001C7C00
003FFF00
003FFF80
007E07C0
00FC03C0
00F001C0
01E001C0
03C001C0
03C001C0
078001C0
0F0001C0
0F0003C0
1E000380
3C000780
7C200F00
F8783E00
707FFC00
003FF800
000FE000
ENDCHAR
STARTCHAR U+30A0
ENCODING 12448
SWIDTH 1000 0
DWIDTH 40 0
BBX 18 8 11 11
BITMAP
FFFFC0
000000
000000
000000
000000
000000
000000
FFFFC0
ENDCHAR
STARTCHAR U+30A1
ENCODING 12449
SWIDTH 1000 0
DWIDTH 40 0
BBX 27 26 7 -3
BITMAP
FFFFFFC0
FFFFFFE0
FFFFFFE0
000001C0
000003C0
00000780
001C0F00
001C0F00
001C1E00
001C7C00
001CF800
001C7000
001C0000
003C0000
00380000
00380000
00380000
00780000
00F00000
00F00000
01E00000
07C00000
0F800000
3F000000
1E000000
08000000
ENDCHAR
STARTCHAR U+30A2
ENCODING 12450
SWIDTH 1000 0
DWIDTH 40 0
BBX 32 31 5 -1
BITMAP
FFFFFFFE
FFFFFFFF
FFFFFFFF
0000001E
0000003C
0000003C
00000078
000700F0
000701E0
000703E0
000707C0
00070F80
00071F00
00070C00
00070000
00070000
000F0000
000F0000
000E0000
000E0000
001E0000
001C0000
003C0000
00780000
00F80000
01F00000
03E00000
07C00000
3F800000
1F000000
0C000000
ENDCHAR
STARTCHAR U+30A3
ENCODING 12451
SWIDTH 1000 0
DWIDTH 40 0
BBX 26 28 5 -4
BITMAP
00000100
00000380
000007C0
00000F80
00001F00
00003E00
00007C00
0001F800
0003E000
000FC000
003F8000
00FF8000
07FB8000
3FE38000
FF838000
7C038000
60038000
00038000
00038000
00038000
00038000
00038000
00038000
00038000
00038000
00038000
00038000
00038000
ENDCHAR
STARTCHAR U+30A4
ENCODING 12452
SWIDTH 1000 0
DWIDTH 40 0
BBX 30 33 4 -2
BITMAP
00000010
00000038
0000003C
000000FC
000001F0
000003E0
000007C0
00000F80
00003F00
00007C00
0001F800
0007F000
001FF000
007FF000
01FCF000
0FF0F000
7FC0F000
FF00F000
F800F000
6000F000
0000F000
0000F000
0000F000
0000F000
0000F000
0000F000
0000F000
0000F000
0000F000
0000F000
0000F000
0000F000
0000F000
ENDCHAR
STARTCHAR U+30A5
ENCODING 12453
SWIDTH 1000 0
DWIDTH 40 0
BBX 25 28 8 -3
BITMAP
00380000
00380000
00380000
00380000
00380000
FFFFFF00
FFFFFF80
FFFFFF80
E0000780
E0000780
E0000700
E0000700
E0000F00
E0000F00
E0000E00
E0001E00
00001E00
00003C00
00003C00
00007800
0000F000
0001F000
0007E000
000FC000
007F0000
03FE0000
03F80000
01E00000
ENDCHAR
STARTCHAR U+30A6
ENCODING 12454
SWIDTH 1000 0
DWIDTH 40 0
BBX 30 34 5 -1
BITMAP
00078000
00070000
00070000
00070000
00070000
00070000
00070000
FFFFFFF8
7FFFFFFC
7FFFFFFC
7000003C
70000038
70000038
70000078
70000078
70000078
70000070
700000F0
700000F0
F00000E0
000001E0
000003C0
000003C0
00000780
00000F80
00001F00
00003E00
0000FC00
0001F800
0007F000
003FC000
00FF8000
00FE0000
00700000
ENDCHAR
STARTCHAR U+30A7
ENCODING 12455
SWIDTH 1000 0
DWIDTH 40 0
BBX 28 21 6 0
BITMAP
3FFFFFC0
3FFFFFC0
3FFFFFC0
000F0000
000F0000
000F0000
000F0000
000F0000
000F0000
000F0000
000F0000
000F0000
000F0000
000F0000
000F0000
000F0000
000F0000
000F0000
FFFFFFF0
FFFFFFF0
FFFFFFF0
ENDCHAR
STARTCHAR U+30A8
ENCODING 12456
SWIDTH 1000 0
DWIDTH 40 0
BBX 34 26 3 2
BITMAP
1FFFFFFF00
1FFFFFFF00
1FFFFFFF00
0001E00000
0001E00000
0001E00000
0001E00000
0001E00000
0001E00000
0001E00000
0001E00000
0001E00000
0001E00000
0001E00000
0001E00000
0001E00000
0001E00000
0001E00000
0001E00000
0001E00000
0001E00000
0001E00000
0001E00000
FFFFFFFFC0
FFFFFFFFC0
FFFFFFFFC0
ENDCHAR
STARTCHAR U+30A9
ENCODING 12457
SWIDTH 1000 0
DWIDTH 40 0
BBX 27 27 7 -2
BITMAP
0000E000
0000E000
0000E000
0000E000
0000E000
0000E000
7FFFFFE0
7FFFFFE0
7FFFFFE0
0003E000
0003E000
0007E000
000FE000
001EE000
003CE000
0078E000
01F0E000
03E0E000
0FC0E000
1F00E000
7E00E000
FC00E000
7000E000
0000E000
003FE000
003FE000
003FC000
ENDCHAR
STARTCHAR U+30AA
ENCODING 12458
SWIDTH 1000 0
DWIDTH 40 0
BBX 32 34 4 -2
BITMAP
00001C00
00001C00
00001C00
00001C00
00001C00
00001C00
00001C00
00001C00
7FFFFFFF
7FFFFFFF
7FFFFFFF
00007C00
00007C00
0000FC00
0001FC00
0003DC00
00079C00
000F9C00
001F1C00
003E1C00
007C1C00
00F81C00
01F01C00
07E01C00
0F801C00
3F001C00
FE001C00
F8001E00
70001E00
40001E00
00001E00
000FFC00
000FFC00
000FF800
ENDCHAR
STARTCHAR U+30AB
ENCODING 12459
SWIDTH 1000 0
DWIDTH 40 0
BBX 29 34 5 -2
BITMAP
000E0000
000E0000
000E0000
000E0000
000E0000
000E0000
000E0000
000E0000
FFFFFFF0
FFFFFFF8
FFFFFFF8
001C0038
001C0038
001C0038
001C0038
001C0038
003C0038
00380078
00380078
00780070
00700070
00F00070
00F00070
01E00070
01E00070
03C00070
078000F0
0F8000E0
1F0000E0
3E0001E0
7C00FFE0
F800FFC0
7000FF80
20000000
ENDCHAR
STARTCHAR U+30AC
ENCODING 12460
SWIDTH 1000 0
DWIDTH 40 0
BBX 33 35 4 -1
BITMAP
0000000600
0000000700
000E00E300
000E007380
000E007180
000E003980
000E001800
000E001000
000E000000
FFFFFFF800
FFFFFFF800
FFFFFFF800
000E003800
001E003800
001C003800
001C003800
001C003800
001C003800
003C003800
0038003800
0038003800
0078007800
0070007800
00F0007000
00E0007000
01E0007000
03C0007000
07C0007000
0F8000F000
1F0000E000
3E0001E000
7C00FFE000
F800FFC000
7000FF8000
2000000000
ENDCHAR
STARTCHAR U+30AD
ENCODING 12461
SWIDTH 1000 0
DWIDTH 40 0
BBX 32 33 4 -1
BITMAP
001E0000
001E0000
000E0000
000E0000
000E0010
000E01F0
000F7FF0
003FFFF0
1FFFFF00
7FFF8000
7FE70000
78078000
00038000
00038000
00038000
00038002
0003C07F
0001DFFF
0007FFFF
03FFFFC0
FFFFF000
7FF9E000
7F00E000
4000E000
0000E000
0000E000
0000F000
0000F000
00007000
00007000
00007800
00007800
00007000
ENDCHAR
STARTCHAR U+30AE
ENCODING 12462
SWIDTH 1000 0
DWIDTH 40 0
BBX 34 36 4 -2
BITMAP
0000000600
0000000600
000000E700
000C006380
003C007180
001C0031C0
001C003800
001C001000
001E006000
000E1FE000
000FFFF000
01FFFFE000
FFFFF00000
FFFF000000
FF07000000
C007000000
0007000000
0007000000
0007800000
0003801E00
000387FE00
0003FFFE00
007FFFF800
3FFFFE0000
FFFFC00000
FFC1C00000
F001C00000
0001C00000
0001E00000
0001E00000
0000E00000
0000E00000
0000E00000
0000F00000
0000F00000
0000F00000
ENDCHAR
STARTCHAR U+30AF
ENCODING 12463
SWIDTH 1000 0
DWIDTH 40 0
BBX 31 34 4 -1
BITMAP
00070000
00078000
00078000
000F0000
000F0000
001E0000
001FFFFC
003FFFFE
007FFFFC
00F0003C
01F0003C
01E00038
07C00078
0F800078
1F0000F0
3E0000F0
FC0001E0
780001E0
200003C0
000003C0
00000780
00000F00
00001F00
00003E00
00007C00
0000F800
0001F000
0007E000
000FC000
003F0000
00FE0000
07F80000
07E00000
03800000
ENDCHAR
STARTCHAR U+30B0
ENCODING 12464
SWIDTH 1000 0
DWIDTH 40 0
BBX 35 37 3 -3
BITMAP
0000000100
0000000380
0000003180
00070039C0
00078038E0
000F001CE0
000E000C40
001E000E00
001C000000
003FFFF800
007FFFFC00
007FFFFC00
00F0003800
01E0007800
03C0007800
0780007000
0F8000F000
1F0000F000
7C0001E000
F80001E000
F00003C000
200003C000
0000078000
00000F0000
00001F0000
00001E0000
00003C0000
0000780000
0001F00000
0003E00000
0007C00000
001F800000
007F000000
01FC000000
0FF8000000
0FE0000000
0780000000
ENDCHAR
STARTCHAR U+30B1
ENCODING 12465
SWIDTH 1000 0
DWIDTH 40 0
BBX 34 34 3 -2
BITMAP
0030000000
0078000000
0078000000
0078000000
0070000000
00F0000000
00E0000000
00E0000000
01FFFFFFC0
01FFFFFFC0
03FFFFFFC0
07800E0000
07800E0000
0F001E0000
1E001E0000
3E001E0000
7C001C0000
F8001C0000
70003C0000
20003C0000
0000380000
0000780000
0000780000
0000F00000
0000F00000
0001E00000
0003E00000
0007C00000
000F800000
001F000000
003F000000
00FE000000
0078000000
0030000000
ENDCHAR
STARTCHAR U+30B2
ENCODING 12466
SWIDTH 1000 0
DWIDTH 40 0
BBX 36 36 2 -2
BITMAP
0000000180
00000009C0
00380038E0
003C001C60
0038000C70
0078000E30
0078000600
0070000400
00F0000000
00F0000000
01FFFFFFC0
01FFFFFFC0
03FFFFFFC0
03C00E0000
07800E0000
0F000E0000
1F000E0000
1E000E0000
3C001E0000
F8001E0000
78001C0000
10001C0000
00003C0000
0000380000
0000780000
0000780000
0000F00000
0001F00000
0001E00000
0003C00000
0007C00000
000F800000
003F000000
00FE000000
007C000000
0010000000
ENDCHAR
STARTCHAR U+30B3
ENCODING 12467
SWIDTH 1000 0
DWIDTH 40 0
BBX 28 28 6 0
BITMAP
7FFFFFF0
7FFFFFF0
7FFFFFF0
000000F0
000000F0
000000F0
000000F0
000000F0
000000F0
000000F0
000000F0
000000F0
000000F0
000000F0
000000F0
000000F0
000000F0
000000F0
000000F0
000000F0
000000F0
000000F0
FFFFFFF0
FFFFFFF0
FFFFFFF0
000000F0
000000F0
000000F0
ENDCHAR
STARTCHAR U+30B4
ENCODING 12468
SWIDTH 1000 0
DWIDTH 40 0
BBX 31 36 6 -1
BITMAP
00000038
0000031C
0000031C
0000038E
000001C6
000001C6
000000C0
00000000
FFFFFFE0
FFFFFFE0
FFFFFFE0
000000E0
000000E0
000000E0
000000E0
000000E0
000000E0
000000E0
000000E0
000000E0
000000E0
000000E0
000000E0
000000E0
000000E0
000000E0
000000E0
000000E0
000000E0
000000E0
000000E0
FFFFFFE0
FFFFFFE0
FFFFFFE0
000000E0
000000E0
ENDCHAR
STARTCHAR U+30B5
ENCODING 12469
SWIDTH 1000 0
DWIDTH 40 0
BBX 34 33 3 -1
BITMAP
00E003C000
00E001C000
00E001C000
00E001C000
00E001C000
00E001C000
00E001C000
00E001C000
FFFFFFFFC0
FFFFFFFFC0
FFFFFFFFC0
00E001C000
00E001C000
00E001C000
00E001C000
00E001C000
00E003C000
00E003C000
00E0038000
00E0038000
00E0038000
00E0078000
0000078000
0000070000
00000F0000
00000F0000
00001E0000
00003C0000
0000F80000
0001F80000
000FE00000
000FC00000
0007000000
ENDCHAR
STARTCHAR U+30B6
ENCODING 12470
SWIDTH 1000 0
DWIDTH 40 0
BBX 36 35 2 -3
BITMAP
0000000040
000001C4E0
00F001CC60
00E001C660
00E001C630
00E001C730
00E001C300
00E001C200
00E001C000
00E001C000
FFFFFFFFC0
FFFFFFFFC0
FFFFFFFFC0
00E001C000
00E001C000
00E001C000
00E001C000
00E001C000
00E001C000
00E001C000
00E003C000
00F003C000
00F0038000
0000038000
0000078000
0000078000
00000F0000
00000F0000
00001E0000
00003C0000
0000FC0000
0003F80000
000FE00000
0007C00000
0003000000
ENDCHAR
STARTCHAR U+30B7
ENCODING 12471
SWIDTH 1000 0
DWIDTH 40 0
BBX 32 32 4 -1
BITMAP
00800000
01C00000
03F00000
01F80000
007E0000
003F0000
000F0000
00070000
00000000
20000000
70000002
FC000007
7F000007
1F80000F
07E0001E
03C0003E
00C0007C
000000F8
000001F0
000003E0
000007C0
00001F80
00003F00
0000FC00
0001F800
0007F000
003FC000
01FF0000
1FFC0000
3FF00000
1F800000
0C000000
ENDCHAR
STARTCHAR U+30B8
ENCODING 12472
SWIDTH 1000 0
DWIDTH 40 0
BBX 33 33 4 -1
BITMAP
0000000C00
0100000E00
01C0018700
03E001C700
01F800C380
00FC00E180
003F007180
001F007000
0006002000
0000000000
4000000000
7000000600
F800000600
7E00000F00
3F80001F00
0FC0001E00
03C0003C00
0180007800
000000F000
000001E000
000003C000
00000F8000
00001F0000
00003E0000
0000FC0000
0003F80000
000FE00000
003FC00000
01FF000000
1FFC000000
3FF0000000
1F80000000
1800000000
ENDCHAR
STARTCHAR U+30B9
ENCODING 12473
SWIDTH 1000 0
DWIDTH 40 0
BBX 32 29 4 0
BITMAP
1FFFFFE0
1FFFFFF0
1FFFFFE0
000001E0
000001C0
000003C0
00000380
00000780
00000700
00000F00
00001E00
00001E00
00003C00
00007800
00007800
0000F800
0001FC00
0003FE00
00079F00
001F0F80
003E07C0
007C03E0
00F801F0
03F000F8
07E0007C
1F80003C
7F00001E
FC00001F
3800000E
ENDCHAR
STARTCHAR U+30BA
ENCODING 12474
SWIDTH 1000 0
DWIDTH 40 0
BBX 35 36 3 -1
BITMAP
0000000300
0000000380
0000007180
00000039C0
00000038E0
0000001CE0
0000000C00
0FFFFFE800
0FFFFFF000
0FFFFFE000
000001E000
000001C000
000003C000
000003C000
0000078000
0000078000
00000F0000
00000E0000
00001E0000
00003C0000
0000780000
0000780000
0000F80000
0001FC0000
0003DE0000
00078F0000
001F078000
003E03C000
007C01E000
01F801F000
03F000F800
0FE0007C00
3F80003E00
FF00001F00
7C00000F00
3000000400
ENDCHAR
STARTCHAR U+30BB
ENCODING 12475
SWIDTH 1000 0
DWIDTH 40 0
BBX 33 32 2 0
BITMAP
003C000000
003C000000
0038000000
0038000000
0038000000
0038000000
0038000300
0038003F80
003807FF80
0038FFFF80
003FFFCF00
07FFFC0E00
FFFF801E00
7FF8001C00
7E38003C00
4038007800
003800F000
003800E000
003801E000
003803C000
0038018000
0038000000
0038000000
0038000000
0038000000
0038000000
003C000000
003C000000
003E001F00
001FFFFF00
000FFFFF00
0003FFFC00
ENDCHAR
STARTCHAR U+30BC
ENCODING 12476
SWIDTH 1000 0
DWIDTH 40 0
BBX 36 36 2 -2
BITMAP
0000000080
00000001C0
00000018C0
00000018E0
0038001C60
0038000E70
0038000E20
0038000700
0038000000
0038000000
0038000600
003800FF80
00381FFF00
003BFFFF00
007FFF8E00
0FFFF01E00
FFFE001C00
FFF8003C00
FC38007800
803800F000
003800F000
003801E000
003803C000
0038078000
0038030000
0038000000
0038000000
0038000000
0038000000
0038000000
0038000000
0038000000
003E003E00
003FFFFE00
001FFFFE00
0003FFF800
ENDCHAR
STARTCHAR U+30BD
ENCODING 12477
SWIDTH 1000 0
DWIDTH 40 0
BBX 29 30 5 -1
BITMAP
00000078
70000078
F0000070
78000070
3C0000F0
3C0000F0
1E0000F0
1E0000E0
0F0001E0
0F8001E0
078001C0
07C003C0
038003C0
00000780
00000780
00000F00
00000F00
00001E00
00003C00
00007C00
0000F800
0001F000
0003E000
0007C000
000F8000
003F0000
00FE0000
03FC0000
03F00000
00C00000
ENDCHAR
STARTCHAR U+30BE
ENCODING 12478
SWIDTH 1000 0
DWIDTH 40 0
BBX 32 36 5 -2
BITMAP
0000000C
0000008E
0000018E
000001C7
000000E3
000000E3
20000070
E0000000
F00000F0
F00000F0
780000E0
3C0001E0
3C0001E0
1E0001E0
1E0001C0
0F0003C0
0F8003C0
07800380
07000780
00000700
00000F00
00001E00
00001E00
00003C00
00007C00
0000F800
0000F000
0001E000
0007C000
000FC000
001F0000
007E0000
01FC0000
07F80000
03E00000
01800000
ENDCHAR
STARTCHAR U+30BF
ENCODING 12479
SWIDTH 1000 0
DWIDTH 40 0
BBX 31 35 4 -2
BITMAP
00020000
00078000
00078000
00070000
000F0000
001E0000
001FFFF8
003FFFFE
007FFFFC
0078003C
00F0003C
01E00038
03C00078
07800078
0F8000F0
1F0C00F0
7C1E01E0
F81F81E0
7007C3C0
2003F3C0
0001FF80
00007F00
00003F00
00003F80
00007FE0
0000FBF0
0001F1F0
0003E060
000FC000
001F8000
007E0000
01FC0000
0FF00000
0FE00000
07800000
ENDCHAR
STARTCHAR U+30C0
ENCODING 12480
SWIDTH 1000 0
DWIDTH 40 0
BBX 35 37 3 -2
BITMAP
0000000100
0000000380
00060071C0
00078038C0
00070018E0
000F001C60
000E000E00
001E000C00
003FFFF800
003FFFFC00
007FFFFC00
00F0003C00
01F0003800
01E0007800
03C0007800
0780007000
0F0000F000
3E0C00E000
7C1E01E000
F81F81C000
F00FC3C000
0003F78000
0001FF8000
00007F0000
00003F0000
00003F8000
00007FC000
0000FBF000
0001F1E000
0003E0E000
000FC04000
003F000000
007E000000
01FC000000
0FF0000000
0FC0000000
0700000000
ENDCHAR
STARTCHAR U+30C1
ENCODING 12481
SWIDTH 1000 0
DWIDTH 40 0
BBX 33 32 4 -2
BITMAP
000001E000
00001FF000
003FFFF000
1FFFFF0000
1FFFE00000
1A01C00000
0001C00000
0001C00000
0001C00000
0001C00000
0001C00000
0001C00000
FFFFFFFF80
FFFFFFFF80
FFFFFFFF80
0001C00000
0001C00000
0001C00000
0003C00000
0003C00000
0003800000
0003800000
0007800000
000F000000
000F000000
001E000000
003E000000
007C000000
01F8000000
03F0000000
07E0000000
0180000000
ENDCHAR
STARTCHAR U+30C2
ENCODING 12482
SWIDTH 1000 0
DWIDTH 40 0
BBX 36 33 2 -2
BITMAP
0000007000
00000FF800
000FFFF800
0FFFFF8080
0FFFF001C0
0FC0E018C0
0000E01CE0
0000E01C60
0000E00E70
0000E00600
0000E00600
0000E00000
0000E00000
FFFFFFFF80
FFFFFFFF80
FFFFFFFF80
0000E00000
0000E00000
0000E00000
0001E00000
0001E00000
0001C00000
0003C00000
0003C00000
0007800000
0007800000
000F000000
001E000000
007C000000
00FC000000
03F0000000
01E0000000
00C0000000
ENDCHAR
STARTCHAR U+30C3
ENCODING 12483
SWIDTH 1000 0
DWIDTH 40 0
BBX 27 26 7 -3
BITMAP
00180000
00380100
203801E0
F03C01C0
701C01C0
701C03C0
381E03C0
380E0380
3C0E0780
1C080700
1C000700
18000F00
00001E00
00001E00
00003C00
00007800
0000F800
0001F000
0003E000
0007C000
001F8000
007F0000
01FC0000
07F80000
03E00000
01800000
ENDCHAR
STARTCHAR U+30C4
ENCODING 12484
SWIDTH 1000 0
DWIDTH 40 0
BBX 32 31 4 -1
BITMAP
00040000
001E0000
000E000F
F00F000F
F007000E
7007000E
7807801E
3803801E
3C03801C
3C03C03C
1C01C03C
1E000038
0E000078
0E000070
000000F0
000000E0
000001E0
000003C0
000007C0
00000780
00000F00
00001E00
00007C00
0000F800
0001F000
0007E000
001FC000
007F8000
01FE0000
01F80000
00E00000
ENDCHAR
STARTCHAR U+30C5
ENCODING 12485
SWIDTH 1000 0
DWIDTH 40 0
BBX 35 36 3 -2
BITMAP
0000000100
0000002380
00000071C0
00000031C0
00000038E0
0006001C60
000E001C00
000F000000
F00F000000
7007000F00
7807800E00
7803800E00
3803801E00
3C03C01E00
1C01C01C00
1E01C03C00
0E01003C00
0F00007800
0F00007800
000000F000
000000F000
000001E000
000001E000
000003C000
0000078000
00000F0000
00001F0000
00003E0000
00007C0000
0001F80000
0003F00000
000FC00000
003F800000
01FE000000
01FC000000
00F0000000
ENDCHAR
STARTCHAR U+30C6
ENCODING 12486
SWIDTH 1000 0
DWIDTH 40 0
BBX 33 32 4 -2
BITMAP
07FFFFF000
07FFFFF000
07FFFFF000
0000000000
0000000000
0000000000
0000000000
0000000000
0000000000
0000000000
FFFFFFFF80
FFFFFFFF80
FFFFFFFF80
0001E00000
0001E00000
0001C00000
0001C00000
0001C00000
0001C00000
0003C00000
0003C00000
0003800000
0007800000
0007800000
000F000000
001E000000
003E000000
007C000000
01F8000000
03F0000000
01C0000000
0080000000
ENDCHAR
STARTCHAR U+30C7
ENCODING 12487
SWIDTH 1000 0
DWIDTH 40 0
BBX 36 37 3 -2
BITMAP
0000000180
00000001C0
00000038E0
0000001CE0
0000000C70
07FFFFCE30
07FFFFC600
07FFFFC600
0000000000
0000000000
0000000000
0000000000
0000000000
0000000000
0000000000
FFFFFFFF80
FFFFFFFF80
FFFFFFFF80
0000E00000
0000E00000
0000E00000
0000E00000
0001E00000
0001E00000
0001C00000
0001C00000
0003C00000
0003C00000
0007800000
0007800000
000F000000
001E000000
003E000000
00FC000000
03F0000000
01E0000000
00C0000000
ENDCHAR
STARTCHAR U+30C8
ENCODING 12488
SWIDTH 1000 0
DWIDTH 40 0
BBX 21 32 13 -1
BITMAP
F00000
F00000
F00000
F00000
F00000
F00000
F00000
F00000
F00000
F00000
F00000
FC0000
FF8000
FFF000
FFFE00
F1FF80
F03FE0
F007F8
F001F0
F00070
F00010
F00000
F00000
F00000
F00000
F00000
F00000
F00000
F00000
F00000
F00000
F00000
ENDCHAR
STARTCHAR U+30C9
ENCODING 12489
SWIDTH 1000 0
DWIDTH 40 0
BBX 23 32 12 -2
BITMAP
F00070
F00030
F00E38
F0071C
F0071C
F0038E
F00180
F001C0
F00000
F00000
F00000
FC0000
FF8000
FFF000
F7FE00
F0FF80
F03FE0
F007F0
F001F0
F00070
F00000
F00000
F00000
F00000
F00000
F00000
F00000
F00000
F00000
F00000
F00000
F00000
ENDCHAR
STARTCHAR U+30CA
ENCODING 12490
SWIDTH 1000 0
DWIDTH 40 0
BBX 33 33 4 -1
BITMAP
0001E00000
0001E00000
0001E00000
0001E00000
0001E00000
0001E00000
0001E00000
0001E00000
0001E00000
0001E00000
FFFFFFFF80
FFFFFFFF80
FFFFFFFF80
0001E00000
0001E00000
0001E00000
0001E00000
0001C00000
0001C00000
0001C00000
0003C00000
0003C00000
0007800000
0007800000
000F000000
000F000000
001E000000
003C000000
00FC000000
01F8000000
07F0000000
07C0000000
0180000000
ENDCHAR
STARTCHAR U+30CB
ENCODING 12491
SWIDTH 1000 0
DWIDTH 40 0
BBX 31 24 4 3
BITMAP
1FFFFFF0
1FFFFFF0
1FFFFFF0
00000000
00000000
00000000
00000000
00000000
00000000
00000000
00000000
00000000
00000000
00000000
00000000
00000000
00000000
00000000
00000000
00000000
E0000006
FFFFFFFE
FFFFFFFE
FFFFFFFE
ENDCHAR
STARTCHAR U+30CC
ENCODING 12492
SWIDTH 1000 0
DWIDTH 40 0
BBX 27 30 6 -1
BITMAP
7FFFFFC0
7FFFFFE0
7FFFFFC0
000003C0
00000380
00000780
00000780
00000700
00000F00
06000F00
0F801E00
0FC01E00
03F03C00
00F83C00
007E7800
001FF000
000FF000
0007E000
0003F000
0007FC00
000FFE00
001F1F00
007E0F80
00FC07C0
03F003E0
0FE001C0
3FC00080
FF000000
FC000000
70000000
ENDCHAR
STARTCHAR U+30CD
ENCODING 12493
SWIDTH 1000 0
DWIDTH 40 0
BBX 34 34 3 -1
BITMAP
0001E00000
0000E00000
0000E00000
0000E00000
0000E00000
0000E00000
1FFFFFF800
1FFFFFFC00
1FFFFFF800
000000F000
000001F000
000003E000
000007C000
00000F8000
00001F0000
00003E0000
0000FC0000
0001F00000
0007E08000
001FE1C000
007FE1F000
01FEE0FC00
0FF8E07E00
FFC0E01F80
7F00E00FC0
7800E00380
0000E00100
0000E00000
0000E00000
0000E00000
0000E00000
0001E00000
0001E00000
0001E00000
ENDCHAR
STARTCHAR U+30CE
ENCODING 12494
SWIDTH 1000 0
DWIDTH 40 0
BBX 26 30 6 0
BITMAP
000003C0
000003C0
00000380
00000780
00000780
00000700
00000F00
00000E00
00001E00
00001E00
00003C00
00003C00
00007800
00007800
0000F000
0001F000
0001E000
0003C000
0007C000
000F8000
001F0000
003E0000
00FC0000
01F80000
07F00000
1FC00000
7F800000
FE000000
7C000000
30000000
ENDCHAR
STARTCHAR U+30CF
ENCODING 12495
SWIDTH 1000 0
DWIDTH 40 0
BBX 34 27 3 0
BITMAP
00380F0000
0038070000
0038078000
0078038000
007803C000
007001C000
007001E000
007001E000
00F000F000
00E000F000
00E0007000
01E0007800
01E0003800
01C0003C00
03C0003C00
03C0001C00
0780001E00
0780001E00
0F00000F00
0F00000F00
1E00000F00
1E00000780
3C00000780
7C00000780
78000003C0
F0000003C0
3000000300
ENDCHAR
STARTCHAR U+30D0
ENCODING 12496
SWIDTH 1000 0
DWIDTH 40 0
BBX 35 33 3 0
BITMAP
0000000100
0000000380
00000071C0
00000038C0
00000018E0
0000001C60
00380E0E00
00780F0C00
0078070000
0070078000
0070038000
007003C000
00F001C000
00F001E000
00E001E000
00E000F000
01E000F000
01C0007000
01C0007800
03C0007800
0380003C00
0780003C00
0780001C00
0F00001E00
0F00001E00
1E00000E00
1E00000F00
3C00000F00
3C00000700
7800000780
F800000780
F000000380
2000000200
ENDCHAR
STARTCHAR U+30D1
ENCODING 12497
SWIDTH 1000 0
DWIDTH 40 0
BBX 35 34 3 -1
BITMAP
0000000700
0000000FC0
0000001CE0
0000001860
0000003020
0000003020
0020061860
00780F18E0
00780F0FC0
0078078780
0070078000
007003C000
00F003C000
00F001C000
00E001E000
00E000E000
01E000F000
01E000F000
01C0007800
03C0007800
03C0003800
0380003C00
0780003C00
0780001C00
0F00001E00
0F00001E00
1E00000F00
1E00000F00
3C00000F00
3C00000780
7800000780
F800000780
F000000380
2000000200
ENDCHAR
STARTCHAR U+30D2
ENCODING 12498
SWIDTH 1000 0
DWIDTH 40 0
BBX 25 32 9 -1
BITMAP
F0000000
F0000000
F0000000
F0000000
F0000000
F0000000
F0000600
F0001E00
F0007F00
F003FE00
F00FF800
F0FFC000
F7FF0000
FFF80000
FFC00000
FC000000
F0000000
F0000000
F0000000
F0000000
F0000000
F0000000
F0000000
F0000000
F0000000
F0000000
F0000000
F0000000
7E003F80
7FFFFF80
3FFFFF80
07FFFE00
ENDCHAR
STARTCHAR U+30D3
ENCODING 12499
SWIDTH 1000 0
DWIDTH 40 0
BBX 29 34 8 0
BITMAP
000000C0
000000E0
00001C60
E0000C70
E0000E30
E0000738
E0000700
E0000200
E0000000
E0000C00
E0003E00
E001FE00
E00FF800
E07FE000
E3FF0000
FFFC0000
FFE00000
FE000000
F0000000
E0000000
E0000000
E0000000
E0000000
E0000000
E0000000
E0000000
E0000000
E0000000
E0000000
E0000000
F8000F80
FFFFFF80
7FFFFF80
1FFFFF00
ENDCHAR
STARTCHAR U+30D4
ENCODING 12500
SWIDTH 1000 0
DWIDTH 40 0
BBX 29 34 8 -1
BITMAP
000001E0
000003F0
00000738
E0000618
E0000408
E0000C08
E0000618
E0000638
E00003F0
E00005E0
E0001C00
E000FE00
E007FC00
E03FF000
E1FF8000
FFFC0000
FFE00000
FF000000
F8000000
E0000000
E0000000
E0000000
E0000000
E0000000
E0000000
E0000000
E0000000
E0000000
E0000000
E0000000
F8000F80
FFFFFF80
7FFFFF80
1FFFFF00
ENDCHAR
STARTCHAR U+30D5
ENCODING 12501
SWIDTH 1000 0
DWIDTH 40 0
BBX 28 29 6 0
BITMAP
FFFFFFE0
FFFFFFF0
FFFFFFF0
000000F0
000000F0
000000E0
000000E0
000001E0
000001E0
000001C0
000003C0
00000380
00000780
00000780
00000F00
00000F00
00001E00
00003E00
00007C00
0000F800
0001F000
0003E000
0007C000
001F8000
007F0000
03FE0000
1FF80000
0FE00000
07800000
ENDCHAR
STARTCHAR U+30D6
ENCODING 12502
SWIDTH 1000 0
DWIDTH 40 0
BBX 33 36 5 -2
BITMAP
0000000E00
000001C700
000000C700
000000E380
0000006180
0000007180
0000003000
FFFFFFF000
FFFFFFF800
FFFFFFF000
0000007000
000000F000
000000F000
000000E000
000000E000
000001E000
000001E000
000001C000
000003C000
0000038000
0000078000
0000070000
00000F0000
00001E0000
00003E0000
00007C0000
0000F80000
0001F00000
0003E00000
000FC00000
001F800000
00FF000000
03FC000000
0FF8000000
07E0000000
0300000000
ENDCHAR
STARTCHAR U+30D7
ENCODING 12503
SWIDTH 1000 0
DWIDTH 40 0
BBX 34 36 5 -2
BITMAP
0000000E00
0000001F80
00000031C0
00000030C0
00000060C0
00000060C0
00000070C0
FFFFFFF1C0
FFFFFFFF80
FFFFFFFF00
0000007000
000000F000
000000F000
000000E000
000000E000
000001E000
000001E000
000001C000
000003C000
0000038000
0000078000
0000078000
00000F0000
00001E0000
00003E0000
00007C0000
0000F80000
0001F00000
0003E00000
000FC00000
001F800000
00FF000000
03FC000000
0FF8000000
07E0000000
0300000000
ENDCHAR
STARTCHAR U+30D8
ENCODING 12504
SWIDTH 1000 0
DWIDTH 40 0
BBX 35 23 3 2
BITMAP
000E000000
001F800000
003FC00000
007FE00000
00F1F00000
01F0F80000
01E07C0000
03C03E0000
07801F0000
0F000F0000
1F00078000
3E0003C000
7C0001E000
F80001F000
F80000F800
7000007C00
2000003E00
0000001F00
0000000F80
00000007C0
00000007E0
00000003C0
0000000180
ENDCHAR
STARTCHAR U+30D9
ENCODING 12505
SWIDTH 1000 0
DWIDTH 40 0
BBX 35 28 2 2
BITMAP
0000000600
0000000700
000000C380
000000E380
00070061C0
000F8070C0
001FC038C0
003FE03800
0079F01800
00F0780000
01F07C0000
01E03E0000
03C01F0000
07800F8000
0F8007C000
1F0003E000
3E0001F000
7C0000F000
FC00007800
7800007C00
3000003E00
0000001F00
0000000F80
00000007C0
00000003E0
00000003E0
00000001E0
00000000C0
ENDCHAR
STARTCHAR U+30DA
ENCODING 12506
SWIDTH 1000 0
DWIDTH 40 0
BBX 35 28 2 1
BITMAP
0000001E00
0000003F80
0000006180
000000E0C0
000700C0C0
000F80C0C0
001FC0E0C0
003FE06180
0079F03F80
00F0781E00
01F07C0000
01E03E0000
03C01F0000
07800F8000
0F8007C000
1F0003E000
3E0001F000
7C0000F000
FC00007800
7800007C00
3000003E00
0000001F00
0000000F80
00000007C0
00000003E0
00000003E0
00000001E0
00000000C0
ENDCHAR
STARTCHAR U+30DB
ENCODING 12507
SWIDTH 1000 0
DWIDTH 40 0
BBX 34 33 3 -1
BITMAP
0000E00000
0000E00000
0000E00000
0000E00000
0000E00000
0000E00000
0000E00000
7FFFFFFF80
7FFFFFFF80
7FFFFFFF80
0000E00000
0000E00000
0000E00000
0000E00000
0000E00000
0080E03000
01E0E07800
03C0E07800
03C0E03C00
0780E01E00
0700E01E00
0F00E00F00
1E00E00700
3C00E00780
7800E003C0
F800E003C0
7000E00180
0000E00000
0000E00000
0000E00000
003FE00000
003FE00000
003FC00000
ENDCHAR
STARTCHAR U+30DC
ENCODING 12508
SWIDTH 1000 0
DWIDTH 40 0
BBX 35 35 3 -1
BITMAP
0000000100
0000002380
0001E07180
0001C039C0
0001C038E0
0001C01CE0
0001C00C00
0001C00000
0001C00000
7FFFFFFF00
7FFFFFFF00
7FFFFFFF00
0001C00000
0001C00000
0001C00000
0001C00000
0001C00000
0101C02000
03C1C0F000
0381C07000
0781C07800
0F01C03C00
0E01C01C00
1E01C01E00
3C01C00F00
7801C00F00
7801C00780
F001C00380
6001C00300
0001C00000
0001C00000
0001C00000
007FC00000
007FC00000
007F800000
ENDCHAR
STARTCHAR U+30DD
ENCODING 12509
SWIDTH 1000 0
DWIDTH 40 0
BBX 34 36 3 -2
BITMAP
0000000F00
0000003F80
00000031C0
0001E060C0
0001C060C0
0001C060C0
0001C031C0
0001C01F80
0001C00E00
0001C00000
7FFFFFFF00
7FFFFFFF00
7FFFFFFF00
0001C00000
0001C00000
0001C00000
0001C00000
0001C00000
0101C02000
03C1C0F000
0381C07000
0781C07800
0F01C03C00
0E01C01C00
1E01C01E00
3C01C00F00
7801C00F00
7801C00780
F001C00380
6001C00300
0001C00000
0001C00000
0001C00000
007FC00000
007FC00000
007F800000
ENDCHAR
STARTCHAR U+30DE
ENCODING 12510
SWIDTH 1000 0
DWIDTH 40 0
BBX 33 29 4 -1
BITMAP
FFFFFFFF00
FFFFFFFF80
FFFFFFFF00
0000001F00
0000001E00
0000003C00
0000007C00
0000007800
000000F000
000001F000
000003E000
018007C000
03C00F8000
03E01F0000
01F03E0000
00F87C0000
007CF80000
003FF00000
000FE00000
0007C00000
0003E00000
0001E00000
0000F00000
0000F80000
00007C0000
00003E0000
00001F0000
00000F0000
0000060000
ENDCHAR
STARTCHAR U+30DF
ENCODING 12511
SWIDTH 1000 0
DWIDTH 40 0
BBX 25 31 7 -1
BITMAP
0F000000
0FF80000
0FFFC000
01FFFC00
000FFF80
0000FF80
00000F80
00000000
00000000
00000000
00000000
3F000000
3FF00000
7FFF0000
01FFF000
001FFE00
0001FC00
00001C00
00000000
00000000
00000000
00000000
C0000000
FE000000
FFF00000
7FFF0000
03FFE000
003FFC00
0003FF00
00003F00
00000600
ENDCHAR
STARTCHAR U+30E0
ENCODING 12512
SWIDTH 1000 0
DWIDTH 40 0
BBX 34 33 3 -2
BITMAP
0003000000
0003C00000
0007800000
0007800000
0007800000
0007000000
000F000000
000F000000
000E000000
001E000000
001E000000
001C000000
001C000000
003C000000
0038000000
003800C000
007801E000
007001E000
007000F000
00F0007000
00E0007800
00E0003C00
01E0003C00
01C0001E00
01C0001E00
03C01FFF00
03FFFFFF00
FFFFFFFF80
FFFFF80780
FFF00003C0
C0000003C0
00000003C0
0000000100
ENDCHAR
STARTCHAR U+30E1
ENCODING 12513
SWIDTH 1000 0
DWIDTH 40 0
BBX 30 32 5 -2
BITMAP
00000080
000001E0
000001E0
000001C0
000003C0
000003C0
02000780
07800780
0FC00700
03E00F00
01F80E00
007C1E00
003F3C00
001FBC00
0007F800
0003F000
0001F800
0001FC00
0003FE00
00079F00
000F0F80
001F07C0
003E03E0
007C01F0
01F800F8
03E0007C
0FC00038
1F800010
7E000000
FC000000
70000000
20000000
ENDCHAR
STARTCHAR U+30E2
ENCODING 12514
SWIDTH 1000 0
DWIDTH 40 0
BBX 31 29 5 0
BITMAP
3FFFFFF0
3FFFFFF0
3FFFFFF0
001C0000
001C0000
001C0000
001C0000
001C0000
001C0000
001C0000
001C0000
FFFFFFFE
FFFFFFFE
FFFFFFFE
001C0000
001C0000
001C0000
001C0000
001C0000
001C0000
001C0000
001C0000
001C0000
001E0000
001E0000
001F0004
000FFFFC
0007FFFC
0003FFFC
ENDCHAR
STARTCHAR U+30E3
ENCODING 12515
SWIDTH 1000 0
DWIDTH 40 0
BBX 29 28 6 -3
BITMAP
01800000
03C00000
01C00000
01C00000
01E00060
00E00FF8
00E1FFF0
00FFFFE0
0FFFE1E0
FFFC01C0
FFF00380
70700780
00780F00
00381E00
00383C00
003C7C00
001C1800
001C0000
001C0000
001E0000
000E0000
000E0000
000F0000
000F0000
00070000
00070000
00078000
00070000
ENDCHAR
STARTCHAR U+30E4
ENCODING 12516
SWIDTH 1000 0
DWIDTH 40 0
BBX 33 34 3 -2
BITMAP
0020000000
01E0000000
01E0000000
00E0000000
00E0000000
00F0000100
0070001F80
007003FF80
00787FFF80
007FFFE700
03FFFC0F00
FFFF801E00
FFFC001C00
FE3C003C00
C01C007800
001E00F000
001E01E000
000E03C000
000E07C000
000F078000
000F010000
0007000000
0007000000
0007800000
0007800000
0003800000
0003C00000
0003C00000
0001C00000
0001C00000
0001E00000
0001E00000
0000E00000
0000C00000
ENDCHAR
STARTCHAR U+30E5
ENCODING 12517
SWIDTH 1000 0
DWIDTH 40 0
BBX 28 20 6 1
BITMAP
0FFFFE00
0FFFFE00
0FFFFE00
00000E00
00001E00
00001E00
00001E00
00001C00
00001C00
00001C00
00001C00
00001C00
00003C00
00003C00
00003800
00003800
00003800
FFFFFFF0
FFFFFFF0
FFFFFFF0
ENDCHAR
STARTCHAR U+30E6
ENCODING 12518
SWIDTH 1000 0
DWIDTH 40 0
BBX 34 25 3 3
BITMAP
07FFFFE000
07FFFFF000
07FFFFF000
000000F000
000000F000
000000F000
000000E000
000000E000
000000E000
000001E000
000001E000
000001E000
000001E000
000001C000
000001C000
000001C000
000003C000
000003C000
000003C000
000003C000
0000038000
0000038000
FFFFFFFFC0
FFFFFFFFC0
FFFFFFFFC0
ENDCHAR
STARTCHAR U+30E7
ENCODING 12519
SWIDTH 1000 0
DWIDTH 40 0
BBX 23 25 8 -3
BITMAP
7FFFFE
7FFFFE
7FFFFE
00000E
00000E
00000E
00000E
00000E
00000E
00000E
3FFFFE
3FFFFE
3FFFFE
00000E
00000E
00000E
00000E
00000E
00000E
00000E
FFFFFE
FFFFFE
FFFFFE
00000E
00000E
ENDCHAR
STARTCHAR U+30E8
ENCODING 12520
SWIDTH 1000 0
DWIDTH 40 0
BBX 27 29 6 0
BITMAP
7FFFFFE0
7FFFFFE0
7FFFFFE0
000000E0
000000E0
000000E0
000000E0
000000E0
000000E0
000000E0
000000E0
000000E0
3FFFFFE0
3FFFFFE0
3FFFFFE0
000000E0
000000E0
000000E0
000000E0
000000E0
000000E0
000000E0
000000E0
000000E0
FFFFFFE0
FFFFFFE0
FFFFFFE0
000000E0
000000E0
ENDCHAR
STARTCHAR U+30E9
ENCODING 12521
SWIDTH 1000 0
DWIDTH 40 0
BBX 29 32 6 -1
BITMAP
1FFFFFC0
1FFFFFC0
1FFFFFC0
00000000
00000000
00000000
00000000
00000000
00000000
00000000
FFFFFFF0
FFFFFFF8
FFFFFFF8
00000070
000000F0
000000F0
000000E0
000001E0
000001C0
000003C0
00000780
00000F80
00001F00
00003E00
00007C00
0000F800
0003F000
000FE000
007F8000
03FF0000
01FC0000
00E00000
ENDCHAR
STARTCHAR U+30EA
ENCODING 12522
SWIDTH 1000 0
DWIDTH 40 0
BBX 22 32 9 -2
BITMAP
E0003C
E0003C
E0003C
E0003C
E0003C
E0003C
E0003C
E0003C
E0003C
E0003C
E0003C
E0003C
E0003C
E0003C
E0003C
E0003C
E0003C
E00038
E00038
E00038
000078
000078
0000F0
0001F0
0001E0
0007C0
000F80
003F00
00FE00
03FC00
01F000
00C000
ENDCHAR
STARTCHAR U+30EB
ENCODING 12523
SWIDTH 1000 0
DWIDTH 40 0
BBX 35 31 3 -1
BITMAP
00E03C0000
00E03C0000
00E03C0000
00E03C0000
00E03C0000
00E03C0000
00E03C0000
00E03C0000
00E03C0000
00E03C0000
00E03C0000
00E03C0000
00E03C0000
01E03C0000
01E03C0000
01C03C0000
01C03C0000
01C03C00C0
01C03C01E0
03C03C03E0
03C03C07C0
03803C0F80
07803C1F00
07003C3E00
0F003CFC00
1E003DF800
3E003FE000
7C003FC000
F8003F0000
F0003E0000
2000180000
ENDCHAR
STARTCHAR U+30EC
ENCODING 12524
SWIDTH 1000 0
DWIDTH 40 0
BBX 27 30 9 0
BITMAP
F0000000
F0000000
F0000000
F0000000
F0000000
F0000000
F0000000
F0000000
F0000000
F0000000
F0000000
F0000000
F0000040
F00000C0
F00001E0
F00003E0
F00007C0
F0000F80
F0001F00
F0007E00
F000FC00
F003F000
F00FE000
F03F8000
F0FF0000
F7FC0000
FFF00000
FF800000
FC000000
20000000
ENDCHAR
STARTCHAR U+30ED
ENCODING 12525
SWIDTH 1000 0
DWIDTH 40 0
BBX 28 28 6 0
BITMAP
FFFFFFF0
FFFFFFF0
FFFFFFF0
E0000070
E0000070
E0000070
E0000070
E0000070
E0000070
E0000070
E0000070
E0000070
E0000070
E0000070
E0000070
E0000070
E0000070
E0000070
E0000070
E0000070
E0000070
E0000070
FFFFFFF0
FFFFFFF0
FFFFFFF0
E0000070
E0000070
E0000070
ENDCHAR
STARTCHAR U+30EE
ENCODING 12526
SWIDTH 1000 0
DWIDTH 40 0
BBX 25 25 8 -3
BITMAP
FFFFFF00
FFFFFF80
FFFFFF80
E0000700
E0000700
E0000700
E0000F00
E0000F00
E0000E00
E0000E00
E0001E00
00001E00
00003C00
00003C00
00007800
0000F800
0001F000
0003E000
0007C000
000F8000
003F0000
01FE0000
03F80000
01E00000
00800000
ENDCHAR
STARTCHAR U+30EF
ENCODING 12527
SWIDTH 1000 0
DWIDTH 40 0
BBX 30 30 5 -1
BITMAP
FFFFFFF8
FFFFFFFC
FFFFFFFC
F0000038
F0000038
F0000038
F0000078
F0000078
F0000078
F0000070
F0000070
F00000F0
F00000F0
F00000E0
000001E0
000001E0
000003C0
000003C0
00000780
00000F00
00001F00
00003E00
00007C00
0001F800
0003F000
000FE000
007F8000
01FF0000
00FC0000
00600000
ENDCHAR
STARTCHAR U+30F0
ENCODING 12528
SWIDTH 1000 0
DWIDTH 40 0
BBX 33 33 4 -1
BITMAP
0000070000
0000070000
0000070000
0000070000
0000070000
0000070000
7FFFFFFF00
7FFFFFFF00
7FFFFFFF00
00E0070000
00E0070000
00E0070000
00E0070000
00E0070000
00E0070000
00E0070000
00E0070000
00E0070000
00E0070000
00E0070000
00E0070000
FFFFFFFF80
FFFFFFFF80
FFFFFFFF80
0000070000
0000070000
0000070000
0000070000
0000070000
0000070000
0000070000
0000070000
0000070000
ENDCHAR
STARTCHAR U+30F1
ENCODING 12529
SWIDTH 1000 0
DWIDTH 40 0
BBX 34 26 3 2
BITMAP
1FFFFFFF00
1FFFFFFF80
1FFFFFFF00
0000000F00
0000001E00
0000001C00
0001C03C00
0001C07800
0001C0F000
0001C1E000
0001C3C000
0001C78000
0001C10000
0001C00000
0001C00000
0001C00000
0001C00000
0001C00000
0001C00000
0001C00000
0001C00000
0001C00000
8001C00000
FFFFFFFFC0
FFFFFFFFC0
FFFFFFFFC0
ENDCHAR
STARTCHAR U+30F2
ENCODING 12530
SWIDTH 1000 0
DWIDTH 40 0
BBX 29 31 6 -1
BITMAP
FFFFFFF0
FFFFFFF8
FFFFFFF8
00000078
00000070
00000070
00000070
000000F0
000000F0
000000E0
000000E0
3FFFFFE0
3FFFFFE0
3FFFFFC0
000003C0
000003C0
00000780
00000780
00000F00
00001E00
00001E00
00003C00
0000F800
0001F000
0003E000
000FC000
003F8000
00FE0000
07FC0000
03F00000
01C00000
ENDCHAR
STARTCHAR U+30F3
ENCODING 12531
SWIDTH 1000 0
DWIDTH 40 0
BBX 31 30 6 0
BITMAP
10000000
38000000
7E000000
3F000000
0F800000
07C00000
03E00000
01F0000C
00F8000C
0070001E
0000003C
0000003C
00000078
000000F0
000001F0
000003E0
000007C0
00000F80
00001F00
00003E00
0000FC00
0001F800
0007E000
001FC000
00FF0000
07FE0000
7FF80000
FFC00000
7F000000
70000000
ENDCHAR
STARTCHAR U+30F4
ENCODING 12532
SWIDTH 1000 0
DWIDTH 40 0
BBX 33 36 5 -1
BITMAP
0000000C00
0000008E00
000F01CE00
000F00C700
000F00E300
000F006380
000F007000
000F000000
000F000000
FFFFFFF000
FFFFFFF800
FFFFFFF800
E000007800
E000007800
E000007000
E000007000
E00000F000
E00000F000
E00000E000
E00000E000
E00001E000
E00001C000
000003C000
000003C000
0000078000
00000F8000
00001F0000
00003E0000
00007C0000
0000F80000
0001F00000
0007E00000
003FC00000
03FF000000
01FE000000
00F0000000
ENDCHAR
STARTCHAR U+30F5
ENCODING 12533
SWIDTH 1000 0
DWIDTH 40 0
BBX 25 27 7 -2
BITMAP
00380000
00380000
00380000
00380000
00380000
00380000
FFFFFF00
FFFFFF80
FFFFFF80
00700380
00700380
00700380
00700380
00700380
00E00300
00E00700
00E00700
01C00700
01C00700
03800700
07800700
0F000700
1F000E00
3E000E00
7C07FE00
F807FC00
7007F800
ENDCHAR
STARTCHAR U+30F6
ENCODING 12534
SWIDTH 1000 0
DWIDTH 40 0
BBX 29 28 5 -4
BITMAP
00F00000
00F00000
00E00000
00E00000
01E00000
01C00000
03FFFFF8
03FFFFF8
07FFFFF8
0F007000
0E007000
1E007000
3C007000
7800F000
F000E000
2000E000
0001E000
0001C000
0003C000
0003C000
00078000
000F0000
001F0000
003E0000
007C0000
01F80000
00F00000
00600000
ENDCHAR
STARTCHAR U+30F7
ENCODING 12535
SWIDTH 1000 0
DWIDTH 40 0
BBX 33 38 4 -3
BITMAP
0000000200
0000004600
000001C700
000000E380
0000006380
0000007180
0000003000
0000000000
FFFFFFF800
FFFFFFFC00
FFFFFFFC00
7000003C00
7000003800
7000003800
7000003800
7000007800
7000007800
7000007800
7000007000
700000F000
F00000F000
F00000E000
000001E000
000001E000
000003C000
000003C000
0000078000
00000F8000
00001F0000
00003E0000
00007C0000
0000F80000
0003F00000
000FE00000
003F800000
01FF000000
00FC000000
0070000000
ENDCHAR
STARTCHAR U+30F8
ENCODING 12536
SWIDTH 1000 0
DWIDTH 40 0
BBX 35 35 3 -1
BITMAP
0000000180
00000019C0
00000798C0
0000078CC0
0000078C60
0000078E60
0000078600
0000078000
0000078000
3FFFFFFF00
3FFFFFFF00
3FFFFFFF00
0070078000
0070078000
0070078000
0070078000
0070078000
0070078000
0070078000
0070078000
0070078000
0070078000
0070078000
0070078000
FFFFFFFF80
FFFFFFFF80
FFFFFFFF80
0000078000
0000078000
0000078000
0000078000
0000078000
0000078000
0000078000
0000078000
ENDCHAR
STARTCHAR U+30F9
ENCODING 12537
SWIDTH 1000 0
DWIDTH 40 0
BBX 34 34 3 1
BITMAP
0000000300
0000006380
0000006380
00000071C0
00000039C0
0000003880
0000001800
0000000000
3FFFFFFF00
3FFFFFFF00
3FFFFFFF00
0000001E00
0000001E00
0000003C00
0003C07800
0003C0F000
0003C1F000
0003C3E000
0003C7C000
0003C78000
0003C10000
0003C00000
0003C00000
0003C00000
0003C00000
0003C00000
0003C00000
0003C00000
0003C00000
0003C00000
0003C00040
FFFFFFFFC0
FFFFFFFFC0
FFFFFFFFC0
ENDCHAR
STARTCHAR U+30FA
ENCODING 12538
SWIDTH 1000 0
DWIDTH 40 0
BBX 33 38 5 -3
BITMAP
0000000400
0000008C00
0000038E00
000001C700
000001C700
000000E380
000000E000
0000000000
FFFFFFE000
FFFFFFF800
FFFFFFF000
0000007000
000000F000
000000F000
000000E000
000000E000
000000E000
000001E000
7FFFFFC000
7FFFFFC000
7FFFFFC000
000003C000
0000038000
0000078000
00000F0000
00000F0000
00001E0000
00003C0000
00007C0000
0000F80000
0001F00000
0003E00000
000FC00000
003F000000
00FE000000
07F8000000
07F0000000
0380000000
ENDCHAR
STARTCHAR U+30FB
ENCODING 12539
SWIDTH 1000 0
DWIDTH 40 0
BBX 8 8 16 12
BITMAP
7E
FF
FF
FF
FF
FF
7E
3C
ENDCHAR
STARTCHAR U+30FC
ENCODING 12540
SWIDTH 1000 0
DWIDTH 40 0
BBX 32 4 4 14
BITMAP
FFFFFFFF
FFFFFFFF
FFFFFFFF
FFFFFFFF
ENDCHAR
STARTCHAR U+30FD
ENCODING 12541
SWIDTH 1000 0
DWIDTH 40 0
BBX 18 19 12 4
BITMAP
200000
700000
F80000
7C0000
3E0000
1F0000
0F8000
07C000
03E000
01F000
00F800
007C00
003E00
001E00
001F00
000F80
0007C0
000380
000200
ENDCHAR
STARTCHAR U+30FE
ENCODING 12542
SWIDTH 1000 0
DWIDTH 40 0
BBX 21 25 11 4
BITMAP
0000C0
0000C0
0038E0
001870
001C70
000E38
200E10
700700
F80400
7C0000
3E0000
1F0000
0F8000
07C000
03E000
01F000
00F800
007C00
003E00
001E00
001F00
000F80
0007C0
000380
000200
ENDCHAR
STARTCHAR U+30FF
ENCODING 12543
SWIDTH 1000 0
DWIDTH 40 0
BBX 24 34 8 -3
BITMAP
FFFFFF
FFFFFF
FFFFFF
00000F
00000F
00000F
00000F
00000F
00000F
00000F
00000F
00000F
00000F
00000F
00000F
00000F
00000F
00000F
00000F
00000F
00000F
00000F
00000F
00000F
00000F
00000F
00000F
00000F
00000F
00000F
00000F
00000F
00000F
00000F
ENDCHAR
ENDFONT
