STARTFONT 2.1
FONT -gnu-Unifont Japanese-Medium-R-Normal-Sans-16-160-75-75-c-80-iso10646-1
SIZE 16 75 75
FONTBOUNDINGBOX 16 16 0 -2
STARTPROPERTIES 23
COPYRIGHT "Copyright (C) 1998-2024 Roman Czyborra, Paul Hardy, Qianqian Fang, Andrew Miller, Johnnie Weaver, David Corbett, Nils Moskopp, Rebecca Bettencourt, Minseo Lee, Ho-Seok Ee, et al. License: SIL Open Font License version 1.1 and GPLv2+: GNU GPL version 2 or later <http://gnu.org/licenses/gpl.html> with the GNU Font Embedding Exception."
FONT_VERSION "16.0.01"
FONT_TYPE "Bitmap"
FOUNDRY "GNU"
FAMILY_NAME "Unifont Japanese"
WEIGHT_NAME "Medium"
SLANT "R"
SETWIDTH_NAME "Normal"
ADD_STYLE_NAME "Sans Serif"
PIXEL_SIZE 16
POINT_SIZE 160
RESOLUTION_X 75
RESOLUTION_Y 75
SPACING "C"
AVERAGE_WIDTH 80
CHARSET_REGISTRY "ISO10646"
CHARSET_ENCODING "1"
UNDERLINE_POSITION -2
UNDERLINE_THICKNESS 1
CAP_HEIGHT 10
X_HEIGHT 8
FONT_ASCENT 14
FONT_DESCENT 2
ENDPROPERTIES
CHARS 286
STARTCHAR U+0020
ENCODING 32
SWIDTH 500 0
DWIDTH 8 0
BBX 8 16 0 -2
BITMAP 
00
00
00
00
00
00
00
00
00
00
00
00
00
00
00
00
ENDCHAR
STARTCHAR U+0021
ENCODING 33
SWIDTH 500 0
DWIDTH 8 0
BBX 8 16 0 -2
BITMAP 
00
00
00
00
08
08
08
08
08
08
08
00
08
08
00
00
ENDCHAR
STARTCHAR U+0022
ENCODING 34
SWIDTH 500 0
DWIDTH 8 0
BBX 8 16 0 -2
BITMAP 
00
00
22
22
22
22
00
00
00
00
00
00
00
00
00
00
ENDCHAR
STARTCHAR U+0023
ENCODING 35
SWIDTH 500 0
DWIDTH 8 0
BBX 8 16 0 -2
BITMAP 
00
00
00
00
12
12
12
7E
24
24
7E
48
48
48
00
00
ENDCHAR
STARTCHAR U+0024
ENCODING 36
SWIDTH 500 0
DWIDTH 8 0
BBX 8 16 0 -2
BITMAP 
00
00
00
00
08
3E
49
48
38
0E
09
49
3E
08
00
00
ENDCHAR
STARTCHAR U+0025
ENCODING 37
SWIDTH 500 0
DWIDTH 8 0
BBX 8 16 0 -2
BITMAP 
00
00
00
00
31
4A
4A
34
08
08
16
29
29
46
00
00
ENDCHAR
STARTCHAR U+0026
ENCODING 38
SWIDTH 500 0
DWIDTH 8 0
BBX 8 16 0 -2
BITMAP 
00
00
00
00
1C
22
22
14
18
29
45
42
46
39
00
00
ENDCHAR
STARTCHAR U+0027
ENCODING 39
SWIDTH 500 0
DWIDTH 8 0
BBX 8 16 0 -2
BITMAP 
00
00
08
08
08
08
00
00
00
00
00
00
00
00
00
00
ENDCHAR
STARTCHAR U+0028
ENCODING 40
SWIDTH 500 0
DWIDTH 8 0
BBX 8 16 0 -2
BITMAP 
00
00
00
04
08
08
10
10
10
10
10
10
08
08
04
00
ENDCHAR
STARTCHAR U+0029
ENCODING 41
SWIDTH 500 0
DWIDTH 8 0
BBX 8 16 0 -2
BITMAP 
00
00
00
20
10
10
08
08
08
08
08
08
10
10
20
00
ENDCHAR
STARTCHAR U+002A
ENCODING 42
SWIDTH 500 0
DWIDTH 8 0
BBX 8 16 0 -2
BITMAP 
00
00
00
00
00
00
08
49
2A
1C
2A
49
08
00
00
00
ENDCHAR
STARTCHAR U+002B
ENCODING 43
SWIDTH 500 0
DWIDTH 8 0
BBX 8 16 0 -2
BITMAP 
00
00
00
00
00
00
08
08
08
7F
08
08
08
00
00
00
ENDCHAR
STARTCHAR U+002C
ENCODING 44
SWIDTH 500 0
DWIDTH 8 0
BBX 8 16 0 -2
BITMAP 
00
00
00
00
00
00
00
00
00
00
00
00
18
08
08
10
ENDCHAR
STARTCHAR U+002D
ENCODING 45
SWIDTH 500 0
DWIDTH 8 0
BBX 8 16 0 -2
BITMAP 
00
00
00
00
00
00
00
00
00
3C
00
00
00
00
00
00
ENDCHAR
STARTCHAR U+002E
ENCODING 46
SWIDTH 500 0
DWIDTH 8 0
BBX 8 16 0 -2
BITMAP 
00
00
00
00
00
00
00
00
00
00
00
00
18
18
00
00
ENDCHAR
STARTCHAR U+002F
ENCODING 47
SWIDTH 500 0
DWIDTH 8 0
BBX 8 16 0 -2
BITMAP 
00
00
00
00
02
02
04
08
08
10
10
20
40
40
00
00
ENDCHAR
STARTCHAR U+0030
ENCODING 48
SWIDTH 500 0
DWIDTH 8 0
BBX 8 16 0 -2
BITMAP 
00
00
00
00
18
24
42
46
4A
52
62
42
24
18
00
00
ENDCHAR
STARTCHAR U+0031
ENCODING 49
SWIDTH 500 0
DWIDTH 8 0
BBX 8 16 0 -2
BITMAP 
00
00
00
00
08
18
28
08
08
08
08
08
08
3E
00
00
ENDCHAR
STARTCHAR U+0032
ENCODING 50
SWIDTH 500 0
DWIDTH 8 0
BBX 8 16 0 -2
BITMAP 
00
00
00
00
3C
42
42
02
0C
10
20
40
40
7E
00
00
ENDCHAR
STARTCHAR U+0033
ENCODING 51
SWIDTH 500 0
DWIDTH 8 0
BBX 8 16 0 -2
BITMAP 
00
00
00
00
3C
42
42
02
1C
02
02
42
42
3C
00
00
ENDCHAR
STARTCHAR U+0034
ENCODING 52
SWIDTH 500 0
DWIDTH 8 0
BBX 8 16 0 -2
BITMAP 
00
00
00
00
04
0C
14
24
44
44
7E
04
04
04
00
00
ENDCHAR
STARTCHAR U+0035
ENCODING 53
SWIDTH 500 0
DWIDTH 8 0
BBX 8 16 0 -2
BITMAP 
00
00
00
00
7E
40
40
40
7C
02
02
02
42
3C
00
00
ENDCHAR
STARTCHAR U+0036
ENCODING 54
SWIDTH 500 0
DWIDTH 8 0
BBX 8 16 0 -2
BITMAP 
00
00
00
00
1C
20
40
40
7C
42
42
42
42
3C
00
00
ENDCHAR
STARTCHAR U+0037
ENCODING 55
SWIDTH 500 0
DWIDTH 8 0
BBX 8 16 0 -2
BITMAP 
00
00
00
00
7E
02
02
04
04
04
08
08
08
08
00
00
ENDCHAR
STARTCHAR U+0038
ENCODING 56
SWIDTH 500 0
DWIDTH 8 0
BBX 8 16 0 -2
BITMAP 
00
00
00
00
3C
42
42
42
3C
42
42
42
42
3C
00
00
ENDCHAR
STARTCHAR U+0039
ENCODING 57
SWIDTH 500 0
DWIDTH 8 0
BBX 8 16 0 -2
BITMAP 
00
00
00
00
3C
42
42
42
3E
02
02
02
04
38
00
00
ENDCHAR
STARTCHAR U+003A
ENCODING 58
SWIDTH 500 0
DWIDTH 8 0
BBX 8 16 0 -2
BITMAP 
00
00
00
00
00
00
18
18
00
00
00
18
18
00
00
00
ENDCHAR
STARTCHAR U+003B
ENCODING 59
SWIDTH 500 0
DWIDTH 8 0
BBX 8 16 0 -2
BITMAP 
00
00
00
00
00
00
18
18
00
00
00
18
08
08
10
00
ENDCHAR
STARTCHAR U+003C
ENCODING 60
SWIDTH 500 0
DWIDTH 8 0
BBX 8 16 0 -2
BITMAP 
00
00
00
00
00
02
04
08
10
20
10
08
04
02
00
00
ENDCHAR
STARTCHAR U+003D
ENCODING 61
SWIDTH 500 0
DWIDTH 8 0
BBX 8 16 0 -2
BITMAP 
00
00
00
00
00
00
00
7E
00
00
00
7E
00
00
00
00
ENDCHAR
STARTCHAR U+003E
ENCODING 62
SWIDTH 500 0
DWIDTH 8 0
BBX 8 16 0 -2
BITMAP 
00
00
00
00
00
40
20
10
08
04
08
10
20
40
00
00
ENDCHAR
STARTCHAR U+003F
ENCODING 63
SWIDTH 500 0
DWIDTH 8 0
BBX 8 16 0 -2
BITMAP 
00
00
00
00
3C
42
42
02
04
08
08
00
08
08
00
00
ENDCHAR
STARTCHAR U+0040
ENCODING 64
SWIDTH 500 0
DWIDTH 8 0
BBX 8 16 0 -2
BITMAP 
00
00
00
00
1C
22
4A
56
52
52
52
4E
20
1E
00
00
ENDCHAR
STARTCHAR U+0041
ENCODING 65
SWIDTH 500 0
DWIDTH 8 0
BBX 8 16 0 -2
BITMAP 
00
00
00
00
18
24
24
42
42
7E
42
42
42
42
00
00
ENDCHAR
STARTCHAR U+0042
ENCODING 66
SWIDTH 500 0
DWIDTH 8 0
BBX 8 16 0 -2
BITMAP 
00
00
00
00
7C
42
42
42
7C
42
42
42
42
7C
00
00
ENDCHAR
STARTCHAR U+0043
ENCODING 67
SWIDTH 500 0
DWIDTH 8 0
BBX 8 16 0 -2
BITMAP 
00
00
00
00
3C
42
42
40
40
40
40
42
42
3C
00
00
ENDCHAR
STARTCHAR U+0044
ENCODING 68
SWIDTH 500 0
DWIDTH 8 0
BBX 8 16 0 -2
BITMAP 
00
00
00
00
78
44
42
42
42
42
42
42
44
78
00
00
ENDCHAR
STARTCHAR U+0045
ENCODING 69
SWIDTH 500 0
DWIDTH 8 0
BBX 8 16 0 -2
BITMAP 
00
00
00
00
7E
40
40
40
7C
40
40
40
40
7E
00
00
ENDCHAR
STARTCHAR U+0046
ENCODING 70
SWIDTH 500 0
DWIDTH 8 0
BBX 8 16 0 -2
BITMAP 
00
00
00
00
7E
40
40
40
7C
40
40
40
40
40
00
00
ENDCHAR
STARTCHAR U+0047
ENCODING 71
SWIDTH 500 0
DWIDTH 8 0
BBX 8 16 0 -2
BITMAP 
00
00
00
00
3C
42
42
40
40
4E
42
42
46
3A
00
00
ENDCHAR
STARTCHAR U+0048
ENCODING 72
SWIDTH 500 0
DWIDTH 8 0
BBX 8 16 0 -2
BITMAP 
00
00
00
00
42
42
42
42
7E
42
42
42
42
42
00
00
ENDCHAR
STARTCHAR U+0049
ENCODING 73
SWIDTH 500 0
DWIDTH 8 0
BBX 8 16 0 -2
BITMAP 
00
00
00
00
3E
08
08
08
08
08
08
08
08
3E
00
00
ENDCHAR
STARTCHAR U+004A
ENCODING 74
SWIDTH 500 0
DWIDTH 8 0
BBX 8 16 0 -2
BITMAP 
00
00
00
00
1F
04
04
04
04
04
04
44
44
38
00
00
ENDCHAR
STARTCHAR U+004B
ENCODING 75
SWIDTH 500 0
DWIDTH 8 0
BBX 8 16 0 -2
BITMAP 
00
00
00
00
42
44
48
50
60
60
50
48
44
42
00
00
ENDCHAR
STARTCHAR U+004C
ENCODING 76
SWIDTH 500 0
DWIDTH 8 0
BBX 8 16 0 -2
BITMAP 
00
00
00
00
40
40
40
40
40
40
40
40
40
7E
00
00
ENDCHAR
STARTCHAR U+004D
ENCODING 77
SWIDTH 500 0
DWIDTH 8 0
BBX 8 16 0 -2
BITMAP 
00
00
00
00
42
42
66
66
5A
5A
42
42
42
42
00
00
ENDCHAR
STARTCHAR U+004E
ENCODING 78
SWIDTH 500 0
DWIDTH 8 0
BBX 8 16 0 -2
BITMAP 
00
00
00
00
42
62
62
52
52
4A
4A
46
46
42
00
00
ENDCHAR
STARTCHAR U+004F
ENCODING 79
SWIDTH 500 0
DWIDTH 8 0
BBX 8 16 0 -2
BITMAP 
00
00
00
00
3C
42
42
42
42
42
42
42
42
3C
00
00
ENDCHAR
STARTCHAR U+0050
ENCODING 80
SWIDTH 500 0
DWIDTH 8 0
BBX 8 16 0 -2
BITMAP 
00
00
00
00
7C
42
42
42
7C
40
40
40
40
40
00
00
ENDCHAR
STARTCHAR U+0051
ENCODING 81
SWIDTH 500 0
DWIDTH 8 0
BBX 8 16 0 -2
BITMAP 
00
00
00
00
3C
42
42
42
42
42
42
5A
66
3C
03
00
ENDCHAR
STARTCHAR U+0052
ENCODING 82
SWIDTH 500 0
DWIDTH 8 0
BBX 8 16 0 -2
BITMAP 
00
00
00
00
7C
42
42
42
7C
48
44
44
42
42
00
00
ENDCHAR
STARTCHAR U+0053
ENCODING 83
SWIDTH 500 0
DWIDTH 8 0
BBX 8 16 0 -2
BITMAP 
00
00
00
00
3C
42
42
40
30
0C
02
42
42
3C
00
00
ENDCHAR
STARTCHAR U+0054
ENCODING 84
SWIDTH 500 0
DWIDTH 8 0
BBX 8 16 0 -2
BITMAP 
00
00
00
00
7F
08
08
08
08
08
08
08
08
08
00
00
ENDCHAR
STARTCHAR U+0055
ENCODING 85
SWIDTH 500 0
DWIDTH 8 0
BBX 8 16 0 -2
BITMAP 
00
00
00
00
42
42
42
42
42
42
42
42
42
3C
00
00
ENDCHAR
STARTCHAR U+0056
ENCODING 86
SWIDTH 500 0
DWIDTH 8 0
BBX 8 16 0 -2
BITMAP 
00
00
00
00
41
41
41
22
22
22
14
14
08
08
00
00
ENDCHAR
STARTCHAR U+0057
ENCODING 87
SWIDTH 500 0
DWIDTH 8 0
BBX 8 16 0 -2
BITMAP 
00
00
00
00
42
42
42
42
5A
5A
66
66
42
42
00
00
ENDCHAR
STARTCHAR U+0058
ENCODING 88
SWIDTH 500 0
DWIDTH 8 0
BBX 8 16 0 -2
BITMAP 
00
00
00
00
42
42
24
24
18
18
24
24
42
42
00
00
ENDCHAR
STARTCHAR U+0059
ENCODING 89
SWIDTH 500 0
DWIDTH 8 0
BBX 8 16 0 -2
BITMAP 
00
00
00
00
41
41
22
22
14
08
08
08
08
08
00
00
ENDCHAR
STARTCHAR U+005A
ENCODING 90
SWIDTH 500 0
DWIDTH 8 0
BBX 8 16 0 -2
BITMAP 
00
00
00
00
7E
02
02
04
08
10
20
40
40
7E
00
00
ENDCHAR
STARTCHAR U+005B
ENCODING 91
SWIDTH 500 0
DWIDTH 8 0
BBX 8 16 0 -2
BITMAP 
00
00
00
0E
08
08
08
08
08
08
08
08
08
08
0E
00
ENDCHAR
STARTCHAR U+005C
ENCODING 92
SWIDTH 500 0
DWIDTH 8 0
BBX 8 16 0 -2
BITMAP 
00
00
00
00
40
40
20
10
10
08
08
04
02
02
00
00
ENDCHAR
STARTCHAR U+005D
ENCODING 93
SWIDTH 500 0
DWIDTH 8 0
BBX 8 16 0 -2
BITMAP 
00
00
00
70
10
10
10
10
10
10
10
10
10
10
70
00
ENDCHAR
STARTCHAR U+005E
ENCODING 94
SWIDTH 500 0
DWIDTH 8 0
BBX 8 16 0 -2
BITMAP 
00
00
18
24
42
00
00
00
00
00
00
00
00
00
00
00
ENDCHAR
STARTCHAR U+005F
ENCODING 95
SWIDTH 500 0
DWIDTH 8 0
BBX 8 16 0 -2
BITMAP 
00
00
00
00
00
00
00
00
00
00
00
00
00
00
7F
00
ENDCHAR
STARTCHAR U+0060
ENCODING 96
SWIDTH 500 0
DWIDTH 8 0
BBX 8 16 0 -2
BITMAP 
00
20
10
08
00
00
00
00
00
00
00
00
00
00
00
00
ENDCHAR
STARTCHAR U+0061
ENCODING 97
SWIDTH 500 0
DWIDTH 8 0
BBX 8 16 0 -2
BITMAP 
00
00
00
00
00
00
3C
42
02
3E
42
42
46
3A
00
00
ENDCHAR
STARTCHAR U+0062
ENCODING 98
SWIDTH 500 0
DWIDTH 8 0
BBX 8 16 0 -2
BITMAP 
00
00
00
40
40
40
5C
62
42
42
42
42
62
5C
00
00
ENDCHAR
STARTCHAR U+0063
ENCODING 99
SWIDTH 500 0
DWIDTH 8 0
BBX 8 16 0 -2
BITMAP 
00
00
00
00
00
00
3C
42
40
40
40
40
42
3C
00
00
ENDCHAR
STARTCHAR U+0064
ENCODING 100
SWIDTH 500 0
DWIDTH 8 0
BBX 8 16 0 -2
BITMAP 
00
00
00
02
02
02
3A
46
42
42
42
42
46
3A
00
00
ENDCHAR
STARTCHAR U+0065
ENCODING 101
SWIDTH 500 0
DWIDTH 8 0
BBX 8 16 0 -2
BITMAP 
00
00
00
00
00
00
3C
42
42
7E
40
40
42
3C
00
00
ENDCHAR
STARTCHAR U+0066
ENCODING 102
SWIDTH 500 0
DWIDTH 8 0
BBX 8 16 0 -2
BITMAP 
00
00
00
0C
10
10
10
7C
10
10
10
10
10
10
00
00
ENDCHAR
STARTCHAR U+0067
ENCODING 103
SWIDTH 500 0
DWIDTH 8 0
BBX 8 16 0 -2
BITMAP 
00
00
00
00
00
02
3A
44
44
44
38
20
3C
42
42
3C
ENDCHAR
STARTCHAR U+0068
ENCODING 104
SWIDTH 500 0
DWIDTH 8 0
BBX 8 16 0 -2
BITMAP 
00
00
00
40
40
40
5C
62
42
42
42
42
42
42
00
00
ENDCHAR
STARTCHAR U+0069
ENCODING 105
SWIDTH 500 0
DWIDTH 8 0
BBX 8 16 0 -2
BITMAP 
00
00
00
08
08
00
18
08
08
08
08
08
08
3E
00
00
ENDCHAR
STARTCHAR U+006A
ENCODING 106
SWIDTH 500 0
DWIDTH 8 0
BBX 8 16 0 -2
BITMAP 
00
00
00
04
04
00
0C
04
04
04
04
04
04
04
48
30
ENDCHAR
STARTCHAR U+006B
ENCODING 107
SWIDTH 500 0
DWIDTH 8 0
BBX 8 16 0 -2
BITMAP 
00
00
00
40
40
40
44
48
50
60
50
48
44
42
00
00
ENDCHAR
STARTCHAR U+006C
ENCODING 108
SWIDTH 500 0
DWIDTH 8 0
BBX 8 16 0 -2
BITMAP 
00
00
00
18
08
08
08
08
08
08
08
08
08
3E
00
00
ENDCHAR
STARTCHAR U+006D
ENCODING 109
SWIDTH 500 0
DWIDTH 8 0
BBX 8 16 0 -2
BITMAP 
00
00
00
00
00
00
76
49
49
49
49
49
49
49
00
00
ENDCHAR
STARTCHAR U+006E
ENCODING 110
SWIDTH 500 0
DWIDTH 8 0
BBX 8 16 0 -2
BITMAP 
00
00
00
00
00
00
5C
62
42
42
42
42
42
42
00
00
ENDCHAR
STARTCHAR U+006F
ENCODING 111
SWIDTH 500 0
DWIDTH 8 0
BBX 8 16 0 -2
BITMAP 
00
00
00
00
00
00
3C
42
42
42
42
42
42
3C
00
00
ENDCHAR
STARTCHAR U+0070
ENCODING 112
SWIDTH 500 0
DWIDTH 8 0
BBX 8 16 0 -2
BITMAP 
00
00
00
00
00
00
5C
62
42
42
42
42
62
5C
40
40
ENDCHAR
STARTCHAR U+0071
ENCODING 113
SWIDTH 500 0
DWIDTH 8 0
BBX 8 16 0 -2
BITMAP 
00
00
00
00
00
00
3A
46
42
42
42
42
46
3A
02
02
ENDCHAR
STARTCHAR U+0072
ENCODING 114
SWIDTH 500 0
DWIDTH 8 0
BBX 8 16 0 -2
BITMAP 
00
00
00
00
00
00
5C
62
42
40
40
40
40
40
00
00
ENDCHAR
STARTCHAR U+0073
ENCODING 115
SWIDTH 500 0
DWIDTH 8 0
BBX 8 16 0 -2
BITMAP 
00
00
00
00
00
00
3C
42
40
30
0C
02
42
3C
00
00
ENDCHAR
STARTCHAR U+0074
ENCODING 116
SWIDTH 500 0
DWIDTH 8 0
BBX 8 16 0 -2
BITMAP 
00
00
00
00
10
10
10
7C
10
10
10
10
10
0C
00
00
ENDCHAR
STARTCHAR U+0075
ENCODING 117
SWIDTH 500 0
DWIDTH 8 0
BBX 8 16 0 -2
BITMAP 
00
00
00
00
00
00
42
42
42
42
42
42
46
3A
00
00
ENDCHAR
STARTCHAR U+0076
ENCODING 118
SWIDTH 500 0
DWIDTH 8 0
BBX 8 16 0 -2
BITMAP 
00
00
00
00
00
00
42
42
42
24
24
24
18
18
00
00
ENDCHAR
STARTCHAR U+0077
ENCODING 119
SWIDTH 500 0
DWIDTH 8 0
BBX 8 16 0 -2
BITMAP 
00
00
00
00
00
00
41
49
49
49
49
49
49
36
00
00
ENDCHAR
STARTCHAR U+0078
ENCODING 120
SWIDTH 500 0
DWIDTH 8 0
BBX 8 16 0 -2
BITMAP 
00
00
00
00
00
00
42
42
24
18
18
24
42
42
00
00
ENDCHAR
STARTCHAR U+0079
ENCODING 121
SWIDTH 500 0
DWIDTH 8 0
BBX 8 16 0 -2
BITMAP 
00
00
00
00
00
00
42
42
42
42
42
26
1A
02
02
3C
ENDCHAR
STARTCHAR U+007A
ENCODING 122
SWIDTH 500 0
DWIDTH 8 0
BBX 8 16 0 -2
BITMAP 
00
00
00
00
00
00
7E
02
04
08
10
20
40
7E
00
00
ENDCHAR
STARTCHAR U+007B
ENCODING 123
SWIDTH 500 0
DWIDTH 8 0
BBX 8 16 0 -2
BITMAP 
00
00
00
0C
10
10
08
08
10
20
10
08
08
10
10
0C
ENDCHAR
STARTCHAR U+007C
ENCODING 124
SWIDTH 500 0
DWIDTH 8 0
BBX 8 16 0 -2
BITMAP 
00
00
08
08
08
08
08
08
08
08
08
08
08
08
08
08
ENDCHAR
STARTCHAR U+007D
ENCODING 125
SWIDTH 500 0
DWIDTH 8 0
BBX 8 16 0 -2
BITMAP 
00
00
00
30
08
08
10
10
08
04
08
10
10
08
08
30
ENDCHAR
STARTCHAR U+007E
ENCODING 126
SWIDTH 500 0
DWIDTH 8 0
BBX 8 16 0 -2
BITMAP 
00
00
00
31
49
46
00
00
00
00
00
00
00
00
00
00
ENDCHAR
STARTCHAR U+3041
ENCODING 12353
SWIDTH 1000 0
DWIDTH 16 0
BBX 16 16 0 -2
BITMAP 
0000
0000
0000
0000
0000
0100
0160
0F80
0200
03E0
0650
0A48
1188
1108
0E10
0060
ENDCHAR
STARTCHAR U+3042
ENCODING 12354
SWIDTH 1000 0
DWIDTH 16 0
BBX 16 16 0 -2
BITMAP 
0000
0100
0100
0160
1F80
0200
0220
03F8
0624
0A42
1282
2102
2204
1C08
0030
0000
ENDCHAR
STARTCHAR U+3043
ENCODING 12355
SWIDTH 1000 0
DWIDTH 16 0
BBX 16 16 0 -2
BITMAP 
0000
0000
0000
0000
0000
0000
0000
1000
1020
1010
1010
1008
0808
0A00
0400
0000
ENDCHAR
STARTCHAR U+3044
ENCODING 12356
SWIDTH 1000 0
DWIDTH 16 0
BBX 16 16 0 -2
BITMAP 
0000
0000
0000
1000
1000
1010
1008
1008
1004
1004
1004
0900
0A00
0400
0000
0000
ENDCHAR
STARTCHAR U+3045
ENCODING 12357
SWIDTH 1000 0
DWIDTH 16 0
BBX 16 16 0 -2
BITMAP 
0000
0000
0000
0000
0000
0180
0060
0000
00E0
0310
0010
0010
0020
0020
0040
0080
ENDCHAR
STARTCHAR U+3046
ENCODING 12358
SWIDTH 1000 0
DWIDTH 16 0
BBX 16 16 0 -2
BITMAP 
0000
0300
00E0
0000
0000
01E0
0E10
0010
0010
0010
0020
0020
0040
0080
0100
0000
ENDCHAR
STARTCHAR U+3047
ENCODING 12359
SWIDTH 1000 0
DWIDTH 16 0
BBX 16 16 0 -2
BITMAP 
0000
0000
0000
0000
0000
0000
0300
00C0
0000
01C0
0640
0080
0180
0240
0440
0830
ENDCHAR
STARTCHAR U+3048
ENCODING 12360
SWIDTH 1000 0
DWIDTH 16 0
BBX 16 16 0 -2
BITMAP 
0000
0300
00E0
0000
00E0
0F20
0040
0080
0100
0380
0440
0840
1040
203C
0000
0000
ENDCHAR
STARTCHAR U+3049
ENCODING 12361
SWIDTH 1000 0
DWIDTH 16 0
BBX 16 16 0 -2
BITMAP 
0000
0000
0000
0000
0000
0000
0200
0390
0E08
0204
02E0
0310
0608
0A08
0A10
0660
ENDCHAR
STARTCHAR U+304A
ENCODING 12362
SWIDTH 1000 0
DWIDTH 16 0
BBX 16 16 0 -2
BITMAP 
0000
0400
0400
0784
3C02
0401
0400
04F0
0708
0C04
1404
2404
2408
1830
0000
0000
ENDCHAR
STARTCHAR U+304B
ENCODING 12363
SWIDTH 1000 0
DWIDTH 16 0
BBX 16 16 0 -2
BITMAP 
0000
0200
0200
0208
03C4
3E22
0221
0421
0420
0820
0820
1040
2240
0180
0000
0000
ENDCHAR
STARTCHAR U+304C
ENCODING 12364
SWIDTH 1000 0
DWIDTH 16 0
BBX 16 16 0 -2
BITMAP 
0002
0205
0202
0208
03C4
3E22
0221
0421
0420
0820
0820
1040
2240
0180
0000
0000
ENDCHAR
STARTCHAR U+304D
ENCODING 12365
SWIDTH 1000 0
DWIDTH 16 0
BBX 16 16 0 -2
BITMAP 
0100
0100
0160
0F80
0080
00B8
0FC0
0040
0020
07D0
0830
1000
1000
0C00
03C0
0000
ENDCHAR
STARTCHAR U+304E
ENCODING 12366
SWIDTH 1000 0
DWIDTH 16 0
BBX 16 16 0 -2
BITMAP 
0100
0104
016A
0F84
0080
00B8
0FC0
0040
0020
07D0
0830
1000
1000
0C00
03C0
0000
ENDCHAR
STARTCHAR U+304F
ENCODING 12367
SWIDTH 1000 0
DWIDTH 16 0
BBX 16 16 0 -2
BITMAP 
0000
0040
0040
0080
0080
0100
0200
0400
0200
0100
0080
0080
0040
0040
0040
0000
ENDCHAR
STARTCHAR U+3050
ENCODING 12368
SWIDTH 1000 0
DWIDTH 16 0
BBX 16 16 0 -2
BITMAP 
0000
0040
0040
0088
0094
0108
0200
0400
0200
0100
0080
0080
0040
0040
0040
0000
ENDCHAR
STARTCHAR U+3051
ENCODING 12369
SWIDTH 1000 0
DWIDTH 16 0
BBX 16 16 0 -2
BITMAP 
0000
0010
1010
1010
201E
23F0
2010
2010
2010
2010
2010
2820
1020
1040
0080
0000
ENDCHAR
STARTCHAR U+3052
ENCODING 12370
SWIDTH 1000 0
DWIDTH 16 0
BBX 16 16 0 -2
BITMAP 
0002
0015
1012
1010
201E
23F0
2010
2010
2010
2010
2010
2820
1020
1040
0080
0000
ENDCHAR
STARTCHAR U+3053
ENCODING 12371
SWIDTH 1000 0
DWIDTH 16 0
BBX 16 16 0 -2
BITMAP 
0000
0000
0700
00F0
0040
0080
0000
0000
0000
0800
1000
1000
0800
07F8
0000
0000
ENDCHAR
STARTCHAR U+3054
ENCODING 12372
SWIDTH 1000 0
DWIDTH 16 0
BBX 16 16 0 -2
BITMAP 
0000
0002
0705
00F2
0040
0080
0000
0000
0000
0800
1000
1000
0800
07F8
0000
0000
ENDCHAR
STARTCHAR U+3055
ENCODING 12373
SWIDTH 1000 0
DWIDTH 16 0
BBX 16 16 0 -2
BITMAP 
0000
0100
0100
00B8
1FC0
0040
0020
0020
07D0
0830
1000
1000
1000
0C00
03C0
0000
ENDCHAR
STARTCHAR U+3056
ENCODING 12374
SWIDTH 1000 0
DWIDTH 16 0
BBX 16 16 0 -2
BITMAP 
0008
0114
0108
00B0
1FC0
0040
0020
0020
07D0
0830
1000
1000
1000
0C00
03C0
0000
ENDCHAR
STARTCHAR U+3057
ENCODING 12375
SWIDTH 1000 0
DWIDTH 16 0
BBX 16 16 0 -2
BITMAP 
0000
0400
0400
0400
0400
0400
0400
0400
0400
0400
0404
0408
0230
01C0
0000
0000
ENDCHAR
STARTCHAR U+3058
ENCODING 12376
SWIDTH 1000 0
DWIDTH 16 0
BBX 16 16 0 -2
BITMAP 
0000
0400
0420
0450
0420
0400
0400
0400
0400
0400
0404
0408
0230
01C0
0000
0000
ENDCHAR
STARTCHAR U+3059
ENCODING 12377
SWIDTH 1000 0
DWIDTH 16 0
BBX 16 16 0 -2
BITMAP 
0000
0040
0040
3FFC
0040
0040
03C0
0440
0440
04C0
0340
0040
0080
0100
0600
0000
ENDCHAR
STARTCHAR U+305A
ENCODING 12378
SWIDTH 1000 0
DWIDTH 16 0
BBX 16 16 0 -2
BITMAP 
0002
0045
0042
3FFC
0040
0040
03C0
0440
0440
04C0
0340
0040
0080
0100
0600
0000
ENDCHAR
STARTCHAR U+305B
ENCODING 12379
SWIDTH 1000 0
DWIDTH 16 0
BBX 16 16 0 -2
BITMAP 
0000
0020
0820
0820
0820
09FE
7E20
0820
0820
08C0
0800
0800
0400
03F0
0000
0000
ENDCHAR
STARTCHAR U+305C
ENCODING 12380
SWIDTH 1000 0
DWIDTH 16 0
BBX 16 16 0 -2
BITMAP 
0000
0022
0825
0822
0820
09FE
7E20
0820
0820
08C0
0800
0800
0400
03F0
0000
0000
ENDCHAR
STARTCHAR U+305D
ENCODING 12381
SWIDTH 1000 0
DWIDTH 16 0
BBX 16 16 0 -2
BITMAP 
0000
0000
07E0
0040
0080
0100
023E
07C0
3880
0100
0200
0200
0200
0100
00F0
0000
ENDCHAR
STARTCHAR U+305E
ENCODING 12382
SWIDTH 1000 0
DWIDTH 16 0
BBX 16 16 0 -2
BITMAP 
0000
0000
07E4
004A
0084
0100
023E
07C0
3880
0100
0200
0200
0200
0100
00F0
0000
ENDCHAR
STARTCHAR U+305F
ENCODING 12383
SWIDTH 1000 0
DWIDTH 16 0
BBX 16 16 0 -2
BITMAP 
0000
0400
0400
0780
3C00
0400
047C
0808
0800
0800
1100
1100
2080
207E
0000
0000
ENDCHAR
STARTCHAR U+3060
ENCODING 12384
SWIDTH 1000 0
DWIDTH 16 0
BBX 16 16 0 -2
BITMAP 
0000
0404
040A
0784
3C00
0400
047C
0808
0800
0800
1100
1100
2080
207E
0000
0000
ENDCHAR
STARTCHAR U+3061
ENCODING 12385
SWIDTH 1000 0
DWIDTH 16 0
BBX 16 16 0 -2
BITMAP 
0000
0100
0100
0130
1FC0
0200
0200
0400
04F0
0B08
0C04
0004
0008
0030
01C0
0000
ENDCHAR
STARTCHAR U+3062
ENCODING 12386
SWIDTH 1000 0
DWIDTH 16 0
BBX 16 16 0 -2
BITMAP 
0000
0102
0105
0132
1FC0
0200
0200
0400
04F0
0B08
0C04
0004
0008
0030
01C0
0000
ENDCHAR
STARTCHAR U+3063
ENCODING 12387
SWIDTH 1000 0
DWIDTH 16 0
BBX 16 16 0 -2
BITMAP 
0000
0000
0000
0000
0000
0000
0000
01E0
1E10
0008
0008
0008
0010
0060
0180
0000
ENDCHAR
STARTCHAR U+3064
ENCODING 12388
SWIDTH 1000 0
DWIDTH 16 0
BBX 16 16 0 -2
BITMAP 
0000
0000
0000
0000
01F0
7E08
0004
0002
0002
0002
0004
0008
0030
00C0
0000
0000
ENDCHAR
STARTCHAR U+3065
ENCODING 12389
SWIDTH 1000 0
DWIDTH 16 0
BBX 16 16 0 -2
BITMAP 
0000
0002
0005
0002
01F0
7E08
0004
0002
0002
0002
0004
0008
0030
00C0
0000
0000
ENDCHAR
STARTCHAR U+3066
ENCODING 12390
SWIDTH 1000 0
DWIDTH 16 0
BBX 16 16 0 -2
BITMAP 
0000
0000
003C
3FC0
0080
0100
0100
0200
0200
0200
0200
0100
0080
0070
0000
0000
ENDCHAR
STARTCHAR U+3067
ENCODING 12391
SWIDTH 1000 0
DWIDTH 16 0
BBX 16 16 0 -2
BITMAP 
0000
0000
003C
3FC0
0088
0114
0108
0200
0200
0200
0200
0100
0080
0070
0000
0000
ENDCHAR
STARTCHAR U+3068
ENCODING 12392
SWIDTH 1000 0
DWIDTH 16 0
BBX 16 16 0 -2
BITMAP 
0000
0200
0200
0200
0200
0210
0160
0180
0200
0400
0800
0800
0400
03F0
0000
0000
ENDCHAR
STARTCHAR U+3069
ENCODING 12393
SWIDTH 1000 0
DWIDTH 16 0
BBX 16 16 0 -2
BITMAP 
0000
0200
0204
020A
0204
0210
0160
0180
0200
0400
0800
0800
0400
03F0
0000
0000
ENDCHAR
STARTCHAR U+306A
ENCODING 12394
SWIDTH 1000 0
DWIDTH 16 0
BBX 16 16 0 -2
BITMAP 
0000
0400
0400
0788
3C04
0402
0820
0820
1020
2020
0020
01E0
0238
0224
01C0
0000
ENDCHAR
STARTCHAR U+306B
ENCODING 12395
SWIDTH 1000 0
DWIDTH 16 0
BBX 16 16 0 -2
BITMAP 
0000
0000
0800
08F8
1010
1000
1000
1000
1000
1000
1080
1480
087C
0800
0000
0000
ENDCHAR
STARTCHAR U+306C
ENCODING 12396
SWIDTH 1000 0
DWIDTH 16 0
BBX 16 16 0 -2
BITMAP 
0000
0100
1100
1100
13F0
1D08
1104
2904
2A04
4604
4204
4474
388C
0072
0000
0000
ENDCHAR
STARTCHAR U+306D
ENCODING 12397
SWIDTH 1000 0
DWIDTH 16 0
BBX 16 16 0 -2
BITMAP 
0000
0800
0800
0800
0870
7988
0A04
0C04
1804
2804
4804
0878
088C
0872
0800
0000
ENDCHAR
STARTCHAR U+306E
ENCODING 12398
SWIDTH 1000 0
DWIDTH 16 0
BBX 16 16 0 -2
BITMAP 
0000
0000
0000
01E0
0698
0884
1084
1082
2102
2102
2204
1204
0C18
0060
0000
0000
ENDCHAR
STARTCHAR U+306F
ENCODING 12399
SWIDTH 1000 0
DWIDTH 16 0
BBX 16 16 0 -2
BITMAP 
0000
1010
1010
1010
21FE
2010
2010
2010
2010
2010
2010
20F0
291C
1112
10E0
0000
ENDCHAR
STARTCHAR U+3070
ENCODING 12400
SWIDTH 1000 0
DWIDTH 16 0
BBX 16 16 0 -2
BITMAP 
0002
1015
1012
1010
21FE
2010
2010
2010
2010
2010
2010
20F0
291C
1112
10E0
0000
ENDCHAR
STARTCHAR U+3071
ENCODING 12401
SWIDTH 1000 0
DWIDTH 16 0
BBX 16 16 0 -2
BITMAP 
0006
2029
2029
2026
43F8
4020
4020
4020
4020
4020
4020
41E0
5238
2224
21C0
0000
ENDCHAR
STARTCHAR U+3072
ENCODING 12402
SWIDTH 1000 0
DWIDTH 16 0
BBX 16 16 0 -2
BITMAP 
0000
0000
0700
3A10
0418
0414
0812
0810
1010
1010
1010
1020
1020
0840
0780
0000
ENDCHAR
STARTCHAR U+3073
ENCODING 12403
SWIDTH 1000 0
DWIDTH 16 0
BBX 16 16 0 -2
BITMAP 
0002
0005
0702
3A10
0418
0414
0812
0810
1010
1010
1010
1020
1020
0840
0780
0000
ENDCHAR
STARTCHAR U+3074
ENCODING 12404
SWIDTH 1000 0
DWIDTH 16 0
BBX 16 16 0 -2
BITMAP 
0006
0009
0709
3A16
0418
0414
0812
0810
1010
1010
1010
1020
1020
0840
0780
0000
ENDCHAR
STARTCHAR U+3075
ENCODING 12405
SWIDTH 1000 0
DWIDTH 16 0
BBX 16 16 0 -2
BITMAP 
0000
0100
0080
0040
0040
0080
0100
0100
0080
0048
0824
1022
2441
4381
0000
0000
ENDCHAR
STARTCHAR U+3076
ENCODING 12406
SWIDTH 1000 0
DWIDTH 16 0
BBX 16 16 0 -2
BITMAP 
0000
0100
0080
0040
0048
0094
0108
0100
0080
0048
0824
1022
2441
4381
0000
0000
ENDCHAR
STARTCHAR U+3077
ENCODING 12407
SWIDTH 1000 0
DWIDTH 16 0
BBX 16 16 0 -2
BITMAP 
0000
0100
0080
004C
0052
0092
010C
0100
0080
0048
0824
1022
2441
4381
0000
0000
ENDCHAR
STARTCHAR U+3078
ENCODING 12408
SWIDTH 1000 0
DWIDTH 16 0
BBX 16 16 0 -2
BITMAP 
0000
0000
0000
0000
0000
0600
0900
1080
6040
0020
0018
0006
0000
0000
0000
0000
ENDCHAR
STARTCHAR U+3079
ENCODING 12409
SWIDTH 1000 0
DWIDTH 16 0
BBX 16 16 0 -2
BITMAP 
0000
0000
0000
0010
0028
0610
0900
1080
6040
0020
0018
0006
0000
0000
0000
0000
ENDCHAR
STARTCHAR U+307A
ENCODING 12410
SWIDTH 1000 0
DWIDTH 16 0
BBX 16 16 0 -2
BITMAP 
0000
0000
0000
0030
0048
0648
0930
1080
6040
0020
0018
0006
0000
0000
0000
0000
ENDCHAR
STARTCHAR U+307B
ENCODING 12411
SWIDTH 1000 0
DWIDTH 16 0
BBX 16 16 0 -2
BITMAP 
0000
1000
11FC
1010
2010
2010
21FC
2010
2010
2010
2010
20F0
291C
1112
10E0
0000
ENDCHAR
STARTCHAR U+307C
ENCODING 12412
SWIDTH 1000 0
DWIDTH 16 0
BBX 16 16 0 -2
BITMAP 
0002
1005
11FA
1010
2010
2010
21FC
2010
2010
2010
2010
20F0
291C
1112
10E0
0000
ENDCHAR
STARTCHAR U+307D
ENCODING 12413
SWIDTH 1000 0
DWIDTH 16 0
BBX 16 16 0 -2
BITMAP 
0006
1009
11F9
1016
2010
2010
21FC
2010
2010
2010
2010
20F0
291C
1112
10E0
0000
ENDCHAR
STARTCHAR U+307E
ENCODING 12414
SWIDTH 1000 0
DWIDTH 16 0
BBX 16 16 0 -2
BITMAP 
0000
0080
0080
1FF8
0080
0080
0080
0FF0
0080
0080
0080
0FC0
10B0
1088
0F00
0000
ENDCHAR
STARTCHAR U+307F
ENCODING 12415
SWIDTH 1000 0
DWIDTH 16 0
BBX 16 16 0 -2
BITMAP 
0000
0000
0F80
0080
0080
0088
0108
0108
07F8
1A0E
2211
2410
1820
0040
0080
0000
ENDCHAR
STARTCHAR U+3080
ENCODING 12416
SWIDTH 1000 0
DWIDTH 16 0
BBX 16 16 0 -2
BITMAP 
0000
0200
0200
03C8
3E04
0202
0200
0E00
1200
1200
1400
0C04
0404
0404
03F8
0000
ENDCHAR
STARTCHAR U+3081
ENCODING 12417
SWIDTH 1000 0
DWIDTH 16 0
BBX 16 16 0 -2
BITMAP 
0000
0040
0840
0840
0BE0
0C58
0884
1884
2502
2502
4202
4204
2504
1818
0060
0000
ENDCHAR
STARTCHAR U+3082
ENCODING 12418
SWIDTH 1000 0
DWIDTH 16 0
BBX 16 16 0 -2
BITMAP 
0000
0200
0200
0200
1F80
0200
0200
0210
1F88
0408
0408
0408
0408
0210
01E0
0000
ENDCHAR
STARTCHAR U+3083
ENCODING 12419
SWIDTH 1000 0
DWIDTH 16 0
BBX 16 16 0 -2
BITMAP 
0000
0000
0000
0000
0000
0000
0100
08F0
0588
0608
1A08
0270
0100
0100
0080
0080
ENDCHAR
STARTCHAR U+3084
ENCODING 12420
SWIDTH 1000 0
DWIDTH 16 0
BBX 16 16 0 -2
BITMAP 
0000
0100
0080
1040
1078
0984
0602
1C02
6204
0218
0100
0100
0080
0080
0080
0000
ENDCHAR
STARTCHAR U+3085
ENCODING 12421
SWIDTH 1000 0
DWIDTH 16 0
BBX 16 16 0 -2
BITMAP 
0000
0000
0000
0000
0000
0080
0040
09E0
0A50
1448
1448
0850
09E0
0080
0080
0100
ENDCHAR
STARTCHAR U+3086
ENCODING 12422
SWIDTH 1000 0
DWIDTH 16 0
BBX 16 16 0 -2
BITMAP 
0000
0080
0040
1040
10F8
2344
2442
2842
3042
2242
1144
10F8
0040
0080
0100
0000
ENDCHAR
STARTCHAR U+3087
ENCODING 12423
SWIDTH 1000 0
DWIDTH 16 0
BBX 16 16 0 -2
BITMAP 
0000
0000
0000
0000
0000
0080
0080
00F0
0080
0080
0080
0780
08E0
0890
0700
0000
ENDCHAR
STARTCHAR U+3088
ENCODING 12424
SWIDTH 1000 0
DWIDTH 16 0
BBX 16 16 0 -2
BITMAP 
0000
0080
0080
0080
00F8
0080
0080
0080
0080
0080
0080
0FC0
10B0
1088
0F00
0000
ENDCHAR
STARTCHAR U+3089
ENCODING 12425
SWIDTH 1000 0
DWIDTH 16 0
BBX 16 16 0 -2
BITMAP 
0000
0180
0060
0000
0400
0400
0400
0400
09F0
0E08
0804
0004
0008
0030
03C0
0000
ENDCHAR
STARTCHAR U+308A
ENCODING 12426
SWIDTH 1000 0
DWIDTH 16 0
BBX 16 16 0 -2
BITMAP 
0000
0010
0810
0810
0810
0810
0810
0A10
0C10
0410
0010
0020
0020
0040
0180
0000
ENDCHAR
STARTCHAR U+308B
ENCODING 12427
SWIDTH 1000 0
DWIDTH 16 0
BBX 16 16 0 -2
BITMAP 
0000
0000
07F0
0020
0040
0080
0100
02F0
0708
0804
1004
0184
0248
0230
01E0
0000
ENDCHAR
STARTCHAR U+308C
ENCODING 12428
SWIDTH 1000 0
DWIDTH 16 0
BBX 16 16 0 -2
BITMAP 
0000
0800
0800
0800
08E0
7D10
0A10
0C10
1810
1810
2810
4810
0812
080C
0800
0000
ENDCHAR
STARTCHAR U+308D
ENCODING 12429
SWIDTH 1000 0
DWIDTH 16 0
BBX 16 16 0 -2
BITMAP 
0000
0000
07F0
0020
0040
0080
0100
02F0
0708
0804
1004
0004
0008
0030
01C0
0000
ENDCHAR
STARTCHAR U+308E
ENCODING 12430
SWIDTH 1000 0
DWIDTH 16 0
BBX 16 16 0 -2
BITMAP 
0000
0000
0000
0000
0000
0000
0200
0200
1E70
0288
0304
0204
0604
0A04
1208
0210
ENDCHAR
STARTCHAR U+308F
ENCODING 12431
SWIDTH 1000 0
DWIDTH 16 0
BBX 16 16 0 -2
BITMAP 
0000
0400
0400
0400
3E00
04F8
0504
0602
0402
0C02
1402
2404
0408
0430
0400
0000
ENDCHAR
STARTCHAR U+3090
ENCODING 12432
SWIDTH 1000 0
DWIDTH 16 0
BBX 16 16 0 -2
BITMAP 
0000
0380
0C80
0080
0100
0100
03E0
0E18
1204
2204
2404
24C8
2528
18F0
0000
0000
ENDCHAR
STARTCHAR U+3091
ENCODING 12433
SWIDTH 1000 0
DWIDTH 16 0
BBX 16 16 0 -2
BITMAP 
0000
07E0
0040
0080
01E0
0610
0808
0388
0450
03E0
0C04
1202
2121
40C1
0000
0000
ENDCHAR
STARTCHAR U+3092
ENCODING 12434
SWIDTH 1000 0
DWIDTH 16 0
BBX 16 16 0 -2
BITMAP 
0100
0100
0160
1F80
0200
0200
0780
084C
1070
01C0
0240
0400
0400
03F0
0000
0000
ENDCHAR
STARTCHAR U+3093
ENCODING 12435
SWIDTH 1000 0
DWIDTH 16 0
BBX 16 16 0 -2
BITMAP 
0000
0100
0100
0100
0200
0200
0200
0400
0580
0640
0840
0842
1044
1038
0000
0000
ENDCHAR
STARTCHAR U+3094
ENCODING 12436
SWIDTH 1000 0
DWIDTH 16 0
BBX 16 16 0 -2
BITMAP 
0000
0304
00EA
0004
0000
03E0
0C10
0010
0010
0010
0020
0020
0040
0080
0100
0000
ENDCHAR
STARTCHAR U+3095
ENCODING 12437
SWIDTH 1000 0
DWIDTH 16 0
BBX 16 16 0 -2
BITMAP 
0000
0000
0000
0000
0000
0200
0200
0200
0390
1E48
0244
0444
0440
0840
1080
0300
ENDCHAR
STARTCHAR U+3096
ENCODING 12438
SWIDTH 1000 0
DWIDTH 16 0
BBX 16 16 0 -2
BITMAP 
0000
0000
0000
0000
0000
0010
0410
0410
08FC
0810
0810
0810
0810
0A10
0420
00C0
ENDCHAR
STARTCHAR U+3097
ENCODING 12439
SWIDTH 1000 0
DWIDTH 16 0
BBX 16 16 0 -2
BITMAP 
0000
7FFE
63CE
7DB6
71B6
7DB6
63CE
7FFE
7FFE
7386
6DF6
71EE
7DDE
73DE
7FFE
0000
ENDCHAR
STARTCHAR U+3098
ENCODING 12440
SWIDTH 1000 0
DWIDTH 16 0
BBX 16 16 0 -2
BITMAP 
0000
7FFE
63CE
7DB6
71B6
7DB6
63CE
7FFE
7FFE
73CE
6DB6
71CE
7DB6
73CE
7FFE
0000
ENDCHAR
STARTCHAR U+3099
ENCODING 12441
SWIDTH 1000 0
DWIDTH 16 0
BBX 16 16 0 -2
BITMAP 
0000
000A
000A
0000
0000
0000
0000
0000
0000
0000
0000
0000
0000
0000
0000
0000
ENDCHAR
STARTCHAR U+309A
ENCODING 12442
SWIDTH 1000 0
DWIDTH 16 0
BBX 16 16 0 -2
BITMAP 
0000
000C
0012
0012
000C
0000
0000
0000
0000
0000
0000
0000
0000
0000
0000
0000
ENDCHAR
STARTCHAR U+309B
ENCODING 12443
SWIDTH 1000 0
DWIDTH 16 0
BBX 16 16 0 -2
BITMAP 
0000
5000
5000
0000
0000
0000
0000
0000
0000
0000
0000
0000
0000
0000
0000
0000
ENDCHAR
STARTCHAR U+309C
ENCODING 12444
SWIDTH 1000 0
DWIDTH 16 0
BBX 16 16 0 -2
BITMAP 
0000
3000
4800
4800
3000
0000
0000
0000
0000
0000
0000
0000
0000
0000
0000
0000
ENDCHAR
STARTCHAR U+309D
ENCODING 12445
SWIDTH 1000 0
DWIDTH 16 0
BBX 16 16 0 -2
BITMAP 
0000
0000
0000
0000
0000
0C00
0300
00C0
0020
0010
0020
00C0
0000
0000
0000
0000
ENDCHAR
STARTCHAR U+309E
ENCODING 12446
SWIDTH 1000 0
DWIDTH 16 0
BBX 16 16 0 -2
BITMAP 
0000
0000
0000
0020
0050
0C20
0300
00C0
0020
0010
0020
00C0
0000
0000
0000
0000
ENDCHAR
STARTCHAR U+309F
ENCODING 12447
SWIDTH 1000 0
DWIDTH 16 0
BBX 16 16 0 -2
BITMAP 
0000
0800
0800
0800
0FE0
0800
0800
09E0
0A10
0C10
0410
0020
0020
0040
0180
0000
ENDCHAR
STARTCHAR U+30A0
ENCODING 12448
SWIDTH 1000 0
DWIDTH 16 0
BBX 16 16 0 -2
BITMAP 
0000
0000
0000
0000
0000
07E0
0000
0000
0000
07E0
0000
0000
0000
0000
0000
0000
ENDCHAR
STARTCHAR U+30A1
ENCODING 12449
SWIDTH 1000 0
DWIDTH 16 0
BBX 16 16 0 -2
BITMAP 
0000
0000
0000
0000
0000
0000
0000
0000
0FE0
0020
0140
0100
0100
0100
0200
0400
ENDCHAR
STARTCHAR U+30A2
ENCODING 12450
SWIDTH 1000 0
DWIDTH 16 0
BBX 16 16 0 -2
BITMAP 
0000
0000
0000
1FFC
0004
0088
0090
0080
0080
0080
0100
0100
0200
0400
0000
0000
ENDCHAR
STARTCHAR U+30A3
ENCODING 12451
SWIDTH 1000 0
DWIDTH 16 0
BBX 16 16 0 -2
BITMAP 
0000
0000
0000
0000
0000
0000
0020
0020
0040
0180
0E80
0080
0080
0080
0080
0080
ENDCHAR
STARTCHAR U+30A4
ENCODING 12452
SWIDTH 1000 0
DWIDTH 16 0
BBX 16 16 0 -2
BITMAP 
0000
0000
0010
0010
0020
0040
0080
0180
0680
1880
0080
0080
0080
0080
0080
0000
ENDCHAR
STARTCHAR U+30A5
ENCODING 12453
SWIDTH 1000 0
DWIDTH 16 0
BBX 16 16 0 -2
BITMAP 
0000
0000
0000
0000
0080
0080
0080
0FF8
0808
0808
0008
0010
0010
0060
0180
0000
ENDCHAR
STARTCHAR U+30A6
ENCODING 12454
SWIDTH 1000 0
DWIDTH 16 0
BBX 16 16 0 -2
BITMAP 
0000
0080
0080
0080
1FFC
1004
1004
1004
0004
0008
0008
0010
0060
0180
0000
0000
ENDCHAR
STARTCHAR U+30A7
ENCODING 12455
SWIDTH 1000 0
DWIDTH 16 0
BBX 16 16 0 -2
BITMAP 
0000
0000
0000
0000
0000
0000
0000
0000
0000
07F0
0080
0080
0080
0080
0FF8
0000
ENDCHAR
STARTCHAR U+30A8
ENCODING 12456
SWIDTH 1000 0
DWIDTH 16 0
BBX 16 16 0 -2
BITMAP 
0000
0000
0000
0000
0FF8
0080
0080
0080
0080
0080
0080
0080
3FFE
0000
0000
0000
ENDCHAR
STARTCHAR U+30A9
ENCODING 12457
SWIDTH 1000 0
DWIDTH 16 0
BBX 16 16 0 -2
BITMAP 
0000
0000
0000
0000
0000
0000
0020
0020
07F8
0020
0060
00A0
0120
0620
0020
0060
ENDCHAR
STARTCHAR U+30AA
ENCODING 12458
SWIDTH 1000 0
DWIDTH 16 0
BBX 16 16 0 -2
BITMAP 
0000
0020
0020
0020
3FFE
0020
0060
00A0
0120
0220
0C20
3020
0020
00E0
0000
0000
ENDCHAR
STARTCHAR U+30AB
ENCODING 12459
SWIDTH 1000 0
DWIDTH 16 0
BBX 16 16 0 -2
BITMAP 
0100
0100
0100
0100
3FFC
0104
0104
0204
0204
0404
0404
0808
1008
2070
0000
0000
ENDCHAR
STARTCHAR U+30AC
ENCODING 12460
SWIDTH 1000 0
DWIDTH 16 0
BBX 16 16 0 -2
BITMAP 
0102
0105
0102
0100
3FFC
0104
0104
0204
0204
0404
0404
0808
1008
2070
0000
0000
ENDCHAR
STARTCHAR U+30AD
ENCODING 12461
SWIDTH 1000 0
DWIDTH 16 0
BBX 16 16 0 -2
BITMAP 
0000
0100
0100
0100
00F8
1F80
0080
0080
00FE
3F80
0040
0040
0040
0040
0040
0000
ENDCHAR
STARTCHAR U+30AE
ENCODING 12462
SWIDTH 1000 0
DWIDTH 16 0
BBX 16 16 0 -2
BITMAP 
0000
0104
010A
0104
00F8
1F80
0080
0080
00FE
3F80
0040
0040
0040
0040
0040
0000
ENDCHAR
STARTCHAR U+30AF
ENCODING 12463
SWIDTH 1000 0
DWIDTH 16 0
BBX 16 16 0 -2
BITMAP 
0000
0100
0100
01F8
0208
0208
0410
0810
0020
0020
0040
0080
0300
0C00
0000
0000
ENDCHAR
STARTCHAR U+30B0
ENCODING 12464
SWIDTH 1000 0
DWIDTH 16 0
BBX 16 16 0 -2
BITMAP 
0002
0105
0102
01F8
0208
0208
0410
0810
0020
0020
0040
0080
0300
0C00
0000
0000
ENDCHAR
STARTCHAR U+30B1
ENCODING 12465
SWIDTH 1000 0
DWIDTH 16 0
BBX 16 16 0 -2
BITMAP 
0000
0200
0200
0200
0400
07FE
0810
1010
2010
0020
0020
0040
0080
0300
0000
0000
ENDCHAR
STARTCHAR U+30B2
ENCODING 12466
SWIDTH 1000 0
DWIDTH 16 0
BBX 16 16 0 -2
BITMAP 
0000
0202
0205
0202
0400
07FE
0810
1010
2010
0020
0020
0040
0080
0300
0000
0000
ENDCHAR
STARTCHAR U+30B3
ENCODING 12467
SWIDTH 1000 0
DWIDTH 16 0
BBX 16 16 0 -2
BITMAP 
0000
0000
0000
0000
1FF8
0008
0008
0008
0008
0008
0008
0008
1FF8
0008
0000
0000
ENDCHAR
STARTCHAR U+30B4
ENCODING 12468
SWIDTH 1000 0
DWIDTH 16 0
BBX 16 16 0 -2
BITMAP 
0000
0002
0005
0002
1FF8
0008
0008
0008
0008
0008
0008
0008
1FF8
0008
0000
0000
ENDCHAR
STARTCHAR U+30B5
ENCODING 12469
SWIDTH 1000 0
DWIDTH 16 0
BBX 16 16 0 -2
BITMAP 
0000
0010
0410
0410
0410
3FFE
0410
0410
0410
0410
0010
0020
0020
0040
0180
0000
ENDCHAR
STARTCHAR U+30B6
ENCODING 12470
SWIDTH 1000 0
DWIDTH 16 0
BBX 16 16 0 -2
BITMAP 
0002
0015
0412
0410
0410
3FFE
0410
0410
0410
0410
0010
0020
0020
0040
0180
0000
ENDCHAR
STARTCHAR U+30B7
ENCODING 12471
SWIDTH 1000 0
DWIDTH 16 0
BBX 16 16 0 -2
BITMAP 
0000
0000
0800
0600
0000
0000
1000
0C04
0008
0010
0020
0040
0180
0E00
0000
0000
ENDCHAR
STARTCHAR U+30B8
ENCODING 12472
SWIDTH 1000 0
DWIDTH 16 0
BBX 16 16 0 -2
BITMAP 
0000
0008
0C14
0208
0000
0000
1800
0404
0008
0010
0020
0040
0180
0E00
0000
0000
ENDCHAR
STARTCHAR U+30B9
ENCODING 12473
SWIDTH 1000 0
DWIDTH 16 0
BBX 16 16 0 -2
BITMAP 
0000
0000
0000
0FF0
0010
0010
0020
0020
0040
00A0
0110
0208
0404
1804
0000
0000
ENDCHAR
STARTCHAR U+30BA
ENCODING 12474
SWIDTH 1000 0
DWIDTH 16 0
BBX 16 16 0 -2
BITMAP 
0000
0002
0005
0FF2
0010
0010
0020
0020
0040
00A0
0110
0208
0404
1804
0000
0000
ENDCHAR
STARTCHAR U+30BB
ENCODING 12475
SWIDTH 1000 0
DWIDTH 16 0
BBX 16 16 0 -2
BITMAP 
0000
0400
0400
0400
0478
078C
3C10
0420
0440
0400
0400
0400
03F0
0000
0000
0000
ENDCHAR
STARTCHAR U+30BC
ENCODING 12476
SWIDTH 1000 0
DWIDTH 16 0
BBX 16 16 0 -2
BITMAP 
0000
0402
0405
0402
0478
078C
3C10
0420
0440
0400
0400
0400
03F0
0000
0000
0000
ENDCHAR
STARTCHAR U+30BD
ENCODING 12477
SWIDTH 1000 0
DWIDTH 16 0
BBX 16 16 0 -2
BITMAP 
0000
0000
1008
1008
0808
0808
0410
0010
0020
0020
0040
0080
0100
0200
0000
0000
ENDCHAR
STARTCHAR U+30BE
ENCODING 12478
SWIDTH 1000 0
DWIDTH 16 0
BBX 16 16 0 -2
BITMAP 
0002
0005
1002
1008
0808
0808
0410
0010
0020
0020
0040
0080
0100
0200
0000
0000
ENDCHAR
STARTCHAR U+30BF
ENCODING 12479
SWIDTH 1000 0
DWIDTH 16 0
BBX 16 16 0 -2
BITMAP 
0000
0100
0100
01F8
0208
0208
0410
0B10
00E0
0020
0050
0080
0300
0C00
0000
0000
ENDCHAR
STARTCHAR U+30C0
ENCODING 12480
SWIDTH 1000 0
DWIDTH 16 0
BBX 16 16 0 -2
BITMAP 
0002
0105
0102
01F8
0208
0208
0410
0B10
00E0
0020
0050
0080
0300
0C00
0000
0000
ENDCHAR
STARTCHAR U+30C1
ENCODING 12481
SWIDTH 1000 0
DWIDTH 16 0
BBX 16 16 0 -2
BITMAP 
0000
0010
00E0
1F00
0080
0080
0080
7FFE
0080
0080
0080
0100
0100
0200
0400
0000
ENDCHAR
STARTCHAR U+30C2
ENCODING 12482
SWIDTH 1000 0
DWIDTH 16 0
BBX 16 16 0 -2
BITMAP 
0000
0010
00E4
1F0A
0084
0080
0080
7FFE
0080
0080
0080
0100
0100
0200
0400
0000
ENDCHAR
STARTCHAR U+30C3
ENCODING 12483
SWIDTH 1000 0
DWIDTH 16 0
BBX 16 16 0 -2
BITMAP 
0000
0000
0000
0000
0000
0000
0000
0000
0100
0888
0488
0410
0010
0020
0040
0080
ENDCHAR
STARTCHAR U+30C4
ENCODING 12484
SWIDTH 1000 0
DWIDTH 16 0
BBX 16 16 0 -2
BITMAP 
0000
0000
0200
0200
2104
1104
1008
0008
0010
0010
0020
0040
0080
0100
0200
0000
ENDCHAR
STARTCHAR U+30C5
ENCODING 12485
SWIDTH 1000 0
DWIDTH 16 0
BBX 16 16 0 -2
BITMAP 
0002
0005
0202
0200
2104
1104
1008
0008
0010
0010
0020
0040
0080
0100
0200
0000
ENDCHAR
STARTCHAR U+30C6
ENCODING 12486
SWIDTH 1000 0
DWIDTH 16 0
BBX 16 16 0 -2
BITMAP 
0000
0000
0FF8
0000
0000
0000
3FFE
0040
0040
0040
0080
0080
0100
0600
0000
0000
ENDCHAR
STARTCHAR U+30C7
ENCODING 12487
SWIDTH 1000 0
DWIDTH 16 0
BBX 16 16 0 -2
BITMAP 
0002
0005
0FF2
0000
0000
0000
3FFE
0040
0040
0040
0080
0080
0100
0600
0000
0000
ENDCHAR
STARTCHAR U+30C8
ENCODING 12488
SWIDTH 1000 0
DWIDTH 16 0
BBX 16 16 0 -2
BITMAP 
0000
0200
0200
0200
0200
0200
03C0
0230
0208
0200
0200
0200
0200
0200
0200
0000
ENDCHAR
STARTCHAR U+30C9
ENCODING 12489
SWIDTH 1000 0
DWIDTH 16 0
BBX 16 16 0 -2
BITMAP 
0000
0200
0208
0214
0208
0200
03C0
0230
0208
0200
0200
0200
0200
0200
0200
0000
ENDCHAR
STARTCHAR U+30CA
ENCODING 12490
SWIDTH 1000 0
DWIDTH 16 0
BBX 16 16 0 -2
BITMAP 
0000
0080
0080
0080
0080
3FFC
0080
0080
0080
0080
0100
0100
0200
0400
0800
0000
ENDCHAR
STARTCHAR U+30CB
ENCODING 12491
SWIDTH 1000 0
DWIDTH 16 0
BBX 16 16 0 -2
BITMAP 
0000
0000
0000
0000
0FF8
0000
0000
0000
0000
0000
0000
3FFE
0000
0000
0000
0000
ENDCHAR
STARTCHAR U+30CC
ENCODING 12492
SWIDTH 1000 0
DWIDTH 16 0
BBX 16 16 0 -2
BITMAP 
0000
0000
0000
0FF0
0010
0010
0020
0220
0140
0080
0140
0220
0410
1808
0000
0000
ENDCHAR
STARTCHAR U+30CD
ENCODING 12493
SWIDTH 1000 0
DWIDTH 16 0
BBX 16 16 0 -2
BITMAP 
0000
0080
0080
0080
0FF0
0010
0060
0080
0398
0C84
3082
0080
0080
0080
0080
0000
ENDCHAR
STARTCHAR U+30CE
ENCODING 12494
SWIDTH 1000 0
DWIDTH 16 0
BBX 16 16 0 -2
BITMAP 
0000
0000
0010
0010
0010
0010
0020
0020
0040
0040
0080
0100
0600
1800
0000
0000
ENDCHAR
STARTCHAR U+30CF
ENCODING 12495
SWIDTH 1000 0
DWIDTH 16 0
BBX 16 16 0 -2
BITMAP 
0000
0000
0000
0000
0400
0440
0420
0810
0808
1004
1004
2002
4002
0000
0000
0000
ENDCHAR
STARTCHAR U+30D0
ENCODING 12496
SWIDTH 1000 0
DWIDTH 16 0
BBX 16 16 0 -2
BITMAP 
0000
0000
0004
000A
0404
0440
0420
0810
0808
1004
1004
2002
4002
0000
0000
0000
ENDCHAR
STARTCHAR U+30D1
ENCODING 12497
SWIDTH 1000 0
DWIDTH 16 0
BBX 16 16 0 -2
BITMAP 
0000
0000
000C
0012
0412
044C
0420
0810
0808
1004
1004
2002
4002
0000
0000
0000
ENDCHAR
STARTCHAR U+30D2
ENCODING 12498
SWIDTH 1000 0
DWIDTH 16 0
BBX 16 16 0 -2
BITMAP 
0000
0000
0800
0800
0808
0830
08C0
0F00
0800
0800
0800
0800
0800
07F8
0000
0000
ENDCHAR
STARTCHAR U+30D3
ENCODING 12499
SWIDTH 1000 0
DWIDTH 16 0
BBX 16 16 0 -2
BITMAP 
0000
0008
0814
0808
0800
0810
08E0
0F00
0800
0800
0800
0800
0800
07F0
0000
0000
ENDCHAR
STARTCHAR U+30D4
ENCODING 12500
SWIDTH 1000 0
DWIDTH 16 0
BBX 16 16 0 -2
BITMAP 
0000
0018
0824
0824
0818
0810
08E0
0F00
0800
0800
0800
0800
0800
07F0
0000
0000
ENDCHAR
STARTCHAR U+30D5
ENCODING 12501
SWIDTH 1000 0
DWIDTH 16 0
BBX 16 16 0 -2
BITMAP 
0000
0000
0000
1FFC
0004
0004
0004
0008
0008
0010
0020
0040
0180
0600
0000
0000
ENDCHAR
STARTCHAR U+30D6
ENCODING 12502
SWIDTH 1000 0
DWIDTH 16 0
BBX 16 16 0 -2
BITMAP 
0002
0005
0002
1FFC
0004
0004
0004
0008
0008
0010
0020
0040
0180
0600
0000
0000
ENDCHAR
STARTCHAR U+30D7
ENCODING 12503
SWIDTH 1000 0
DWIDTH 16 0
BBX 16 16 0 -2
BITMAP 
0006
0009
0009
1FFE
0004
0004
0004
0008
0008
0010
0020
0040
0180
0600
0000
0000
ENDCHAR
STARTCHAR U+30D8
ENCODING 12504
SWIDTH 1000 0
DWIDTH 16 0
BBX 16 16 0 -2
BITMAP 
0000
0000
0000
0000
0000
0600
0900
1080
2040
4020
0018
0006
0000
0000
0000
0000
ENDCHAR
STARTCHAR U+30D9
ENCODING 12505
SWIDTH 1000 0
DWIDTH 16 0
BBX 16 16 0 -2
BITMAP 
0000
0000
0000
0000
0010
0628
0910
1080
2040
4020
0018
0006
0000
0000
0000
0000
ENDCHAR
STARTCHAR U+30DA
ENCODING 12506
SWIDTH 1000 0
DWIDTH 16 0
BBX 16 16 0 -2
BITMAP 
0000
0000
0000
0030
0048
0648
0930
1080
2040
4020
0018
0006
0000
0000
0000
0000
ENDCHAR
STARTCHAR U+30DB
ENCODING 12507
SWIDTH 1000 0
DWIDTH 16 0
BBX 16 16 0 -2
BITMAP 
0000
0080
0080
0080
1FFC
0080
0080
0080
0888
0884
1082
2082
0080
0380
0000
0000
ENDCHAR
STARTCHAR U+30DC
ENCODING 12508
SWIDTH 1000 0
DWIDTH 16 0
BBX 16 16 0 -2
BITMAP 
0000
0082
0085
0082
1FFC
0080
0080
0080
0888
0884
1082
2082
0080
0380
0000
0000
ENDCHAR
STARTCHAR U+30DD
ENCODING 12509
SWIDTH 1000 0
DWIDTH 16 0
BBX 16 16 0 -2
BITMAP 
0006
0089
0089
0086
1FF8
0080
0080
0080
0888
0884
1082
2082
0080
0380
0000
0000
ENDCHAR
STARTCHAR U+30DE
ENCODING 12510
SWIDTH 1000 0
DWIDTH 16 0
BBX 16 16 0 -2
BITMAP 
0000
0000
0000
3FFC
0004
0008
0008
0010
0C20
0340
0080
0040
0020
0000
0000
0000
ENDCHAR
STARTCHAR U+30DF
ENCODING 12511
SWIDTH 1000 0
DWIDTH 16 0
BBX 16 16 0 -2
BITMAP 
0000
0000
0380
0060
0010
0000
0300
00C0
0020
0000
0000
0E00
0180
0060
0010
0000
ENDCHAR
STARTCHAR U+30E0
ENCODING 12512
SWIDTH 1000 0
DWIDTH 16 0
BBX 16 16 0 -2
BITMAP 
0000
0000
0200
0200
0200
0200
0200
0200
0420
0410
0408
0838
09C4
3E04
0000
0000
ENDCHAR
STARTCHAR U+30E1
ENCODING 12513
SWIDTH 1000 0
DWIDTH 16 0
BBX 16 16 0 -2
BITMAP 
0000
0000
0008
0008
0008
0010
0310
00A0
0060
0050
0088
0100
0600
1800
0000
0000
ENDCHAR
STARTCHAR U+30E2
ENCODING 12514
SWIDTH 1000 0
DWIDTH 16 0
BBX 16 16 0 -2
BITMAP 
0000
0000
0000
1FF0
0200
0200
0200
3FFC
0200
0200
0200
0200
0200
01F0
0000
0000
ENDCHAR
STARTCHAR U+30E3
ENCODING 12515
SWIDTH 1000 0
DWIDTH 16 0
BBX 16 16 0 -2
BITMAP 
0000
0000
0000
0000
0000
0400
0400
0238
03C8
1E10
0120
0100
0100
0080
0080
0080
ENDCHAR
STARTCHAR U+30E4
ENCODING 12516
SWIDTH 1000 0
DWIDTH 16 0
BBX 16 16 0 -2
BITMAP 
0000
0000
0800
0800
041C
04E2
0704
3A08
0210
0100
0100
0100
0080
0080
0080
0000
ENDCHAR
STARTCHAR U+30E5
ENCODING 12517
SWIDTH 1000 0
DWIDTH 16 0
BBX 16 16 0 -2
BITMAP 
0000
0000
0000
0000
0000
0000
0000
0000
07C0
0040
0040
0040
0080
0080
1FF8
0000
ENDCHAR
STARTCHAR U+30E6
ENCODING 12518
SWIDTH 1000 0
DWIDTH 16 0
BBX 16 16 0 -2
BITMAP 
0000
0000
0000
0000
0FF0
0010
0010
0010
0010
0020
0020
0020
3FFE
0000
0000
0000
ENDCHAR
STARTCHAR U+30E7
ENCODING 12519
SWIDTH 1000 0
DWIDTH 16 0
BBX 16 16 0 -2
BITMAP 
0000
0000
0000
0000
0000
0000
0000
07E0
0020
0020
07E0
0020
0020
0020
07E0
0020
ENDCHAR
STARTCHAR U+30E8
ENCODING 12520
SWIDTH 1000 0
DWIDTH 16 0
BBX 16 16 0 -2
BITMAP 
0000
0000
1FF0
0010
0010
0010
0010
0FF0
0010
0010
0010
0010
1FF0
0010
0000
0000
ENDCHAR
STARTCHAR U+30E9
ENCODING 12521
SWIDTH 1000 0
DWIDTH 16 0
BBX 16 16 0 -2
BITMAP 
0000
0000
07F0
0000
0000
0000
1FFC
0004
0008
0008
0010
0020
00C0
0300
0000
0000
ENDCHAR
STARTCHAR U+30EA
ENCODING 12522
SWIDTH 1000 0
DWIDTH 16 0
BBX 16 16 0 -2
BITMAP 
0000
0010
0810
0810
0810
0810
0810
0810
0810
0010
0010
0020
0020
0040
0180
0000
ENDCHAR
STARTCHAR U+30EB
ENCODING 12523
SWIDTH 1000 0
DWIDTH 16 0
BBX 16 16 0 -2
BITMAP 
0000
0000
0040
0040
0440
0440
0440
0440
0440
0840
0841
1042
204C
4070
0000
0000
ENDCHAR
STARTCHAR U+30EC
ENCODING 12524
SWIDTH 1000 0
DWIDTH 16 0
BBX 16 16 0 -2
BITMAP 
0000
0000
0400
0400
0400
0400
0400
0400
0400
0408
0410
0420
04C0
0700
0000
0000
ENDCHAR
STARTCHAR U+30ED
ENCODING 12525
SWIDTH 1000 0
DWIDTH 16 0
BBX 16 16 0 -2
BITMAP 
0000
0000
0000
0000
1FF8
1008
1008
1008
1008
1008
1008
1008
1FF8
1008
0000
0000
ENDCHAR
STARTCHAR U+30EE
ENCODING 12526
SWIDTH 1000 0
DWIDTH 16 0
BBX 16 16 0 -2
BITMAP 
0000
0000
0000
0000
0000
0000
0000
0FF0
0810
0810
0810
0010
0020
0020
0040
0180
ENDCHAR
STARTCHAR U+30EF
ENCODING 12527
SWIDTH 1000 0
DWIDTH 16 0
BBX 16 16 0 -2
BITMAP 
0000
0000
0000
1FFC
1004
1004
1004
1004
0004
0004
0008
0008
0010
0060
0180
0000
ENDCHAR
STARTCHAR U+30F0
ENCODING 12528
SWIDTH 1000 0
DWIDTH 16 0
BBX 16 16 0 -2
BITMAP 
0000
0020
0020
0020
0FFC
0420
0420
0420
0420
3FFE
0020
0020
0020
0020
0020
0000
ENDCHAR
STARTCHAR U+30F1
ENCODING 12529
SWIDTH 1000 0
DWIDTH 16 0
BBX 16 16 0 -2
BITMAP 
0000
0000
0000
0000
0FF8
0008
0010
00A0
0080
0080
0080
0080
3FFE
0000
0000
0000
ENDCHAR
STARTCHAR U+30F2
ENCODING 12530
SWIDTH 1000 0
DWIDTH 16 0
BBX 16 16 0 -2
BITMAP 
0000
0000
0000
0FF8
0008
0008
1FF8
0008
0010
0010
0020
0040
0180
0600
0000
0000
ENDCHAR
STARTCHAR U+30F3
ENCODING 12531
SWIDTH 1000 0
DWIDTH 16 0
BBX 16 16 0 -2
BITMAP 
0000
0000
0000
1800
0400
0204
0004
0008
0008
0010
0020
0040
0180
0E00
0000
0000
ENDCHAR
STARTCHAR U+30F4
ENCODING 12532
SWIDTH 1000 0
DWIDTH 16 0
BBX 16 16 0 -2
BITMAP 
0002
0085
0082
0080
1FFC
1004
1004
1004
0004
0008
0008
0010
0060
0180
0000
0000
ENDCHAR
STARTCHAR U+30F5
ENCODING 12533
SWIDTH 1000 0
DWIDTH 16 0
BBX 16 16 0 -2
BITMAP 
0000
0000
0000
0000
0000
0080
0080
0080
0FF8
0088
0108
0108
0208
0410
0810
0060
ENDCHAR
STARTCHAR U+30F6
ENCODING 12534
SWIDTH 1000 0
DWIDTH 16 0
BBX 16 16 0 -2
BITMAP 
0000
0000
0000
0000
0000
0200
0200
0200
07FC
0420
0820
0020
0040
0040
0080
0300
ENDCHAR
STARTCHAR U+30F7
ENCODING 12535
SWIDTH 1000 0
DWIDTH 16 0
BBX 16 16 0 -2
BITMAP 
0002
0005
0002
1FFC
1004
1004
1004
1004
0004
0004
0008
0008
0010
0060
0180
0000
ENDCHAR
STARTCHAR U+30F8
ENCODING 12536
SWIDTH 1000 0
DWIDTH 16 0
BBX 16 16 0 -2
BITMAP 
0000
0022
0025
0022
0FFC
0420
0420
0420
0420
3FFE
0020
0020
0020
0020
0020
0000
ENDCHAR
STARTCHAR U+30F9
ENCODING 12537
SWIDTH 1000 0
DWIDTH 16 0
BBX 16 16 0 -2
BITMAP 
0000
0002
0005
0002
0FF8
0008
0010
00A0
0080
0080
0080
0080
3FFE
0000
0000
0000
ENDCHAR
STARTCHAR U+30FA
ENCODING 12538
SWIDTH 1000 0
DWIDTH 16 0
BBX 16 16 0 -2
BITMAP 
0002
0005
0002
0FF8
0008
0008
1FF8
0008
0010
0010
0020
0040
0180
0600
0000
0000
ENDCHAR
STARTCHAR U+30FB
ENCODING 12539
SWIDTH 1000 0
DWIDTH 16 0
BBX 16 16 0 -2
BITMAP 
0000
0000
0000
0000
0000
0000
0000
0180
0180
0000
0000
0000
0000
0000
0000
0000
ENDCHAR
STARTCHAR U+30FC
ENCODING 12540
SWIDTH 1000 0
DWIDTH 16 0
BBX 16 16 0 -2
BITMAP 
0000
0000
0000
0000
0000
0000
0000
2000
1FFE
0000
0000
0000
0000
0000
0000
0000
ENDCHAR
STARTCHAR U+30FD
ENCODING 12541
SWIDTH 1000 0
DWIDTH 16 0
BBX 16 16 0 -2
BITMAP 
0000
0000
0000
0000
0000
0600
0180
0040
0020
0010
0010
0000
0000
0000
0000
0000
ENDCHAR
STARTCHAR U+30FE
ENCODING 12542
SWIDTH 1000 0
DWIDTH 16 0
BBX 16 16 0 -2
BITMAP 
0000
0000
0000
0010
0028
0610
0180
0040
0020
0010
0010
0000
0000
0000
0000
0000
ENDCHAR
STARTCHAR U+30FF
ENCODING 12543
SWIDTH 1000 0
DWIDTH 16 0
BBX 16 16 0 -2
BITMAP 
0000
0000
1FF8
0008
0008
0008
0008
0008
0008
0008
0008
0008
0008
0008
0008
0000
ENDCHAR
ENDFONT
