STARTFONT 2.1
FONT -gnu-Unifont Japanese-Medium-R-Normal-Sans-16-160-75-75-c-80-iso10646-1
SIZE 16 75 75
FONTBOUNDINGBOX 16 16 0 -2
STARTPROPERTIES 23
COPYRIGHT "Copyright (C) 1998-2024 Roman Czyborra, Paul Hardy, Qianqian Fang, Andrew Miller, Johnnie Weaver, David Corbett, Nils Moskopp, Rebecca Bettencourt, Minseo Lee, Ho-Seok Ee, et al. License: SIL Open Font License version 1.1 and GPLv2+: GNU GPL version 2 or later <http://gnu.org/licenses/gpl.html> with the GNU Font Embedding Exception."
FONT_VERSION "16.0.01"
FONT_TYPE "Bitmap"
FOUNDRY "GNU"
FAMILY_NAME "Unifont Japanese"
WEIGHT_NAME "Medium"
SLANT "R"
SETWIDTH_NAME "Normal"
ADD_STYLE_NAME "Sans Serif"
PIXEL_SIZE 16
POINT_SIZE 160
RESOLUTION_X 75
RESOLUTION_Y 75
SPACING "C"
AVERAGE_WIDTH 80
CHARSET_REGISTRY "ISO10646"
CHARSET_ENCODING "1"
UNDERLINE_POSITION -2
UNDERLINE_THICKNESS 1
CAP_HEIGHT 10
X_HEIGHT 8
FONT_ASCENT 14
FONT_DESCENT 2
ENDPROPERTIES
CHARS 286
STARTCHAR U+0020
ENCODING 32
SWIDTH 500 0
DWIDTH 8 0
BBX 8 16 0 -2
BITMAP 
00
00
00
00
00
00
00
00
00
00
00
00
00
00
00
00
ENDCHAR
STARTCHAR U+0021
ENCODING 33
SWIDTH 500 0
DWIDTH 8 0
BBX 8 16 0 -2
BITMAP 
00
00
00
00
0C
0C
0C
0C
0C
0C
0C
0C
0C
0C
0C
00
ENDCHAR
STARTCHAR U+0022
ENCODING 34
SWIDTH 500 0
DWIDTH 8 0
BBX 8 16 0 -2
BITMAP 
00
00
33
33
33
33
33
00
00
00
00
00
00
00
00
00
ENDCHAR
STARTCHAR U+0023
ENCODING 35
SWIDTH 500 0
DWIDTH 8 0
BBX 8 16 0 -2
BITMAP 
00
00
00
00
1B
1B
1B
7F
7F
36
7F
7F
6C
6C
6C
00
ENDCHAR
STARTCHAR U+0024
ENCODING 36
SWIDTH 500 0
DWIDTH 8 0
BBX 8 16 0 -2
BITMAP 
00
00
00
00
0C
3F
7F
6D
7C
3F
0F
6D
7F
3F
0C
00
ENDCHAR
STARTCHAR U+0025
ENCODING 37
SWIDTH 500 0
DWIDTH 8 0
BBX 8 16 0 -2
BITMAP 
00
00
00
00
39
7F
6F
7F
3E
0C
1F
3F
3D
7F
67
00
ENDCHAR
STARTCHAR U+0026
ENCODING 38
SWIDTH 500 0
DWIDTH 8 0
BBX 8 16 0 -2
BITMAP 
00
00
00
00
1E
3F
33
3F
1E
3D
7F
67
67
7F
3D
00
ENDCHAR
STARTCHAR U+0027
ENCODING 39
SWIDTH 500 0
DWIDTH 8 0
BBX 8 16 0 -2
BITMAP 
00
00
0C
0C
0C
0C
0C
00
00
00
00
00
00
00
00
00
ENDCHAR
STARTCHAR U+0028
ENCODING 40
SWIDTH 500 0
DWIDTH 8 0
BBX 8 16 0 -2
BITMAP 
00
00
00
06
0E
0C
1C
18
18
18
18
18
1C
0C
0E
06
ENDCHAR
STARTCHAR U+0029
ENCODING 41
SWIDTH 500 0
DWIDTH 8 0
BBX 8 16 0 -2
BITMAP 
00
00
00
30
38
18
1C
0C
0C
0C
0C
0C
1C
18
38
30
ENDCHAR
STARTCHAR U+002A
ENCODING 42
SWIDTH 500 0
DWIDTH 8 0
BBX 8 16 0 -2
BITMAP 
00
00
00
00
00
00
0C
6D
7F
3F
3F
7F
6D
0C
00
00
ENDCHAR
STARTCHAR U+002B
ENCODING 43
SWIDTH 500 0
DWIDTH 8 0
BBX 8 16 0 -2
BITMAP 
00
00
00
00
00
00
0C
0C
0C
7F
7F
0C
0C
0C
00
00
ENDCHAR
STARTCHAR U+002C
ENCODING 44
SWIDTH 500 0
DWIDTH 8 0
BBX 8 16 0 -2
BITMAP 
00
00
00
00
00
00
00
00
00
00
00
00
1C
1C
0C
1C
ENDCHAR
STARTCHAR U+002D
ENCODING 45
SWIDTH 500 0
DWIDTH 8 0
BBX 8 16 0 -2
BITMAP 
00
00
00
00
00
00
00
00
00
3E
3E
00
00
00
00
00
ENDCHAR
STARTCHAR U+002E
ENCODING 46
SWIDTH 500 0
DWIDTH 8 0
BBX 8 16 0 -2
BITMAP 
00
00
00
00
00
00
00
00
00
00
00
00
1C
1C
1C
00
ENDCHAR
STARTCHAR U+002F
ENCODING 47
SWIDTH 500 0
DWIDTH 8 0
BBX 8 16 0 -2
BITMAP 
00
00
00
00
03
03
07
0E
0C
1C
18
38
70
60
60
00
ENDCHAR
STARTCHAR U+0030
ENCODING 48
SWIDTH 500 0
DWIDTH 8 0
BBX 8 16 0 -2
BITMAP 
00
00
00
00
1C
3E
77
67
6F
7F
7B
73
77
3E
1C
00
ENDCHAR
STARTCHAR U+0031
ENCODING 49
SWIDTH 500 0
DWIDTH 8 0
BBX 8 16 0 -2
BITMAP 
00
00
00
00
0C
1C
3C
3C
0C
0C
0C
0C
0C
3F
3F
00
ENDCHAR
STARTCHAR U+0032
ENCODING 50
SWIDTH 500 0
DWIDTH 8 0
BBX 8 16 0 -2
BITMAP 
00
00
00
00
3E
7F
63
63
0F
1E
38
70
60
7F
7F
00
ENDCHAR
STARTCHAR U+0033
ENCODING 51
SWIDTH 500 0
DWIDTH 8 0
BBX 8 16 0 -2
BITMAP 
00
00
00
00
3E
7F
63
63
1F
1F
03
63
63
7F
3E
00
ENDCHAR
STARTCHAR U+0034
ENCODING 52
SWIDTH 500 0
DWIDTH 8 0
BBX 8 16 0 -2
BITMAP 
00
00
00
00
06
0E
1E
3E
76
66
7F
7F
06
06
06
00
ENDCHAR
STARTCHAR U+0035
ENCODING 53
SWIDTH 500 0
DWIDTH 8 0
BBX 8 16 0 -2
BITMAP 
00
00
00
00
7F
7F
60
60
7E
7F
03
03
63
7F
3E
00
ENDCHAR
STARTCHAR U+0036
ENCODING 54
SWIDTH 500 0
DWIDTH 8 0
BBX 8 16 0 -2
BITMAP 
00
00
00
00
1E
3E
70
60
7E
7F
63
63
63
7F
3E
00
ENDCHAR
STARTCHAR U+0037
ENCODING 55
SWIDTH 500 0
DWIDTH 8 0
BBX 8 16 0 -2
BITMAP 
00
00
00
00
7F
7F
03
07
06
06
0E
0C
0C
0C
0C
00
ENDCHAR
STARTCHAR U+0038
ENCODING 56
SWIDTH 500 0
DWIDTH 8 0
BBX 8 16 0 -2
BITMAP 
00
00
00
00
3E
7F
63
63
7F
7F
63
63
63
7F
3E
00
ENDCHAR
STARTCHAR U+0039
ENCODING 57
SWIDTH 500 0
DWIDTH 8 0
BBX 8 16 0 -2
BITMAP 
00
00
00
00
3E
7F
63
63
7F
3F
03
03
07
3E
3C
00
ENDCHAR
STARTCHAR U+003A
ENCODING 58
SWIDTH 500 0
DWIDTH 8 0
BBX 8 16 0 -2
BITMAP 
00
00
00
00
00
00
1C
1C
1C
00
00
1C
1C
1C
00
00
ENDCHAR
STARTCHAR U+003B
ENCODING 59
SWIDTH 500 0
DWIDTH 8 0
BBX 8 16 0 -2
BITMAP 
00
00
00
00
00
00
1C
1C
1C
00
00
1C
1C
0C
1C
18
ENDCHAR
STARTCHAR U+003C
ENCODING 60
SWIDTH 500 0
DWIDTH 8 0
BBX 8 16 0 -2
BITMAP 
00
00
00
00
00
03
07
0E
1C
38
38
1C
0E
07
03
00
ENDCHAR
STARTCHAR U+003D
ENCODING 61
SWIDTH 500 0
DWIDTH 8 0
BBX 8 16 0 -2
BITMAP 
00
00
00
00
00
00
00
7F
7F
00
00
7F
7F
00
00
00
ENDCHAR
STARTCHAR U+003E
ENCODING 62
SWIDTH 500 0
DWIDTH 8 0
BBX 8 16 0 -2
BITMAP 
00
00
00
00
00
60
70
38
1C
0E
0E
1C
38
70
60
00
ENDCHAR
STARTCHAR U+003F
ENCODING 63
SWIDTH 500 0
DWIDTH 8 0
BBX 8 16 0 -2
BITMAP 
00
00
00
00
3E
7F
63
63
07
0E
0C
0C
0C
0C
0C
00
ENDCHAR
STARTCHAR U+0040
ENCODING 64
SWIDTH 500 0
DWIDTH 8 0
BBX 8 16 0 -2
BITMAP 
00
00
00
00
1E
3F
7F
7F
7F
7B
7B
7F
7F
3F
1F
00
ENDCHAR
STARTCHAR U+0041
ENCODING 65
SWIDTH 500 0
DWIDTH 8 0
BBX 8 16 0 -2
BITMAP 
00
00
00
00
1C
3E
36
77
63
7F
7F
63
63
63
63
00
ENDCHAR
STARTCHAR U+0042
ENCODING 66
SWIDTH 500 0
DWIDTH 8 0
BBX 8 16 0 -2
BITMAP 
00
00
00
00
7E
7F
63
63
7F
7F
63
63
63
7F
7E
00
ENDCHAR
STARTCHAR U+0043
ENCODING 67
SWIDTH 500 0
DWIDTH 8 0
BBX 8 16 0 -2
BITMAP 
00
00
00
00
3E
7F
63
63
60
60
60
63
63
7F
3E
00
ENDCHAR
STARTCHAR U+0044
ENCODING 68
SWIDTH 500 0
DWIDTH 8 0
BBX 8 16 0 -2
BITMAP 
00
00
00
00
7C
7E
67
63
63
63
63
63
67
7E
7C
00
ENDCHAR
STARTCHAR U+0045
ENCODING 69
SWIDTH 500 0
DWIDTH 8 0
BBX 8 16 0 -2
BITMAP 
00
00
00
00
7F
7F
60
60
7E
7E
60
60
60
7F
7F
00
ENDCHAR
STARTCHAR U+0046
ENCODING 70
SWIDTH 500 0
DWIDTH 8 0
BBX 8 16 0 -2
BITMAP 
00
00
00
00
7F
7F
60
60
7E
7E
60
60
60
60
60
00
ENDCHAR
STARTCHAR U+0047
ENCODING 71
SWIDTH 500 0
DWIDTH 8 0
BBX 8 16 0 -2
BITMAP 
00
00
00
00
3E
7F
63
63
60
6F
6F
63
67
7F
3F
00
ENDCHAR
STARTCHAR U+0048
ENCODING 72
SWIDTH 500 0
DWIDTH 8 0
BBX 8 16 0 -2
BITMAP 
00
00
00
00
63
63
63
63
7F
7F
63
63
63
63
63
00
ENDCHAR
STARTCHAR U+0049
ENCODING 73
SWIDTH 500 0
DWIDTH 8 0
BBX 8 16 0 -2
BITMAP 
00
00
00
00
3F
3F
0C
0C
0C
0C
0C
0C
0C
3F
3F
00
ENDCHAR
STARTCHAR U+004A
ENCODING 74
SWIDTH 500 0
DWIDTH 8 0
BBX 8 16 0 -2
BITMAP 
00
00
00
00
1F
1F
06
06
06
06
06
66
66
7E
3C
00
ENDCHAR
STARTCHAR U+004B
ENCODING 75
SWIDTH 500 0
DWIDTH 8 0
BBX 8 16 0 -2
BITMAP 
00
00
00
00
63
67
6E
7C
78
70
78
7C
6E
67
63
00
ENDCHAR
STARTCHAR U+004C
ENCODING 76
SWIDTH 500 0
DWIDTH 8 0
BBX 8 16 0 -2
BITMAP 
00
00
00
00
60
60
60
60
60
60
60
60
60
7F
7F
00
ENDCHAR
STARTCHAR U+004D
ENCODING 77
SWIDTH 500 0
DWIDTH 8 0
BBX 8 16 0 -2
BITMAP 
00
00
00
00
63
63
77
77
7F
7F
7F
63
63
63
63
00
ENDCHAR
STARTCHAR U+004E
ENCODING 78
SWIDTH 500 0
DWIDTH 8 0
BBX 8 16 0 -2
BITMAP 
00
00
00
00
63
73
73
7B
7B
7F
6F
6F
67
67
63
00
ENDCHAR
STARTCHAR U+004F
ENCODING 79
SWIDTH 500 0
DWIDTH 8 0
BBX 8 16 0 -2
BITMAP 
00
00
00
00
3E
7F
63
63
63
63
63
63
63
7F
3E
00
ENDCHAR
STARTCHAR U+0050
ENCODING 80
SWIDTH 500 0
DWIDTH 8 0
BBX 8 16 0 -2
BITMAP 
00
00
00
00
7E
7F
63
63
7F
7E
60
60
60
60
60
00
ENDCHAR
STARTCHAR U+0051
ENCODING 81
SWIDTH 500 0
DWIDTH 8 0
BBX 8 16 0 -2
BITMAP 
00
00
00
00
3E
7F
63
63
63
63
63
7F
7F
7F
3F
03
ENDCHAR
STARTCHAR U+0052
ENCODING 82
SWIDTH 500 0
DWIDTH 8 0
BBX 8 16 0 -2
BITMAP 
00
00
00
00
7E
7F
63
63
7F
7E
6E
66
67
63
63
00
ENDCHAR
STARTCHAR U+0053
ENCODING 83
SWIDTH 500 0
DWIDTH 8 0
BBX 8 16 0 -2
BITMAP 
00
00
00
00
3E
7F
63
63
78
3E
0F
63
63
7F
3E
00
ENDCHAR
STARTCHAR U+0054
ENCODING 84
SWIDTH 500 0
DWIDTH 8 0
BBX 8 16 0 -2
BITMAP 
00
00
00
00
7F
7F
0C
0C
0C
0C
0C
0C
0C
0C
0C
00
ENDCHAR
STARTCHAR U+0055
ENCODING 85
SWIDTH 500 0
DWIDTH 8 0
BBX 8 16 0 -2
BITMAP 
00
00
00
00
63
63
63
63
63
63
63
63
63
7F
3E
00
ENDCHAR
STARTCHAR U+0056
ENCODING 86
SWIDTH 500 0
DWIDTH 8 0
BBX 8 16 0 -2
BITMAP 
00
00
00
00
61
61
61
73
33
33
3F
1E
1E
0C
0C
00
ENDCHAR
STARTCHAR U+0057
ENCODING 87
SWIDTH 500 0
DWIDTH 8 0
BBX 8 16 0 -2
BITMAP 
00
00
00
00
63
63
63
63
7F
7F
7F
77
77
63
63
00
ENDCHAR
STARTCHAR U+0058
ENCODING 88
SWIDTH 500 0
DWIDTH 8 0
BBX 8 16 0 -2
BITMAP 
00
00
00
00
63
63
77
36
3E
1C
3E
36
77
63
63
00
ENDCHAR
STARTCHAR U+0059
ENCODING 89
SWIDTH 500 0
DWIDTH 8 0
BBX 8 16 0 -2
BITMAP 
00
00
00
00
61
61
73
33
3F
1E
0C
0C
0C
0C
0C
00
ENDCHAR
STARTCHAR U+005A
ENCODING 90
SWIDTH 500 0
DWIDTH 8 0
BBX 8 16 0 -2
BITMAP 
00
00
00
00
7F
7F
03
07
0E
1C
38
70
60
7F
7F
00
ENDCHAR
STARTCHAR U+005B
ENCODING 91
SWIDTH 500 0
DWIDTH 8 0
BBX 8 16 0 -2
BITMAP 
00
00
00
0F
0F
0C
0C
0C
0C
0C
0C
0C
0C
0C
0F
0F
ENDCHAR
STARTCHAR U+005C
ENCODING 92
SWIDTH 500 0
DWIDTH 8 0
BBX 8 16 0 -2
BITMAP 
00
00
00
00
60
60
70
38
18
1C
0C
0E
07
03
03
00
ENDCHAR
STARTCHAR U+005D
ENCODING 93
SWIDTH 500 0
DWIDTH 8 0
BBX 8 16 0 -2
BITMAP 
00
00
00
78
78
18
18
18
18
18
18
18
18
18
78
78
ENDCHAR
STARTCHAR U+005E
ENCODING 94
SWIDTH 500 0
DWIDTH 8 0
BBX 8 16 0 -2
BITMAP 
00
00
1C
3E
77
63
00
00
00
00
00
00
00
00
00
00
ENDCHAR
STARTCHAR U+005F
ENCODING 95
SWIDTH 500 0
DWIDTH 8 0
BBX 8 16 0 -2
BITMAP 
00
00
00
00
00
00
00
00
00
00
00
00
00
00
7F
7F
ENDCHAR
STARTCHAR U+0060
ENCODING 96
SWIDTH 500 0
DWIDTH 8 0
BBX 8 16 0 -2
BITMAP 
00
30
38
1C
0C
00
00
00
00
00
00
00
00
00
00
00
ENDCHAR
STARTCHAR U+0061
ENCODING 97
SWIDTH 500 0
DWIDTH 8 0
BBX 8 16 0 -2
BITMAP 
00
00
00
00
00
00
3E
7F
63
3F
7F
63
67
7F
3F
00
ENDCHAR
STARTCHAR U+0062
ENCODING 98
SWIDTH 500 0
DWIDTH 8 0
BBX 8 16 0 -2
BITMAP 
00
00
00
60
60
60
7E
7F
73
63
63
63
73
7F
7E
00
ENDCHAR
STARTCHAR U+0063
ENCODING 99
SWIDTH 500 0
DWIDTH 8 0
BBX 8 16 0 -2
BITMAP 
00
00
00
00
00
00
3E
7F
63
60
60
60
63
7F
3E
00
ENDCHAR
STARTCHAR U+0064
ENCODING 100
SWIDTH 500 0
DWIDTH 8 0
BBX 8 16 0 -2
BITMAP 
00
00
00
03
03
03
3F
7F
67
63
63
63
67
7F
3F
00
ENDCHAR
STARTCHAR U+0065
ENCODING 101
SWIDTH 500 0
DWIDTH 8 0
BBX 8 16 0 -2
BITMAP 
00
00
00
00
00
00
3E
7F
63
7F
7F
60
63
7F
3E
00
ENDCHAR
STARTCHAR U+0066
ENCODING 102
SWIDTH 500 0
DWIDTH 8 0
BBX 8 16 0 -2
BITMAP 
00
00
00
0E
1E
18
18
7E
7E
18
18
18
18
18
18
00
ENDCHAR
STARTCHAR U+0067
ENCODING 103
SWIDTH 500 0
DWIDTH 8 0
BBX 8 16 0 -2
BITMAP 
00
00
00
00
00
03
3F
7F
66
66
7E
3C
3E
7F
63
7F
ENDCHAR
STARTCHAR U+0068
ENCODING 104
SWIDTH 500 0
DWIDTH 8 0
BBX 8 16 0 -2
BITMAP 
00
00
00
60
60
60
7E
7F
73
63
63
63
63
63
63
00
ENDCHAR
STARTCHAR U+0069
ENCODING 105
SWIDTH 500 0
DWIDTH 8 0
BBX 8 16 0 -2
BITMAP 
00
00
00
0C
0C
0C
1C
1C
0C
0C
0C
0C
0C
3F
3F
00
ENDCHAR
STARTCHAR U+006A
ENCODING 106
SWIDTH 500 0
DWIDTH 8 0
BBX 8 16 0 -2
BITMAP 
00
00
00
06
06
06
0E
0E
06
06
06
06
06
06
6E
7C
ENDCHAR
STARTCHAR U+006B
ENCODING 107
SWIDTH 500 0
DWIDTH 8 0
BBX 8 16 0 -2
BITMAP 
00
00
00
60
60
60
66
6E
7C
78
78
7C
6E
67
63
00
ENDCHAR
STARTCHAR U+006C
ENCODING 108
SWIDTH 500 0
DWIDTH 8 0
BBX 8 16 0 -2
BITMAP 
00
00
00
1C
1C
0C
0C
0C
0C
0C
0C
0C
0C
3F
3F
00
ENDCHAR
STARTCHAR U+006D
ENCODING 109
SWIDTH 500 0
DWIDTH 8 0
BBX 8 16 0 -2
BITMAP 
00
00
00
00
00
00
7F
7F
6D
6D
6D
6D
6D
6D
6D
00
ENDCHAR
STARTCHAR U+006E
ENCODING 110
SWIDTH 500 0
DWIDTH 8 0
BBX 8 16 0 -2
BITMAP 
00
00
00
00
00
00
7E
7F
73
63
63
63
63
63
63
00
ENDCHAR
STARTCHAR U+006F
ENCODING 111
SWIDTH 500 0
DWIDTH 8 0
BBX 8 16 0 -2
BITMAP 
00
00
00
00
00
00
3E
7F
63
63
63
63
63
7F
3E
00
ENDCHAR
STARTCHAR U+0070
ENCODING 112
SWIDTH 500 0
DWIDTH 8 0
BBX 8 16 0 -2
BITMAP 
00
00
00
00
00
00
7E
7F
73
63
63
63
73
7F
7E
60
ENDCHAR
STARTCHAR U+0071
ENCODING 113
SWIDTH 500 0
DWIDTH 8 0
BBX 8 16 0 -2
BITMAP 
00
00
00
00
00
00
3F
7F
67
63
63
63
67
7F
3F
03
ENDCHAR
STARTCHAR U+0072
ENCODING 114
SWIDTH 500 0
DWIDTH 8 0
BBX 8 16 0 -2
BITMAP 
00
00
00
00
00
00
7E
7F
73
63
60
60
60
60
60
00
ENDCHAR
STARTCHAR U+0073
ENCODING 115
SWIDTH 500 0
DWIDTH 8 0
BBX 8 16 0 -2
BITMAP 
00
00
00
00
00
00
3E
7F
63
78
3E
0F
63
7F
3E
00
ENDCHAR
STARTCHAR U+0074
ENCODING 116
SWIDTH 500 0
DWIDTH 8 0
BBX 8 16 0 -2
BITMAP 
00
00
00
00
18
18
18
7E
7E
18
18
18
18
1E
0E
00
ENDCHAR
STARTCHAR U+0075
ENCODING 117
SWIDTH 500 0
DWIDTH 8 0
BBX 8 16 0 -2
BITMAP 
00
00
00
00
00
00
63
63
63
63
63
63
67
7F
3F
00
ENDCHAR
STARTCHAR U+0076
ENCODING 118
SWIDTH 500 0
DWIDTH 8 0
BBX 8 16 0 -2
BITMAP 
00
00
00
00
00
00
63
63
63
77
36
36
3E
1C
1C
00
ENDCHAR
STARTCHAR U+0077
ENCODING 119
SWIDTH 500 0
DWIDTH 8 0
BBX 8 16 0 -2
BITMAP 
00
00
00
00
00
00
61
6D
6D
6D
6D
6D
6D
7F
3F
00
ENDCHAR
STARTCHAR U+0078
ENCODING 120
SWIDTH 500 0
DWIDTH 8 0
BBX 8 16 0 -2
BITMAP 
00
00
00
00
00
00
63
63
77
3E
1C
3E
77
63
63
00
ENDCHAR
STARTCHAR U+0079
ENCODING 121
SWIDTH 500 0
DWIDTH 8 0
BBX 8 16 0 -2
BITMAP 
00
00
00
00
00
00
63
63
63
63
63
77
3F
1F
03
3F
ENDCHAR
STARTCHAR U+007A
ENCODING 122
SWIDTH 500 0
DWIDTH 8 0
BBX 8 16 0 -2
BITMAP 
00
00
00
00
00
00
7F
7F
07
0E
1C
38
70
7F
7F
00
ENDCHAR
STARTCHAR U+007B
ENCODING 123
SWIDTH 500 0
DWIDTH 8 0
BBX 8 16 0 -2
BITMAP 
00
00
00
0E
1E
18
1C
0C
1C
38
38
1C
0C
1C
18
1E
ENDCHAR
STARTCHAR U+007C
ENCODING 124
SWIDTH 500 0
DWIDTH 8 0
BBX 8 16 0 -2
BITMAP 
00
00
0C
0C
0C
0C
0C
0C
0C
0C
0C
0C
0C
0C
0C
0C
ENDCHAR
STARTCHAR U+007D
ENCODING 125
SWIDTH 500 0
DWIDTH 8 0
BBX 8 16 0 -2
BITMAP 
00
00
00
38
3C
0C
1C
18
1C
0E
0E
1C
18
1C
0C
3C
ENDCHAR
STARTCHAR U+007E
ENCODING 126
SWIDTH 500 0
DWIDTH 8 0
BBX 8 16 0 -2
BITMAP 
00
00
00
39
7D
6F
67
00
00
00
00
00
00
00
00
00
ENDCHAR
STARTCHAR U+3041
ENCODING 12353
SWIDTH 1000 0
DWIDTH 16 0
BBX 16 16 0 -2
BITMAP 
0000
0000
0000
0000
0000
0180
01F0
0FF0
0FC0
03F0
07F8
0F7C
1FEC
19CC
1F9C
0F78
ENDCHAR
STARTCHAR U+3042
ENCODING 12354
SWIDTH 1000 0
DWIDTH 16 0
BBX 16 16 0 -2
BITMAP 
0000
0180
0180
01F0
1FF0
1FC0
0330
03FC
07FE
0F77
1FE3
3BC3
3387
3F0E
1E3C
0038
ENDCHAR
STARTCHAR U+3043
ENCODING 12355
SWIDTH 1000 0
DWIDTH 16 0
BBX 16 16 0 -2
BITMAP 
0000
0000
0000
0000
0000
0000
0000
1800
1830
1838
1818
181C
1C0C
0F0C
0F00
0600
ENDCHAR
STARTCHAR U+3044
ENCODING 12356
SWIDTH 1000 0
DWIDTH 16 0
BBX 16 16 0 -2
BITMAP 
0000
0000
0000
1800
1800
1818
181C
180C
180E
1806
1806
1D86
0F80
0F00
0600
0000
ENDCHAR
STARTCHAR U+3045
ENCODING 12357
SWIDTH 1000 0
DWIDTH 16 0
BBX 16 16 0 -2
BITMAP 
0000
0000
0000
0000
0000
01C0
01F0
0070
00F0
03F8
0398
0018
0038
0030
0070
00E0
ENDCHAR
STARTCHAR U+3046
ENCODING 12358
SWIDTH 1000 0
DWIDTH 16 0
BBX 16 16 0 -2
BITMAP 
0000
0380
03F0
00F0
0000
01F0
0FF8
0F18
0018
0018
0038
0030
0070
00E0
01C0
0180
ENDCHAR
STARTCHAR U+3047
ENCODING 12359
SWIDTH 1000 0
DWIDTH 16 0
BBX 16 16 0 -2
BITMAP 
0000
0000
0000
0000
0000
0000
0380
03E0
00E0
01E0
07E0
07E0
01C0
03E0
0760
0E78
ENDCHAR
STARTCHAR U+3048
ENCODING 12360
SWIDTH 1000 0
DWIDTH 16 0
BBX 16 16 0 -2
BITMAP 
0000
0380
03F0
00F0
00F0
0FF0
0FF0
00E0
01C0
03C0
07E0
0E60
1C60
387E
303E
0000
ENDCHAR
STARTCHAR U+3049
ENCODING 12361
SWIDTH 1000 0
DWIDTH 16 0
BBX 16 16 0 -2
BITMAP 
0000
0000
0000
0000
0000
0000
0300
03D8
0FDC
0F0E
03F6
03F8
079C
0F0C
0F1C
0F78
ENDCHAR
STARTCHAR U+304A
ENCODING 12362
SWIDTH 1000 0
DWIDTH 16 0
BBX 16 16 0 -2
BITMAP 
0000
0600
0600
07C6
3FC7
3E03
0601
06F8
07FC
0F8E
1E06
3E06
360E
3E3C
1C38
0000
ENDCHAR
STARTCHAR U+304B
ENCODING 12363
SWIDTH 1000 0
DWIDTH 16 0
BBX 16 16 0 -2
BITMAP 
0000
0300
0300
030C
03EE
3FF7
3F33
0731
0631
0E30
0C30
1C70
3B60
33E0
01C0
0000
ENDCHAR
STARTCHAR U+304C
ENCODING 12364
SWIDTH 1000 0
DWIDTH 16 0
BBX 16 16 0 -2
BITMAP 
0003
0307
0307
030F
03EE
3FF7
3F33
0731
0631
0E30
0C30
1C70
3B60
33E0
01C0
0000
ENDCHAR
STARTCHAR U+304D
ENCODING 12365
SWIDTH 1000 0
DWIDTH 16 0
BBX 16 16 0 -2
BITMAP 
0180
0180
01F0
0FF0
0FC0
00FC
0FFC
0FE0
0070
07F8
0FF8
1C38
1800
1E00
0FE0
03E0
ENDCHAR
STARTCHAR U+304E
ENCODING 12366
SWIDTH 1000 0
DWIDTH 16 0
BBX 16 16 0 -2
BITMAP 
0180
0186
01FF
0FFF
0FC6
00FC
0FFC
0FE0
0070
07F8
0FF8
1C38
1800
1E00
0FE0
03E0
ENDCHAR
STARTCHAR U+304F
ENCODING 12367
SWIDTH 1000 0
DWIDTH 16 0
BBX 16 16 0 -2
BITMAP 
0000
0060
0060
00E0
00C0
01C0
0380
0700
0700
0380
01C0
00C0
00E0
0060
0060
0060
ENDCHAR
STARTCHAR U+3050
ENCODING 12368
SWIDTH 1000 0
DWIDTH 16 0
BBX 16 16 0 -2
BITMAP 
0000
0060
0060
00EC
00DE
01DE
038C
0700
0700
0380
01C0
00C0
00E0
0060
0060
0060
ENDCHAR
STARTCHAR U+3051
ENCODING 12369
SWIDTH 1000 0
DWIDTH 16 0
BBX 16 16 0 -2
BITMAP 
0000
0018
1818
1818
381F
33FF
33F8
3018
3018
3018
3018
3C38
3C30
1870
18E0
00C0
ENDCHAR
STARTCHAR U+3052
ENCODING 12370
SWIDTH 1000 0
DWIDTH 16 0
BBX 16 16 0 -2
BITMAP 
0003
001F
181F
181B
381F
33FF
33F8
3018
3018
3018
3018
3C38
3C30
1870
18E0
00C0
ENDCHAR
STARTCHAR U+3053
ENCODING 12371
SWIDTH 1000 0
DWIDTH 16 0
BBX 16 16 0 -2
BITMAP 
0000
0000
0780
07F8
00F8
00E0
00C0
0000
0000
0C00
1C00
1800
1C00
0FFC
07FC
0000
ENDCHAR
STARTCHAR U+3054
ENCODING 12372
SWIDTH 1000 0
DWIDTH 16 0
BBX 16 16 0 -2
BITMAP 
0000
0003
0787
07FF
00FB
00E0
00C0
0000
0000
0C00
1C00
1800
1C00
0FFC
07FC
0000
ENDCHAR
STARTCHAR U+3055
ENCODING 12373
SWIDTH 1000 0
DWIDTH 16 0
BBX 16 16 0 -2
BITMAP 
0000
0180
0180
01FC
1FFC
1FE0
0070
0030
07F8
0FF8
1C38
1800
1800
1E00
0FE0
03E0
ENDCHAR
STARTCHAR U+3056
ENCODING 12374
SWIDTH 1000 0
DWIDTH 16 0
BBX 16 16 0 -2
BITMAP 
000C
019E
019E
01FC
1FF8
1FE0
0070
0030
07F8
0FF8
1C38
1800
1800
1E00
0FE0
03E0
ENDCHAR
STARTCHAR U+3057
ENCODING 12375
SWIDTH 1000 0
DWIDTH 16 0
BBX 16 16 0 -2
BITMAP 
0000
0600
0600
0600
0600
0600
0600
0600
0600
0600
0606
060E
073C
03F8
01E0
0000
ENDCHAR
STARTCHAR U+3058
ENCODING 12376
SWIDTH 1000 0
DWIDTH 16 0
BBX 16 16 0 -2
BITMAP 
0000
0600
0630
0678
0678
0630
0600
0600
0600
0600
0606
060E
073C
03F8
01E0
0000
ENDCHAR
STARTCHAR U+3059
ENCODING 12377
SWIDTH 1000 0
DWIDTH 16 0
BBX 16 16 0 -2
BITMAP 
0000
0060
0060
3FFE
3FFE
0060
03E0
07E0
0660
06E0
07E0
03E0
00E0
01C0
0780
0700
ENDCHAR
STARTCHAR U+305A
ENCODING 12378
SWIDTH 1000 0
DWIDTH 16 0
BBX 16 16 0 -2
BITMAP 
0003
0067
0067
3FFF
3FFE
0060
03E0
07E0
0660
06E0
07E0
03E0
00E0
01C0
0780
0700
ENDCHAR
STARTCHAR U+305B
ENCODING 12379
SWIDTH 1000 0
DWIDTH 16 0
BBX 16 16 0 -2
BITMAP 
0000
0030
0C30
0C30
0C30
0DFF
7FFF
7F30
0C30
0CF0
0CE0
0C00
0E00
07F8
03F8
0000
ENDCHAR
STARTCHAR U+305C
ENCODING 12380
SWIDTH 1000 0
DWIDTH 16 0
BBX 16 16 0 -2
BITMAP 
0000
0033
0C37
0C37
0C33
0DFF
7FFF
7F30
0C30
0CF0
0CE0
0C00
0E00
07F8
03F8
0000
ENDCHAR
STARTCHAR U+305D
ENCODING 12381
SWIDTH 1000 0
DWIDTH 16 0
BBX 16 16 0 -2
BITMAP 
0000
0000
07F0
07F0
00E0
01C0
03BF
07FF
3FE0
3DC0
0380
0300
0300
0380
01F8
00F8
ENDCHAR
STARTCHAR U+305E
ENCODING 12382
SWIDTH 1000 0
DWIDTH 16 0
BBX 16 16 0 -2
BITMAP 
0000
0000
07F6
07FF
00EF
01C6
03BF
07FF
3FE0
3DC0
0380
0300
0300
0380
01F8
00F8
ENDCHAR
STARTCHAR U+305F
ENCODING 12383
SWIDTH 1000 0
DWIDTH 16 0
BBX 16 16 0 -2
BITMAP 
0000
0600
0600
07C0
3FC0
3E00
067E
0E7E
0C0C
0C00
1D80
1980
39C0
30FF
307F
0000
ENDCHAR
STARTCHAR U+3060
ENCODING 12384
SWIDTH 1000 0
DWIDTH 16 0
BBX 16 16 0 -2
BITMAP 
0000
0606
060F
07CF
3FC6
3E00
067E
0E7E
0C0C
0C00
1D80
1980
39C0
30FF
307F
0000
ENDCHAR
STARTCHAR U+3061
ENCODING 12385
SWIDTH 1000 0
DWIDTH 16 0
BBX 16 16 0 -2
BITMAP 
0000
0180
0180
01B8
1FF8
1FE0
0300
0700
06F8
0FFC
0F8E
0E06
000E
003C
01F8
01E0
ENDCHAR
STARTCHAR U+3062
ENCODING 12386
SWIDTH 1000 0
DWIDTH 16 0
BBX 16 16 0 -2
BITMAP 
0000
0183
0187
01BF
1FFB
1FE0
0300
0700
06F8
0FFC
0F8E
0E06
000E
003C
01F8
01E0
ENDCHAR
STARTCHAR U+3063
ENCODING 12387
SWIDTH 1000 0
DWIDTH 16 0
BBX 16 16 0 -2
BITMAP 
0000
0000
0000
0000
0000
0000
0000
01F0
1FF8
1F1C
000C
000C
001C
0078
01F0
01C0
ENDCHAR
STARTCHAR U+3064
ENCODING 12388
SWIDTH 1000 0
DWIDTH 16 0
BBX 16 16 0 -2
BITMAP 
0000
0000
0000
0000
01F8
7FFC
7F0E
0007
0003
0003
0007
000E
003C
00F8
00E0
0000
ENDCHAR
STARTCHAR U+3065
ENCODING 12389
SWIDTH 1000 0
DWIDTH 16 0
BBX 16 16 0 -2
BITMAP 
0000
0003
0007
0007
01FB
7FFC
7F0E
0007
0003
0003
0007
000E
003C
00F8
00E0
0000
ENDCHAR
STARTCHAR U+3066
ENCODING 12390
SWIDTH 1000 0
DWIDTH 16 0
BBX 16 16 0 -2
BITMAP 
0000
0000
003E
3FFE
3FE0
01C0
0180
0380
0300
0300
0300
0380
01C0
00F8
0078
0000
ENDCHAR
STARTCHAR U+3067
ENCODING 12391
SWIDTH 1000 0
DWIDTH 16 0
BBX 16 16 0 -2
BITMAP 
0000
0000
003E
3FFE
3FEC
01DE
019E
038C
0300
0300
0300
0380
01C0
00F8
0078
0000
ENDCHAR
STARTCHAR U+3068
ENCODING 12392
SWIDTH 1000 0
DWIDTH 16 0
BBX 16 16 0 -2
BITMAP 
0000
0300
0300
0300
0300
0318
03F8
01F0
03C0
0700
0E00
0C00
0E00
07F8
03F8
0000
ENDCHAR
STARTCHAR U+3069
ENCODING 12393
SWIDTH 1000 0
DWIDTH 16 0
BBX 16 16 0 -2
BITMAP 
0000
0300
0306
030F
030F
031E
03F8
01F0
03C0
0700
0E00
0C00
0E00
07F8
03F8
0000
ENDCHAR
STARTCHAR U+306A
ENCODING 12394
SWIDTH 1000 0
DWIDTH 16 0
BBX 16 16 0 -2
BITMAP 
0000
0600
0600
07CC
3FCE
3E07
0E33
0C30
1C30
3830
3030
01F0
03FC
033E
03F6
01E0
ENDCHAR
STARTCHAR U+306B
ENCODING 12395
SWIDTH 1000 0
DWIDTH 16 0
BBX 16 16 0 -2
BITMAP 
0000
0000
0C00
0CFC
1CFC
1818
1800
1800
1800
1800
18C0
1EC0
1EFE
0C7E
0C00
0000
ENDCHAR
STARTCHAR U+306C
ENCODING 12396
SWIDTH 1000 0
DWIDTH 16 0
BBX 16 16 0 -2
BITMAP 
0000
0180
1980
1980
1BF8
1FFC
1F8E
3D86
3F86
7F06
6706
677E
7EFE
3CFF
007B
0000
ENDCHAR
STARTCHAR U+306D
ENCODING 12397
SWIDTH 1000 0
DWIDTH 16 0
BBX 16 16 0 -2
BITMAP 
0000
0C00
0C00
0C00
0C78
7DFC
7FCE
0F06
1E06
3C06
7C06
6C7E
0CFE
0CFF
0C7B
0C00
ENDCHAR
STARTCHAR U+306E
ENCODING 12398
SWIDTH 1000 0
DWIDTH 16 0
BBX 16 16 0 -2
BITMAP 
0000
0000
0000
01F0
07FC
0FDE
1CC6
18C7
39C3
3183
3387
3B06
1F1E
0E7C
0070
0000
ENDCHAR
STARTCHAR U+306F
ENCODING 12399
SWIDTH 1000 0
DWIDTH 16 0
BBX 16 16 0 -2
BITMAP 
0000
1818
1818
1818
39FF
31FF
3018
3018
3018
3018
3018
30F8
3DFE
3D9F
19FB
18F0
ENDCHAR
STARTCHAR U+3070
ENCODING 12400
SWIDTH 1000 0
DWIDTH 16 0
BBX 16 16 0 -2
BITMAP 
0003
181F
181F
181B
39FF
31FF
3018
3018
3018
3018
3018
30F8
3DFE
3D9F
19FB
18F0
ENDCHAR
STARTCHAR U+3071
ENCODING 12401
SWIDTH 1000 0
DWIDTH 16 0
BBX 16 16 0 -2
BITMAP 
0007
303F
303D
303F
73FF
63FC
6030
6030
6030
6030
6030
61F0
7BFC
7B3E
33F6
31E0
ENDCHAR
STARTCHAR U+3072
ENCODING 12402
SWIDTH 1000 0
DWIDTH 16 0
BBX 16 16 0 -2
BITMAP 
0000
0000
0780
3F98
3F1C
061E
0E1F
0C1B
1C18
1818
1818
1838
1830
1C70
0FE0
07C0
ENDCHAR
STARTCHAR U+3073
ENCODING 12403
SWIDTH 1000 0
DWIDTH 16 0
BBX 16 16 0 -2
BITMAP 
0003
0007
0787
3F9B
3F1C
061E
0E1F
0C1B
1C18
1818
1818
1838
1830
1C70
0FE0
07C0
ENDCHAR
STARTCHAR U+3074
ENCODING 12404
SWIDTH 1000 0
DWIDTH 16 0
BBX 16 16 0 -2
BITMAP 
0007
000F
078D
3F9F
3F1F
061E
0E1F
0C1B
1C18
1818
1818
1838
1830
1C70
0FE0
07C0
ENDCHAR
STARTCHAR U+3075
ENCODING 12405
SWIDTH 1000 0
DWIDTH 16 0
BBX 16 16 0 -2
BITMAP 
0000
0180
01C0
00E0
0060
00E0
01C0
0180
01C0
00EC
0C7E
1C37
3E73
77E1
63C1
0000
ENDCHAR
STARTCHAR U+3076
ENCODING 12406
SWIDTH 1000 0
DWIDTH 16 0
BBX 16 16 0 -2
BITMAP 
0000
0180
01C0
00E0
006C
00FE
01DE
018C
01C0
00EC
0C7E
1C37
3E73
77E1
63C1
0000
ENDCHAR
STARTCHAR U+3077
ENCODING 12407
SWIDTH 1000 0
DWIDTH 16 0
BBX 16 16 0 -2
BITMAP 
0000
0180
01C0
00EE
007F
00FB
01DF
018E
01C0
00EC
0C7E
1C37
3E73
77E1
63C1
0000
ENDCHAR
STARTCHAR U+3078
ENCODING 12408
SWIDTH 1000 0
DWIDTH 16 0
BBX 16 16 0 -2
BITMAP 
0000
0000
0000
0000
0000
0700
0F80
1DC0
78E0
7070
003C
001F
0007
0000
0000
0000
ENDCHAR
STARTCHAR U+3079
ENCODING 12409
SWIDTH 1000 0
DWIDTH 16 0
BBX 16 16 0 -2
BITMAP 
0000
0000
0000
0018
003C
073C
0F98
1DC0
78E0
7070
003C
001F
0007
0000
0000
0000
ENDCHAR
STARTCHAR U+307A
ENCODING 12410
SWIDTH 1000 0
DWIDTH 16 0
BBX 16 16 0 -2
BITMAP 
0000
0000
0000
0038
007C
076C
0FFC
1DF8
78E0
7070
003C
001F
0007
0000
0000
0000
ENDCHAR
STARTCHAR U+307B
ENCODING 12411
SWIDTH 1000 0
DWIDTH 16 0
BBX 16 16 0 -2
BITMAP 
0000
1800
19FE
19FE
3818
3018
31FE
31FE
3018
3018
3018
30F8
3DFE
3D9F
19FB
18F0
ENDCHAR
STARTCHAR U+307C
ENCODING 12412
SWIDTH 1000 0
DWIDTH 16 0
BBX 16 16 0 -2
BITMAP 
0003
1807
19FF
19FF
3818
3018
31FE
31FE
3018
3018
3018
30F8
3DFE
3D9F
19FB
18F0
ENDCHAR
STARTCHAR U+307D
ENCODING 12413
SWIDTH 1000 0
DWIDTH 16 0
BBX 16 16 0 -2
BITMAP 
0007
180F
19FD
19FF
381F
3018
31FE
31FE
3018
3018
3018
30F8
3DFE
3D9F
19FB
18F0
ENDCHAR
STARTCHAR U+307E
ENCODING 12414
SWIDTH 1000 0
DWIDTH 16 0
BBX 16 16 0 -2
BITMAP 
0000
00C0
00C0
1FFC
1FFC
00C0
00C0
0FF8
0FF8
00C0
00C0
0FE0
1FF8
18FC
1FCC
0F80
ENDCHAR
STARTCHAR U+307F
ENCODING 12415
SWIDTH 1000 0
DWIDTH 16 0
BBX 16 16 0 -2
BITMAP 
0000
0000
0FC0
0FC0
00C0
00CC
01CC
018C
07FC
1FFF
3F1F
3719
3E38
1C70
00E0
00C0
ENDCHAR
STARTCHAR U+3080
ENCODING 12416
SWIDTH 1000 0
DWIDTH 16 0
BBX 16 16 0 -2
BITMAP 
0000
0300
0300
03EC
3FEE
3F07
0303
0F00
1F00
1B00
1F00
1E06
0E06
0606
07FE
03FC
ENDCHAR
STARTCHAR U+3081
ENCODING 12417
SWIDTH 1000 0
DWIDTH 16 0
BBX 16 16 0 -2
BITMAP 
0000
0060
0C60
0C60
0FF0
0FFC
0EFE
1CC6
3FC7
3783
7783
6307
7786
3F9E
1C7C
0070
ENDCHAR
STARTCHAR U+3082
ENCODING 12418
SWIDTH 1000 0
DWIDTH 16 0
BBX 16 16 0 -2
BITMAP 
0000
0300
0300
0300
1FC0
1FC0
0300
0318
1FDC
1FCC
060C
060C
060C
071C
03F8
01F0
ENDCHAR
STARTCHAR U+3083
ENCODING 12419
SWIDTH 1000 0
DWIDTH 16 0
BBX 16 16 0 -2
BITMAP 
0000
0000
0000
0000
0000
0000
0180
0DF8
0FFC
07CC
1F0C
1F7C
03F8
0180
01C0
00C0
ENDCHAR
STARTCHAR U+3084
ENCODING 12420
SWIDTH 1000 0
DWIDTH 16 0
BBX 16 16 0 -2
BITMAP 
0000
0180
01C0
18E0
187C
1DFE
0FC7
1F03
7F07
731E
039C
0180
01C0
00C0
00C0
00C0
ENDCHAR
STARTCHAR U+3085
ENCODING 12421
SWIDTH 1000 0
DWIDTH 16 0
BBX 16 16 0 -2
BITMAP 
0000
0000
0000
0000
0000
00C0
00E0
0DF0
0FF8
1F7C
1E6C
1E7C
0DF8
0DF0
00C0
01C0
ENDCHAR
STARTCHAR U+3086
ENCODING 12422
SWIDTH 1000 0
DWIDTH 16 0
BBX 16 16 0 -2
BITMAP 
0000
00C0
00E0
1860
18FC
3BFE
37E7
3E63
3C63
3B63
3BE7
19FE
18FC
00E0
01C0
0180
ENDCHAR
STARTCHAR U+3087
ENCODING 12423
SWIDTH 1000 0
DWIDTH 16 0
BBX 16 16 0 -2
BITMAP 
0000
0000
0000
0000
0000
00C0
00C0
00F8
00F8
00C0
00C0
07C0
0FF0
0CF8
0FD8
0780
ENDCHAR
STARTCHAR U+3088
ENCODING 12424
SWIDTH 1000 0
DWIDTH 16 0
BBX 16 16 0 -2
BITMAP 
0000
00C0
00C0
00C0
00FC
00FC
00C0
00C0
00C0
00C0
00C0
0FE0
1FF8
18FC
1FCC
0F80
ENDCHAR
STARTCHAR U+3089
ENCODING 12425
SWIDTH 1000 0
DWIDTH 16 0
BBX 16 16 0 -2
BITMAP 
0000
01C0
01F0
0070
0600
0600
0600
0600
0FF8
0FFC
0F0E
0C06
000E
003C
03F8
03E0
ENDCHAR
STARTCHAR U+308A
ENCODING 12426
SWIDTH 1000 0
DWIDTH 16 0
BBX 16 16 0 -2
BITMAP 
0000
0018
0C18
0C18
0C18
0C18
0C18
0F18
0F18
0E18
0618
0038
0030
0070
01E0
01C0
ENDCHAR
STARTCHAR U+308B
ENCODING 12427
SWIDTH 1000 0
DWIDTH 16 0
BBX 16 16 0 -2
BITMAP 
0000
0000
07F8
07F8
0070
00E0
01C0
03F8
07FC
0F8E
1C06
19C6
03EE
037C
03F8
01F0
ENDCHAR
STARTCHAR U+308C
ENCODING 12428
SWIDTH 1000 0
DWIDTH 16 0
BBX 16 16 0 -2
BITMAP 
0000
0C00
0C00
0C00
0CF0
7FF8
7F98
0F18
1E18
1C18
3C18
7C18
6C1B
0C1F
0C0E
0C00
ENDCHAR
STARTCHAR U+308D
ENCODING 12429
SWIDTH 1000 0
DWIDTH 16 0
BBX 16 16 0 -2
BITMAP 
0000
0000
07F8
07F8
0070
00E0
01C0
03F8
07FC
0F8E
1C06
1806
000E
003C
01F8
01E0
ENDCHAR
STARTCHAR U+308E
ENCODING 12430
SWIDTH 1000 0
DWIDTH 16 0
BBX 16 16 0 -2
BITMAP 
0000
0000
0000
0000
0000
0000
0300
0300
1F78
1FFC
03CE
0386
0706
0F06
1F0E
1B1C
ENDCHAR
STARTCHAR U+308F
ENCODING 12431
SWIDTH 1000 0
DWIDTH 16 0
BBX 16 16 0 -2
BITMAP 
0000
0600
0600
0600
3F00
3FFC
07FE
0787
0703
0E03
1E03
3E07
360E
063C
0638
0600
ENDCHAR
STARTCHAR U+3090
ENCODING 12432
SWIDTH 1000 0
DWIDTH 16 0
BBX 16 16 0 -2
BITMAP 
0000
03C0
0FC0
0EC0
01C0
0180
03F0
0FFC
1F1E
3B06
3706
36EE
37FC
3FFC
1CF8
0000
ENDCHAR
STARTCHAR U+3091
ENCODING 12433
SWIDTH 1000 0
DWIDTH 16 0
BBX 16 16 0 -2
BITMAP 
0000
07F0
07F0
00E0
01F0
07F8
0F1C
0FCC
07FC
07F8
0FF6
1F07
3BB3
71F1
60E1
0000
ENDCHAR
STARTCHAR U+3092
ENCODING 12434
SWIDTH 1000 0
DWIDTH 16 0
BBX 16 16 0 -2
BITMAP 
0180
0180
01F0
1FF0
1FC0
0300
07C0
0FEE
1C7E
19F8
03E0
0760
0600
07F8
03F8
0000
ENDCHAR
STARTCHAR U+3093
ENCODING 12435
SWIDTH 1000 0
DWIDTH 16 0
BBX 16 16 0 -2
BITMAP 
0000
0180
0180
0180
0380
0300
0300
0700
07C0
07E0
0F60
0C63
1C67
187E
183C
0000
ENDCHAR
STARTCHAR U+3094
ENCODING 12436
SWIDTH 1000 0
DWIDTH 16 0
BBX 16 16 0 -2
BITMAP 
0000
0386
03FF
00FF
0006
03F0
0FF8
0E18
0018
0018
0038
0030
0070
00E0
01C0
0180
ENDCHAR
STARTCHAR U+3095
ENCODING 12437
SWIDTH 1000 0
DWIDTH 16 0
BBX 16 16 0 -2
BITMAP 
0000
0000
0000
0000
0000
0300
0300
0300
03D8
1FFC
1F6E
0766
0666
0E60
1CE0
1BC0
ENDCHAR
STARTCHAR U+3096
ENCODING 12438
SWIDTH 1000 0
DWIDTH 16 0
BBX 16 16 0 -2
BITMAP 
0000
0000
0000
0000
0000
0018
0618
0618
0EFE
0CFE
0C18
0C18
0C18
0F18
0F38
06F0
ENDCHAR
STARTCHAR U+3097
ENCODING 12439
SWIDTH 1000 0
DWIDTH 16 0
BBX 16 16 0 -2
BITMAP 
0000
7FFF
7FFF
7FFF
7FFF
7FFF
7FFF
7FFF
7FFF
7FFF
7FFF
7FFF
7FFF
7FFF
7FFF
7FFF
ENDCHAR
STARTCHAR U+3098
ENCODING 12440
SWIDTH 1000 0
DWIDTH 16 0
BBX 16 16 0 -2
BITMAP 
0000
7FFF
7FFF
7FFF
7FFF
7FFF
7FFF
7FFF
7FFF
7FFF
7FFF
7FFF
7FFF
7FFF
7FFF
7FFF
ENDCHAR
STARTCHAR U+3099
ENCODING 12441
SWIDTH 1000 0
DWIDTH 16 0
BBX 16 16 0 -2
BITMAP 
0000
000F
000F
000F
0000
0000
0000
0000
0000
0000
0000
0000
0000
0000
0000
0000
ENDCHAR
STARTCHAR U+309A
ENCODING 12442
SWIDTH 1000 0
DWIDTH 16 0
BBX 16 16 0 -2
BITMAP 
0000
000E
001F
001B
001F
000E
0000
0000
0000
0000
0000
0000
0000
0000
0000
0000
ENDCHAR
STARTCHAR U+309B
ENCODING 12443
SWIDTH 1000 0
DWIDTH 16 0
BBX 16 16 0 -2
BITMAP 
0000
7800
7800
7800
0000
0000
0000
0000
0000
0000
0000
0000
0000
0000
0000
0000
ENDCHAR
STARTCHAR U+309C
ENCODING 12444
SWIDTH 1000 0
DWIDTH 16 0
BBX 16 16 0 -2
BITMAP 
0000
3800
7C00
6C00
7C00
3800
0000
0000
0000
0000
0000
0000
0000
0000
0000
0000
ENDCHAR
STARTCHAR U+309D
ENCODING 12445
SWIDTH 1000 0
DWIDTH 16 0
BBX 16 16 0 -2
BITMAP 
0000
0000
0000
0000
0000
0E00
0F80
03E0
00F0
0038
0038
00F0
00E0
0000
0000
0000
ENDCHAR
STARTCHAR U+309E
ENCODING 12446
SWIDTH 1000 0
DWIDTH 16 0
BBX 16 16 0 -2
BITMAP 
0000
0000
0000
0030
0078
0E78
0FB0
03E0
00F0
0038
0038
00F0
00E0
0000
0000
0000
ENDCHAR
STARTCHAR U+309F
ENCODING 12447
SWIDTH 1000 0
DWIDTH 16 0
BBX 16 16 0 -2
BITMAP 
0000
0C00
0C00
0C00
0FF0
0FF0
0C00
0DF0
0FF8
0F18
0E18
0638
0030
0070
01E0
01C0
ENDCHAR
STARTCHAR U+30A0
ENCODING 12448
SWIDTH 1000 0
DWIDTH 16 0
BBX 16 16 0 -2
BITMAP 
0000
0000
0000
0000
0000
07F0
07F0
0000
0000
07F0
07F0
0000
0000
0000
0000
0000
ENDCHAR
STARTCHAR U+30A1
ENCODING 12449
SWIDTH 1000 0
DWIDTH 16 0
BBX 16 16 0 -2
BITMAP 
0000
0000
0000
0000
0000
0000
0000
0000
0FF0
0FF0
01F0
01E0
0180
0180
0380
0700
ENDCHAR
STARTCHAR U+30A2
ENCODING 12450
SWIDTH 1000 0
DWIDTH 16 0
BBX 16 16 0 -2
BITMAP 
0000
0000
0000
1FFE
1FFE
00CE
00DC
00D8
00C0
00C0
01C0
0180
0380
0700
0600
0000
ENDCHAR
STARTCHAR U+30A3
ENCODING 12451
SWIDTH 1000 0
DWIDTH 16 0
BBX 16 16 0 -2
BITMAP 
0000
0000
0000
0000
0000
0000
0030
0030
0070
01E0
0FC0
0FC0
00C0
00C0
00C0
00C0
ENDCHAR
STARTCHAR U+30A4
ENCODING 12452
SWIDTH 1000 0
DWIDTH 16 0
BBX 16 16 0 -2
BITMAP 
0000
0000
0018
0018
0038
0070
00E0
01C0
07C0
1FC0
1CC0
00C0
00C0
00C0
00C0
00C0
ENDCHAR
STARTCHAR U+30A5
ENCODING 12453
SWIDTH 1000 0
DWIDTH 16 0
BBX 16 16 0 -2
BITMAP 
0000
0000
0000
0000
00C0
00C0
00C0
0FFC
0FFC
0C0C
0C0C
001C
0018
0078
01F0
01C0
ENDCHAR
STARTCHAR U+30A6
ENCODING 12454
SWIDTH 1000 0
DWIDTH 16 0
BBX 16 16 0 -2
BITMAP 
0000
00C0
00C0
00C0
1FFE
1FFE
1806
1806
1806
000E
000C
001C
0078
01F0
01C0
0000
ENDCHAR
STARTCHAR U+30A7
ENCODING 12455
SWIDTH 1000 0
DWIDTH 16 0
BBX 16 16 0 -2
BITMAP 
0000
0000
0000
0000
0000
0000
0000
0000
0000
07F8
07F8
00C0
00C0
00C0
0FFC
0FFC
ENDCHAR
STARTCHAR U+30A8
ENCODING 12456
SWIDTH 1000 0
DWIDTH 16 0
BBX 16 16 0 -2
BITMAP 
0000
0000
0000
0000
0FFC
0FFC
00C0
00C0
00C0
00C0
00C0
00C0
3FFF
3FFF
0000
0000
ENDCHAR
STARTCHAR U+30A9
ENCODING 12457
SWIDTH 1000 0
DWIDTH 16 0
BBX 16 16 0 -2
BITMAP 
0000
0000
0000
0000
0000
0000
0030
0030
07FC
07FC
0070
00F0
01F0
07B0
0730
0070
ENDCHAR
STARTCHAR U+30AA
ENCODING 12458
SWIDTH 1000 0
DWIDTH 16 0
BBX 16 16 0 -2
BITMAP 
0000
0030
0030
0030
3FFF
3FFF
0070
00F0
01F0
03B0
0F30
3E30
3830
00F0
00F0
0000
ENDCHAR
STARTCHAR U+30AB
ENCODING 12459
SWIDTH 1000 0
DWIDTH 16 0
BBX 16 16 0 -2
BITMAP 
0180
0180
0180
0180
3FFE
3FFE
0186
0386
0306
0706
0606
0E0E
1C0C
387C
3078
0000
ENDCHAR
STARTCHAR U+30AC
ENCODING 12460
SWIDTH 1000 0
DWIDTH 16 0
BBX 16 16 0 -2
BITMAP 
0183
0187
0187
0183
3FFE
3FFE
0186
0386
0306
0706
0606
0E0E
1C0C
387C
3078
0000
ENDCHAR
STARTCHAR U+30AD
ENCODING 12461
SWIDTH 1000 0
DWIDTH 16 0
BBX 16 16 0 -2
BITMAP 
0000
0180
0180
0180
01FC
1FFC
1FC0
00C0
00FF
3FFF
3FE0
0060
0060
0060
0060
0060
ENDCHAR
STARTCHAR U+30AE
ENCODING 12462
SWIDTH 1000 0
DWIDTH 16 0
BBX 16 16 0 -2
BITMAP 
0000
0186
018F
018F
01FE
1FFC
1FC0
00C0
00FF
3FFF
3FE0
0060
0060
0060
0060
0060
ENDCHAR
STARTCHAR U+30AF
ENCODING 12463
SWIDTH 1000 0
DWIDTH 16 0
BBX 16 16 0 -2
BITMAP 
0000
0180
0180
01FC
03FC
030C
071C
0E18
0C38
0030
0070
00E0
03C0
0F80
0E00
0000
ENDCHAR
STARTCHAR U+30B0
ENCODING 12464
SWIDTH 1000 0
DWIDTH 16 0
BBX 16 16 0 -2
BITMAP 
0003
0187
0187
01FF
03FC
030C
071C
0E18
0C38
0030
0070
00E0
03C0
0F80
0E00
0000
ENDCHAR
STARTCHAR U+30B1
ENCODING 12465
SWIDTH 1000 0
DWIDTH 16 0
BBX 16 16 0 -2
BITMAP 
0000
0300
0300
0300
0700
07FF
0FFF
1C18
3818
3038
0030
0070
00E0
03C0
0380
0000
ENDCHAR
STARTCHAR U+30B2
ENCODING 12466
SWIDTH 1000 0
DWIDTH 16 0
BBX 16 16 0 -2
BITMAP 
0000
0303
0307
0307
0703
07FF
0FFF
1C18
3818
3038
0030
0070
00E0
03C0
0380
0000
ENDCHAR
STARTCHAR U+30B3
ENCODING 12467
SWIDTH 1000 0
DWIDTH 16 0
BBX 16 16 0 -2
BITMAP 
0000
0000
0000
0000
1FFC
1FFC
000C
000C
000C
000C
000C
000C
1FFC
1FFC
000C
0000
ENDCHAR
STARTCHAR U+30B4
ENCODING 12468
SWIDTH 1000 0
DWIDTH 16 0
BBX 16 16 0 -2
BITMAP 
0000
0003
0007
0007
1FFF
1FFC
000C
000C
000C
000C
000C
000C
1FFC
1FFC
000C
0000
ENDCHAR
STARTCHAR U+30B5
ENCODING 12469
SWIDTH 1000 0
DWIDTH 16 0
BBX 16 16 0 -2
BITMAP 
0000
0018
0618
0618
0618
3FFF
3FFF
0618
0618
0618
0618
0038
0030
0070
01E0
01C0
ENDCHAR
STARTCHAR U+30B6
ENCODING 12470
SWIDTH 1000 0
DWIDTH 16 0
BBX 16 16 0 -2
BITMAP 
0003
001F
061F
061B
0618
3FFF
3FFF
0618
0618
0618
0618
0038
0030
0070
01E0
01C0
ENDCHAR
STARTCHAR U+30B7
ENCODING 12471
SWIDTH 1000 0
DWIDTH 16 0
BBX 16 16 0 -2
BITMAP 
0000
0000
0C00
0F00
0700
0000
1800
1E06
0E0E
001C
0038
0070
01E0
0FC0
0F00
0000
ENDCHAR
STARTCHAR U+30B8
ENCODING 12472
SWIDTH 1000 0
DWIDTH 16 0
BBX 16 16 0 -2
BITMAP 
0000
000C
0E1E
0F1E
030C
0000
1C00
1E06
060E
001C
0038
0070
01E0
0FC0
0F00
0000
ENDCHAR
STARTCHAR U+30B9
ENCODING 12473
SWIDTH 1000 0
DWIDTH 16 0
BBX 16 16 0 -2
BITMAP 
0000
0000
0000
0FF8
0FF8
0018
0038
0030
0070
00F0
01F8
039C
070E
1E06
1C06
0000
ENDCHAR
STARTCHAR U+30BA
ENCODING 12474
SWIDTH 1000 0
DWIDTH 16 0
BBX 16 16 0 -2
BITMAP 
0000
0003
0007
0FFF
0FFB
0018
0038
0030
0070
00F0
01F8
039C
070E
1E06
1C06
0000
ENDCHAR
STARTCHAR U+30BB
ENCODING 12475
SWIDTH 1000 0
DWIDTH 16 0
BBX 16 16 0 -2
BITMAP 
0000
0600
0600
0600
067C
07FE
3FDE
3E38
0670
0660
0600
0600
07F8
03F8
0000
0000
ENDCHAR
STARTCHAR U+30BC
ENCODING 12476
SWIDTH 1000 0
DWIDTH 16 0
BBX 16 16 0 -2
BITMAP 
0000
0603
0607
0607
067F
07FE
3FDE
3E38
0670
0660
0600
0600
07F8
03F8
0000
0000
ENDCHAR
STARTCHAR U+30BD
ENCODING 12477
SWIDTH 1000 0
DWIDTH 16 0
BBX 16 16 0 -2
BITMAP 
0000
0000
180C
180C
1C0C
0C0C
0E1C
0618
0038
0030
0070
00E0
01C0
0380
0300
0000
ENDCHAR
STARTCHAR U+30BE
ENCODING 12478
SWIDTH 1000 0
DWIDTH 16 0
BBX 16 16 0 -2
BITMAP 
0003
0007
1807
180F
1C0C
0C0C
0E1C
0618
0038
0030
0070
00E0
01C0
0380
0300
0000
ENDCHAR
STARTCHAR U+30BF
ENCODING 12479
SWIDTH 1000 0
DWIDTH 16 0
BBX 16 16 0 -2
BITMAP 
0000
0180
0180
01FC
03FC
030C
071C
0F98
0FF8
00F0
0078
00F8
03C0
0F80
0E00
0000
ENDCHAR
STARTCHAR U+30C0
ENCODING 12480
SWIDTH 1000 0
DWIDTH 16 0
BBX 16 16 0 -2
BITMAP 
0003
0187
0187
01FF
03FC
030C
071C
0F98
0FF8
00F0
0078
00F8
03C0
0F80
0E00
0000
ENDCHAR
STARTCHAR U+30C1
ENCODING 12481
SWIDTH 1000 0
DWIDTH 16 0
BBX 16 16 0 -2
BITMAP 
0000
0018
00F8
1FF0
1FC0
00C0
00C0
7FFF
7FFF
00C0
00C0
01C0
0180
0380
0700
0600
ENDCHAR
STARTCHAR U+30C2
ENCODING 12482
SWIDTH 1000 0
DWIDTH 16 0
BBX 16 16 0 -2
BITMAP 
0000
0018
00FE
1FFF
1FCF
00C6
00C0
7FFF
7FFF
00C0
00C0
01C0
0180
0380
0700
0600
ENDCHAR
STARTCHAR U+30C3
ENCODING 12483
SWIDTH 1000 0
DWIDTH 16 0
BBX 16 16 0 -2
BITMAP 
0000
0000
0000
0000
0000
0000
0000
0000
0180
0DCC
0ECC
06DC
0618
0038
0070
00E0
ENDCHAR
STARTCHAR U+30C4
ENCODING 12484
SWIDTH 1000 0
DWIDTH 16 0
BBX 16 16 0 -2
BITMAP 
0000
0000
0300
0300
3386
3986
198E
180C
001C
0018
0038
0070
00E0
01C0
0380
0300
ENDCHAR
STARTCHAR U+30C5
ENCODING 12485
SWIDTH 1000 0
DWIDTH 16 0
BBX 16 16 0 -2
BITMAP 
0003
0007
0307
0303
3386
3986
198E
180C
001C
0018
0038
0070
00E0
01C0
0380
0300
ENDCHAR
STARTCHAR U+30C6
ENCODING 12486
SWIDTH 1000 0
DWIDTH 16 0
BBX 16 16 0 -2
BITMAP 
0000
0000
0FFC
0FFC
0000
0000
3FFF
3FFF
0060
0060
00E0
00C0
01C0
0780
0700
0000
ENDCHAR
STARTCHAR U+30C7
ENCODING 12487
SWIDTH 1000 0
DWIDTH 16 0
BBX 16 16 0 -2
BITMAP 
0003
0007
0FFF
0FFB
0000
0000
3FFF
3FFF
0060
0060
00E0
00C0
01C0
0780
0700
0000
ENDCHAR
STARTCHAR U+30C8
ENCODING 12488
SWIDTH 1000 0
DWIDTH 16 0
BBX 16 16 0 -2
BITMAP 
0000
0300
0300
0300
0300
0300
03E0
03F8
033C
030C
0300
0300
0300
0300
0300
0300
ENDCHAR
STARTCHAR U+30C9
ENCODING 12489
SWIDTH 1000 0
DWIDTH 16 0
BBX 16 16 0 -2
BITMAP 
0000
0300
030C
031E
031E
030C
03E0
03F8
033C
030C
0300
0300
0300
0300
0300
0300
ENDCHAR
STARTCHAR U+30CA
ENCODING 12490
SWIDTH 1000 0
DWIDTH 16 0
BBX 16 16 0 -2
BITMAP 
0000
00C0
00C0
00C0
00C0
3FFE
3FFE
00C0
00C0
00C0
01C0
0180
0380
0700
0E00
0C00
ENDCHAR
STARTCHAR U+30CB
ENCODING 12491
SWIDTH 1000 0
DWIDTH 16 0
BBX 16 16 0 -2
BITMAP 
0000
0000
0000
0000
0FFC
0FFC
0000
0000
0000
0000
0000
3FFF
3FFF
0000
0000
0000
ENDCHAR
STARTCHAR U+30CC
ENCODING 12492
SWIDTH 1000 0
DWIDTH 16 0
BBX 16 16 0 -2
BITMAP 
0000
0000
0000
0FF8
0FF8
0018
0038
0330
03F0
01E0
01E0
03F0
0738
1E1C
1C0C
0000
ENDCHAR
STARTCHAR U+30CD
ENCODING 12493
SWIDTH 1000 0
DWIDTH 16 0
BBX 16 16 0 -2
BITMAP 
0000
00C0
00C0
00C0
0FF8
0FF8
0078
00F0
03DC
0FDE
3EC7
38C3
00C0
00C0
00C0
00C0
ENDCHAR
STARTCHAR U+30CE
ENCODING 12494
SWIDTH 1000 0
DWIDTH 16 0
BBX 16 16 0 -2
BITMAP 
0000
0000
0018
0018
0018
0018
0038
0030
0070
0060
00E0
01C0
0780
1F00
1C00
0000
ENDCHAR
STARTCHAR U+30CF
ENCODING 12495
SWIDTH 1000 0
DWIDTH 16 0
BBX 16 16 0 -2
BITMAP 
0000
0000
0000
0000
0600
0660
0670
0E38
0C1C
1C0E
1806
3807
7003
6003
0000
0000
ENDCHAR
STARTCHAR U+30D0
ENCODING 12496
SWIDTH 1000 0
DWIDTH 16 0
BBX 16 16 0 -2
BITMAP 
0000
0000
0006
000F
060F
0666
0670
0E38
0C1C
1C0E
1806
3807
7003
6003
0000
0000
ENDCHAR
STARTCHAR U+30D1
ENCODING 12497
SWIDTH 1000 0
DWIDTH 16 0
BBX 16 16 0 -2
BITMAP 
0000
0000
000E
001F
061B
067F
067E
0E38
0C1C
1C0E
1806
3807
7003
6003
0000
0000
ENDCHAR
STARTCHAR U+30D2
ENCODING 12498
SWIDTH 1000 0
DWIDTH 16 0
BBX 16 16 0 -2
BITMAP 
0000
0000
0C00
0C00
0C0C
0C3C
0CF8
0FE0
0F80
0C00
0C00
0C00
0C00
0FFC
07FC
0000
ENDCHAR
STARTCHAR U+30D3
ENCODING 12499
SWIDTH 1000 0
DWIDTH 16 0
BBX 16 16 0 -2
BITMAP 
0000
000C
0C1E
0C1E
0C0C
0C18
0CF8
0FF0
0F80
0C00
0C00
0C00
0C00
0FF8
07F8
0000
ENDCHAR
STARTCHAR U+30D4
ENCODING 12500
SWIDTH 1000 0
DWIDTH 16 0
BBX 16 16 0 -2
BITMAP 
0000
001C
0C3E
0C36
0C3E
0C1C
0CF8
0FF0
0F80
0C00
0C00
0C00
0C00
0FF8
07F8
0000
ENDCHAR
STARTCHAR U+30D5
ENCODING 12501
SWIDTH 1000 0
DWIDTH 16 0
BBX 16 16 0 -2
BITMAP 
0000
0000
0000
1FFE
1FFE
0006
0006
000E
000C
001C
0038
0070
01E0
07C0
0700
0000
ENDCHAR
STARTCHAR U+30D6
ENCODING 12502
SWIDTH 1000 0
DWIDTH 16 0
BBX 16 16 0 -2
BITMAP 
0003
0007
0007
1FFF
1FFE
0006
0006
000E
000C
001C
0038
0070
01E0
07C0
0700
0000
ENDCHAR
STARTCHAR U+30D7
ENCODING 12503
SWIDTH 1000 0
DWIDTH 16 0
BBX 16 16 0 -2
BITMAP 
0007
000F
000D
1FFF
1FFF
0006
0006
000E
000C
001C
0038
0070
01E0
07C0
0700
0000
ENDCHAR
STARTCHAR U+30D8
ENCODING 12504
SWIDTH 1000 0
DWIDTH 16 0
BBX 16 16 0 -2
BITMAP 
0000
0000
0000
0000
0000
0700
0F80
1DC0
38E0
7070
603C
001F
0007
0000
0000
0000
ENDCHAR
STARTCHAR U+30D9
ENCODING 12505
SWIDTH 1000 0
DWIDTH 16 0
BBX 16 16 0 -2
BITMAP 
0000
0000
0000
0000
0018
073C
0FBC
1DD8
38E0
7070
603C
001F
0007
0000
0000
0000
ENDCHAR
STARTCHAR U+30DA
ENCODING 12506
SWIDTH 1000 0
DWIDTH 16 0
BBX 16 16 0 -2
BITMAP 
0000
0000
0000
0038
007C
076C
0FFC
1DF8
38E0
7070
603C
001F
0007
0000
0000
0000
ENDCHAR
STARTCHAR U+30DB
ENCODING 12507
SWIDTH 1000 0
DWIDTH 16 0
BBX 16 16 0 -2
BITMAP 
0000
00C0
00C0
00C0
1FFE
1FFE
00C0
00C0
0CCC
0CCE
1CC7
38C3
30C3
03C0
03C0
0000
ENDCHAR
STARTCHAR U+30DC
ENCODING 12508
SWIDTH 1000 0
DWIDTH 16 0
BBX 16 16 0 -2
BITMAP 
0000
00C3
00C7
00C7
1FFF
1FFE
00C0
00C0
0CCC
0CCE
1CC7
38C3
30C3
03C0
03C0
0000
ENDCHAR
STARTCHAR U+30DD
ENCODING 12509
SWIDTH 1000 0
DWIDTH 16 0
BBX 16 16 0 -2
BITMAP 
0007
00CF
00CD
00CF
1FFF
1FFC
00C0
00C0
0CCC
0CCE
1CC7
38C3
30C3
03C0
03C0
0000
ENDCHAR
STARTCHAR U+30DE
ENCODING 12510
SWIDTH 1000 0
DWIDTH 16 0
BBX 16 16 0 -2
BITMAP 
0000
0000
0000
3FFE
3FFE
000E
000C
001C
0E38
0FF0
03E0
00E0
0070
0030
0000
0000
ENDCHAR
STARTCHAR U+30DF
ENCODING 12511
SWIDTH 1000 0
DWIDTH 16 0
BBX 16 16 0 -2
BITMAP 
0000
0000
03C0
03F0
0078
0018
0380
03E0
00F0
0030
0000
0F00
0FC0
01F0
0078
0018
ENDCHAR
STARTCHAR U+30E0
ENCODING 12512
SWIDTH 1000 0
DWIDTH 16 0
BBX 16 16 0 -2
BITMAP 
0000
0000
0300
0300
0300
0300
0300
0300
0730
0638
061C
0E3C
0DFE
3FE6
3F06
0000
ENDCHAR
STARTCHAR U+30E1
ENCODING 12513
SWIDTH 1000 0
DWIDTH 16 0
BBX 16 16 0 -2
BITMAP 
0000
0000
000C
000C
000C
001C
0398
03F8
00F0
0078
00FC
01CC
0780
1F00
1C00
0000
ENDCHAR
STARTCHAR U+30E2
ENCODING 12514
SWIDTH 1000 0
DWIDTH 16 0
BBX 16 16 0 -2
BITMAP 
0000
0000
0000
1FF8
1FF8
0300
0300
3FFE
3FFE
0300
0300
0300
0300
03F8
01F8
0000
ENDCHAR
STARTCHAR U+30E3
ENCODING 12515
SWIDTH 1000 0
DWIDTH 16 0
BBX 16 16 0 -2
BITMAP 
0000
0000
0000
0000
0000
0600
0600
073C
03FC
1FFC
1FB8
01B0
0180
01C0
00C0
00C0
ENDCHAR
STARTCHAR U+30E4
ENCODING 12516
SWIDTH 1000 0
DWIDTH 16 0
BBX 16 16 0 -2
BITMAP 
0000
0000
0C00
0C00
0E1E
06FF
07F7
3F8E
3F1C
0398
0180
0180
01C0
00C0
00C0
00C0
ENDCHAR
STARTCHAR U+30E5
ENCODING 12517
SWIDTH 1000 0
DWIDTH 16 0
BBX 16 16 0 -2
BITMAP 
0000
0000
0000
0000
0000
0000
0000
0000
07E0
07E0
0060
0060
00E0
00C0
1FFC
1FFC
ENDCHAR
STARTCHAR U+30E6
ENCODING 12518
SWIDTH 1000 0
DWIDTH 16 0
BBX 16 16 0 -2
BITMAP 
0000
0000
0000
0000
0FF8
0FF8
0018
0018
0018
0038
0030
0030
3FFF
3FFF
0000
0000
ENDCHAR
STARTCHAR U+30E7
ENCODING 12519
SWIDTH 1000 0
DWIDTH 16 0
BBX 16 16 0 -2
BITMAP 
0000
0000
0000
0000
0000
0000
0000
07F0
07F0
0030
07F0
07F0
0030
0030
07F0
07F0
ENDCHAR
STARTCHAR U+30E8
ENCODING 12520
SWIDTH 1000 0
DWIDTH 16 0
BBX 16 16 0 -2
BITMAP 
0000
0000
1FF8
1FF8
0018
0018
0018
0FF8
0FF8
0018
0018
0018
1FF8
1FF8
0018
0000
ENDCHAR
STARTCHAR U+30E9
ENCODING 12521
SWIDTH 1000 0
DWIDTH 16 0
BBX 16 16 0 -2
BITMAP 
0000
0000
07F8
07F8
0000
0000
1FFE
1FFE
000E
000C
001C
0038
00F0
03E0
0380
0000
ENDCHAR
STARTCHAR U+30EA
ENCODING 12522
SWIDTH 1000 0
DWIDTH 16 0
BBX 16 16 0 -2
BITMAP 
0000
0018
0C18
0C18
0C18
0C18
0C18
0C18
0C18
0C18
0018
0038
0030
0070
01E0
01C0
ENDCHAR
STARTCHAR U+30EB
ENCODING 12523
SWIDTH 1000 0
DWIDTH 16 0
BBX 16 16 0 -2
BITMAP 
0000
0000
0060
0060
0660
0660
0660
0660
0660
0E60
0C61
1C63
386F
707E
6078
0000
ENDCHAR
STARTCHAR U+30EC
ENCODING 12524
SWIDTH 1000 0
DWIDTH 16 0
BBX 16 16 0 -2
BITMAP 
0000
0000
0600
0600
0600
0600
0600
0600
0600
060C
061C
0638
06F0
07E0
0780
0000
ENDCHAR
STARTCHAR U+30ED
ENCODING 12525
SWIDTH 1000 0
DWIDTH 16 0
BBX 16 16 0 -2
BITMAP 
0000
0000
0000
0000
1FFC
1FFC
180C
180C
180C
180C
180C
180C
1FFC
1FFC
180C
0000
ENDCHAR
STARTCHAR U+30EE
ENCODING 12526
SWIDTH 1000 0
DWIDTH 16 0
BBX 16 16 0 -2
BITMAP 
0000
0000
0000
0000
0000
0000
0000
0FF8
0FF8
0C18
0C18
0C18
0038
0030
0070
01E0
ENDCHAR
STARTCHAR U+30EF
ENCODING 12527
SWIDTH 1000 0
DWIDTH 16 0
BBX 16 16 0 -2
BITMAP 
0000
0000
0000
1FFE
1FFE
1806
1806
1806
1806
0006
000E
000C
001C
0078
01F0
01C0
ENDCHAR
STARTCHAR U+30F0
ENCODING 12528
SWIDTH 1000 0
DWIDTH 16 0
BBX 16 16 0 -2
BITMAP 
0000
0030
0030
0030
0FFE
0FFE
0630
0630
0630
3FFF
3FFF
0030
0030
0030
0030
0030
ENDCHAR
STARTCHAR U+30F1
ENCODING 12529
SWIDTH 1000 0
DWIDTH 16 0
BBX 16 16 0 -2
BITMAP 
0000
0000
0000
0000
0FFC
0FFC
001C
00F8
00F0
00C0
00C0
00C0
3FFF
3FFF
0000
0000
ENDCHAR
STARTCHAR U+30F2
ENCODING 12530
SWIDTH 1000 0
DWIDTH 16 0
BBX 16 16 0 -2
BITMAP 
0000
0000
0000
0FFC
0FFC
000C
1FFC
1FFC
001C
0018
0038
0070
01E0
07C0
0700
0000
ENDCHAR
STARTCHAR U+30F3
ENCODING 12531
SWIDTH 1000 0
DWIDTH 16 0
BBX 16 16 0 -2
BITMAP 
0000
0000
0000
1C00
1E00
0706
0306
000E
000C
001C
0038
0070
01E0
0FC0
0F00
0000
ENDCHAR
STARTCHAR U+30F4
ENCODING 12532
SWIDTH 1000 0
DWIDTH 16 0
BBX 16 16 0 -2
BITMAP 
0003
00C7
00C7
00C3
1FFE
1FFE
1806
1806
1806
000E
000C
001C
0078
01F0
01C0
0000
ENDCHAR
STARTCHAR U+30F5
ENCODING 12533
SWIDTH 1000 0
DWIDTH 16 0
BBX 16 16 0 -2
BITMAP 
0000
0000
0000
0000
0000
00C0
00C0
00C0
0FFC
0FFC
01CC
018C
038C
071C
0E18
0C78
ENDCHAR
STARTCHAR U+30F6
ENCODING 12534
SWIDTH 1000 0
DWIDTH 16 0
BBX 16 16 0 -2
BITMAP 
0000
0000
0000
0000
0000
0300
0300
0300
07FE
07FE
0E30
0C30
0070
0060
00E0
03C0
ENDCHAR
STARTCHAR U+30F7
ENCODING 12535
SWIDTH 1000 0
DWIDTH 16 0
BBX 16 16 0 -2
BITMAP 
0003
0007
0007
1FFF
1FFE
1806
1806
1806
1806
0006
000E
000C
001C
0078
01F0
01C0
ENDCHAR
STARTCHAR U+30F8
ENCODING 12536
SWIDTH 1000 0
DWIDTH 16 0
BBX 16 16 0 -2
BITMAP 
0000
0033
0037
0037
0FFF
0FFE
0630
0630
0630
3FFF
3FFF
0030
0030
0030
0030
0030
ENDCHAR
STARTCHAR U+30F9
ENCODING 12537
SWIDTH 1000 0
DWIDTH 16 0
BBX 16 16 0 -2
BITMAP 
0000
0003
0007
0007
0FFF
0FFC
001C
00F8
00F0
00C0
00C0
00C0
3FFF
3FFF
0000
0000
ENDCHAR
STARTCHAR U+30FA
ENCODING 12538
SWIDTH 1000 0
DWIDTH 16 0
BBX 16 16 0 -2
BITMAP 
0003
0007
0007
0FFF
0FFC
000C
1FFC
1FFC
001C
0018
0038
0070
01E0
07C0
0700
0000
ENDCHAR
STARTCHAR U+30FB
ENCODING 12539
SWIDTH 1000 0
DWIDTH 16 0
BBX 16 16 0 -2
BITMAP 
0000
0000
0000
0000
0000
0000
0000
01C0
01C0
01C0
0000
0000
0000
0000
0000
0000
ENDCHAR
STARTCHAR U+30FC
ENCODING 12540
SWIDTH 1000 0
DWIDTH 16 0
BBX 16 16 0 -2
BITMAP 
0000
0000
0000
0000
0000
0000
0000
3000
3FFF
1FFF
0000
0000
0000
0000
0000
0000
ENDCHAR
STARTCHAR U+30FD
ENCODING 12541
SWIDTH 1000 0
DWIDTH 16 0
BBX 16 16 0 -2
BITMAP 
0000
0000
0000
0000
0000
0700
07C0
01E0
0070
0038
0018
0018
0000
0000
0000
0000
ENDCHAR
STARTCHAR U+30FE
ENCODING 12542
SWIDTH 1000 0
DWIDTH 16 0
BBX 16 16 0 -2
BITMAP 
0000
0000
0000
0018
003C
073C
07D8
01E0
0070
0038
0018
0018
0000
0000
0000
0000
ENDCHAR
STARTCHAR U+30FF
ENCODING 12543
SWIDTH 1000 0
DWIDTH 16 0
BBX 16 16 0 -2
BITMAP 
0000
0000
1FFC
1FFC
000C
000C
000C
000C
000C
000C
000C
000C
000C
000C
000C
000C
ENDCHAR
ENDFONT
